<svg width="32" height="32" viewBox="0 0 32 32" fill="none" xmlns="http://www.w3.org/2000/svg">
<g clip-path="url(#clip0_102_178)">
<rect width="32" height="32" fill="#093FB4"/>
<path d="M22.4 12.2C22.5067 12.6267 22.56 13.16 22.56 13.8C22.56 14.4133 22.5067 14.9467 22.4 15.4H19.2C19.0933 14.9467 19.04 14.4133 19.04 13.8C19.04 13.16 19.0933 12.6267 19.2 12.2H16.4C16.5067 12.6267 16.56 13.16 16.56 13.8C16.56 14.4133 16.5067 14.9467 16.4 15.4H15.2C15.3067 15.8267 15.36 16.36 15.36 17C15.36 17.6133 15.3067 18.1467 15.2 18.6C15.3067 19.0267 15.36 19.56 15.36 20.2C15.36 20.8133 15.3067 21.3467 15.2 21.8H17.6C17.7067 22.2267 17.76 22.76 17.76 23.4C17.76 24.0133 17.7067 24.5467 17.6 25H9.6C9.49333 24.5467 9.44 24.0133 9.44 23.4C9.44 22.76 9.49333 22.2267 9.6 21.8H12C11.8933 21.3467 11.84 20.8133 11.84 20.2C11.84 19.56 11.8933 19.0267 12 18.6C11.8933 18.1467 11.84 17.6133 11.84 17C11.84 16.36 11.8933 15.8267 12 15.4C11.8933 14.9467 11.84 14.4133 11.84 13.8C11.84 13.16 11.8933 12.6267 12 12.2H9.6C9.49333 11.7467 9.44 11.2133 9.44 10.6C9.44 9.96 9.49333 9.42667 9.6 9H13.6C13.7067 9.42667 13.76 9.96 13.76 10.6C13.76 11.2133 13.7067 11.7467 13.6 12.2H15.2C15.0933 11.7467 15.04 11.2133 15.04 10.6C15.04 9.96 15.0933 9.42667 15.2 9H21.2C21.3067 9.42667 21.36 9.96 21.36 10.6C21.36 11.2133 21.3067 11.7467 21.2 12.2H22.4Z" fill="white"/>
</g>
<defs>
<clipPath id="clip0_102_178">
<rect width="32" height="32" fill="white"/>
</clipPath>
</defs>
</svg>
