<svg width="693" height="462" viewBox="0 0 693 462" fill="none" xmlns="http://www.w3.org/2000/svg">
<g clip-path="url(#clip0_859_5660)">
<rect width="693" height="462" rx="8" fill="#F5F5F5"/>
<g filter="url(#filter0_d_859_5660)">
<rect x="37.5" y="102.5" width="1513" height="1033.67" rx="10.5" stroke="#D4D4D4" shape-rendering="crispEdges"/>
<path d="M38 118.59C38 113.133 38 110.404 39.0569 108.32C39.9857 106.487 41.4684 104.996 43.292 104.062C45.3656 103 48.0795 103 53.5073 103H1534.49C1539.93 103 1542.64 103 1544.71 104.062C1546.54 104.996 1548.03 106.487 1548.95 108.32C1550 110.404 1550 113.133 1550 118.59V153.666H38V118.59Z" fill="#FDFDFD"/>
<mask id="mask0_859_5660" style="mask-type:luminance" maskUnits="userSpaceOnUse" x="132" y="115" width="96" height="24">
<path d="M227.465 115.356H132.48V138.74H227.465V115.356Z" fill="white"/>
</mask>
<g mask="url(#mask0_859_5660)">
<path d="M137.061 135.345H150.827C152.572 135.345 153.482 134.439 153.482 132.708V122.865C153.482 121.134 152.572 120.229 150.827 120.229H137.061C135.322 120.229 134.414 121.126 134.414 122.865V132.708C134.414 134.439 135.322 135.345 137.061 135.345ZM137.164 133.735C136.425 133.735 136.015 133.347 136.015 132.562V123.011C136.015 122.226 136.425 121.839 137.164 121.839H140.833V133.735H137.164ZM150.722 121.839C151.462 121.839 151.873 122.226 151.873 123.011V132.562C151.873 133.347 151.462 133.735 150.722 133.735H142.355V121.839H150.722ZM139.257 124.798C139.547 124.798 139.787 124.548 139.787 124.272C139.787 123.998 139.547 123.754 139.257 123.754H137.607C137.317 123.754 137.077 123.998 137.077 124.272C137.077 124.548 137.317 124.798 137.607 124.798H139.257ZM139.257 126.974C139.547 126.974 139.787 126.731 139.787 126.448C139.787 126.174 139.547 125.93 139.257 125.93H137.607C137.317 125.93 137.077 126.174 137.077 126.448C137.077 126.731 137.317 126.974 137.607 126.974H139.257ZM139.257 129.141C139.547 129.141 139.787 128.907 139.787 128.624C139.787 128.348 139.547 128.114 139.257 128.114H137.607C137.317 128.114 137.077 128.348 137.077 128.624C137.077 128.907 137.317 129.141 137.607 129.141H139.257Z" fill="#717171"/>
<path d="M184.231 133.958L178.339 128.165C178.135 127.961 178.029 127.733 178.029 127.466C178.029 127.199 178.135 126.956 178.347 126.757L184.237 120.972C184.404 120.805 184.617 120.714 184.859 120.714C185.367 120.714 185.76 121.11 185.76 121.612C185.76 121.856 185.661 122.091 185.487 122.267L180.187 127.458L185.487 132.665C185.661 132.84 185.76 133.068 185.76 133.319C185.76 133.822 185.367 134.217 184.859 134.217C184.617 134.217 184.404 134.126 184.231 133.958Z" fill="#717171"/>
<path d="M213.343 134.217C213.592 134.217 213.797 134.126 213.971 133.958L219.862 128.173C220.067 127.961 220.172 127.74 220.172 127.466C220.172 127.199 220.075 126.963 219.862 126.765L213.971 120.972C213.797 120.805 213.592 120.714 213.343 120.714C212.836 120.714 212.441 121.11 212.441 121.612C212.441 121.856 212.547 122.091 212.714 122.267L218.023 127.474L212.714 132.665C212.54 132.848 212.441 133.068 212.441 133.319C212.441 133.822 212.836 134.217 213.343 134.217Z" fill="#BDBCBC"/>
</g>
<mask id="mask1_859_5660" style="mask-type:luminance" maskUnits="userSpaceOnUse" x="58" y="122" width="52" height="12">
<path d="M109.209 122.175H58.8087V133.868H109.209V122.175Z" fill="white"/>
</mask>
<g mask="url(#mask1_859_5660)">
<path d="M64.6239 133.867C67.8356 133.867 70.4393 131.25 70.4393 128.021C70.4393 124.793 67.8356 122.175 64.6239 122.175C61.4121 122.175 58.8085 124.793 58.8085 128.021C58.8085 131.25 61.4121 133.867 64.6239 133.867Z" fill="#ED6A5E"/>
<path d="M64.6238 133.38C67.5679 133.38 69.9546 130.981 69.9546 128.021C69.9546 125.061 67.5679 122.662 64.6238 122.662C61.6796 122.662 59.293 125.061 59.293 128.021C59.293 130.981 61.6796 133.38 64.6238 133.38Z" stroke="black" stroke-opacity="0.1" stroke-width="0.628205"/>
<path d="M84.0097 133.867C87.2215 133.867 89.8251 131.25 89.8251 128.021C89.8251 124.793 87.2215 122.175 84.0097 122.175C80.798 122.175 78.1943 124.793 78.1943 128.021C78.1943 131.25 80.798 133.867 84.0097 133.867Z" fill="#F4BD50"/>
<path d="M84.0099 133.38C86.954 133.38 89.3406 130.981 89.3406 128.021C89.3406 125.061 86.954 122.662 84.0099 122.662C81.0657 122.662 78.6791 125.061 78.6791 128.021C78.6791 130.981 81.0657 133.38 84.0099 133.38Z" stroke="black" stroke-opacity="0.1" stroke-width="0.628205"/>
<path d="M103.397 133.867C106.609 133.867 109.213 131.25 109.213 128.021C109.213 124.793 106.609 122.175 103.397 122.175C100.186 122.175 97.582 124.793 97.582 128.021C97.582 131.25 100.186 133.867 103.397 133.867Z" fill="#61C454"/>
<path d="M103.397 133.38C106.342 133.38 108.728 130.981 108.728 128.021C108.728 125.061 106.342 122.662 103.397 122.662C100.453 122.662 98.0667 125.061 98.0667 128.021C98.0667 130.981 100.453 133.38 103.397 133.38Z" stroke="black" stroke-opacity="0.1" stroke-width="0.628205"/>
</g>
<path d="M501.692 123.734C501.692 120.46 501.692 118.823 502.325 117.573C502.883 116.473 503.772 115.578 504.867 115.018C506.111 114.38 507.739 114.38 510.996 114.38H1079.74C1083 114.38 1084.63 114.38 1085.87 115.018C1086.97 115.578 1087.86 116.473 1088.41 117.573C1089.05 118.823 1089.05 120.46 1089.05 123.734V132.308C1089.05 135.582 1089.05 137.22 1088.41 138.47C1087.86 139.57 1086.97 140.465 1085.87 141.025C1084.63 141.662 1083 141.662 1079.74 141.662H510.996C507.739 141.662 506.111 141.662 504.867 141.025C503.772 140.465 502.883 139.57 502.325 138.47C501.692 137.22 501.692 135.582 501.692 132.308V123.734Z" fill="#F0F0F0"/>
<path d="M479.399 135.815C479.544 135.815 479.76 135.767 479.961 135.652C484.58 133.104 486.185 131.925 486.185 128.961V122.816C486.185 121.839 485.807 121.489 485.006 121.139C484.116 120.757 481.124 119.699 480.249 119.397C479.986 119.308 479.672 119.251 479.399 119.251C479.128 119.251 478.815 119.324 478.549 119.397C477.676 119.65 474.684 120.765 473.794 121.139C472.992 121.481 472.615 121.839 472.615 122.816V128.961C472.615 131.925 474.228 133.088 478.83 135.652C479.038 135.767 479.256 135.815 479.399 135.815ZM479.833 120.895C480.884 121.318 483.169 122.141 484.372 122.572C484.597 122.661 484.653 122.783 484.653 123.076V128.66C484.653 131.046 483.474 131.688 479.858 133.903C479.632 134.041 479.52 134.089 479.407 134.089V120.806C479.52 120.806 479.64 120.83 479.833 120.895Z" fill="#717171"/>
<g clip-path="url(#clip1_859_5660)">
<path d="M38 153.666H1550V1135.67H38V153.666Z" fill="white"/>
<rect width="274" height="982" transform="translate(38 153.666)" fill="#FCFCFC"/>
<rect x="46.5" y="162.166" width="257" height="965" rx="11.5" fill="#FCFCFC"/>
<rect x="46.5" y="162.166" width="257" height="965" rx="11.5" stroke="#A1A1A1"/>
<g opacity="0.9">
<rect x="56" y="171.666" width="36" height="28" rx="8" fill="#FCFCFC"/>
<path d="M81.8177 183.851C82.0217 183.177 82.0923 182.464 82.0246 181.758C81.957 181.052 81.7528 180.371 81.4256 179.758C80.9404 178.833 80.1997 178.1 79.3101 177.666C78.4206 177.231 77.4282 177.118 76.4759 177.342C75.935 176.682 75.2452 176.19 74.4759 175.915C73.7065 175.64 72.8848 175.592 72.0931 175.776C71.3014 175.959 70.5677 176.367 69.9656 176.96C69.3635 177.552 68.9143 178.308 68.663 179.151C68.0286 179.294 67.4293 179.583 66.9052 180C66.381 180.417 65.944 180.951 65.6234 181.568C65.1331 182.492 64.9235 183.563 65.025 184.626C65.1265 185.689 65.5338 186.689 66.1881 187.482C65.9834 188.155 65.9121 188.868 65.9791 189.574C66.0461 190.28 66.2498 190.961 66.5767 191.574C67.0624 192.5 67.8038 193.233 68.694 193.667C69.5842 194.101 70.5772 194.215 71.5299 193.991C71.9597 194.521 72.4878 194.945 73.0789 195.234C73.6701 195.523 74.3107 195.67 74.9579 195.666C75.9339 195.667 76.885 195.328 77.6738 194.698C78.4625 194.068 79.0483 193.18 79.3464 192.161C79.9807 192.019 80.5799 191.729 81.1041 191.312C81.6282 190.896 82.0653 190.361 82.386 189.745C82.8706 188.822 83.0766 187.755 82.9745 186.697C82.8724 185.638 82.4675 184.642 81.8177 183.851ZM74.9579 194.357C74.1586 194.359 73.3844 194.052 72.7709 193.49L72.8788 193.423L76.5119 191.124C76.6023 191.066 76.6774 190.983 76.7298 190.884C76.7821 190.784 76.8099 190.672 76.8105 190.557V184.943L78.3464 185.916C78.354 185.921 78.3605 185.927 78.3656 185.934C78.3706 185.942 78.3739 185.951 78.3753 185.96V190.612C78.3733 191.605 78.0127 192.556 77.3722 193.258C76.7318 193.96 75.8637 194.355 74.9579 194.357ZM67.6126 190.919C67.2117 190.161 67.0678 189.272 67.2061 188.408L67.3141 188.479L70.9508 190.778C71.0408 190.835 71.1432 190.866 71.2475 190.866C71.3519 190.866 71.4543 190.835 71.5443 190.778L75.9868 187.97V189.914C75.9863 189.924 75.9838 189.934 75.9795 189.943C75.9751 189.952 75.969 189.959 75.9615 189.965L72.2817 192.291C71.4963 192.787 70.5636 192.921 69.6882 192.664C68.8128 192.407 68.0663 191.779 67.6126 190.919ZM66.6558 182.246C67.0595 181.482 67.6966 180.9 68.4544 180.602V185.333C68.453 185.447 68.4797 185.56 68.5315 185.659C68.5834 185.758 68.6586 185.84 68.7493 185.897L73.1702 188.692L71.6342 189.666C71.6259 189.671 71.6167 189.673 71.6072 189.673C71.5978 189.673 71.5886 189.671 71.5803 189.666L67.9076 187.344C67.1238 186.846 66.5519 186.028 66.3173 185.068C66.0827 184.109 66.2044 183.087 66.6558 182.226V182.246ZM79.2745 185.459L74.8393 182.636L76.3716 181.666C76.3799 181.662 76.3892 181.659 76.3986 181.659C76.408 181.659 76.4173 181.662 76.4256 181.666L80.0982 183.992C80.6598 184.348 81.1176 184.87 81.4181 185.5C81.7187 186.13 81.8497 186.84 81.7958 187.548C81.7418 188.256 81.5052 188.933 81.1136 189.499C80.7219 190.065 80.1914 190.498 79.5839 190.746V186.015C79.5807 185.901 79.5505 185.79 79.4962 185.692C79.442 185.595 79.3656 185.514 79.2745 185.459ZM80.8033 182.94L80.6953 182.869L77.0659 180.551C76.9754 180.493 76.8723 180.462 76.7673 180.462C76.6623 180.462 76.5593 180.493 76.4687 180.551L72.03 183.358V181.414C72.029 181.404 72.0306 181.394 72.0344 181.385C72.0382 181.376 72.0441 181.369 72.0516 181.363L75.7242 179.041C76.2871 178.685 76.9307 178.513 77.5797 178.544C78.2287 178.575 78.8563 178.807 79.389 179.215C79.9218 179.622 80.3378 180.187 80.5882 180.844C80.8387 181.501 80.9133 182.222 80.8034 182.924L80.8033 182.94ZM71.1917 186.385L69.6559 185.416C69.6482 185.411 69.6416 185.404 69.6366 185.396C69.6316 185.387 69.6283 185.378 69.627 185.368V180.728C69.6278 180.016 69.8135 179.319 70.1624 178.719C70.5113 178.119 71.009 177.639 71.5972 177.338C72.1854 177.036 72.8398 176.924 73.484 177.014C74.1282 177.105 74.7355 177.395 75.2349 177.85L75.127 177.917L71.494 180.216C71.4035 180.274 71.3285 180.357 71.2761 180.456C71.2238 180.556 71.1959 180.668 71.1954 180.783L71.1917 186.385ZM72.0263 184.414L74.0046 183.165L75.9868 184.414V186.914L74.0119 188.164L72.0299 186.914L72.0263 184.414Z" fill="#171717"/>
</g>
<rect x="238" y="173.666" width="24" height="24" rx="4" fill="#FCFCFC"/>
<g clip-path="url(#clip2_859_5660)">
<path d="M257.297 191.869L254.497 189.098C256.622 186.453 256.422 182.559 253.998 180.138C252.723 178.865 251.048 178.166 249.249 178.166C247.449 178.166 245.749 178.865 244.475 180.138C243.2 181.411 242.5 183.083 242.5 184.905C242.5 186.727 243.2 188.399 244.475 189.672C245.749 190.92 247.424 191.644 249.249 191.644C250.773 191.644 252.273 191.12 253.448 190.171L256.222 192.942C256.372 193.092 256.547 193.166 256.747 193.166C256.947 193.166 257.147 193.092 257.272 192.942C257.572 192.642 257.572 192.168 257.297 191.869ZM254.497 184.905C254.497 186.303 253.948 187.626 252.948 188.599C251.948 189.572 250.648 190.146 249.249 190.146C247.849 190.146 246.524 189.597 245.549 188.599C244.575 187.601 244 186.303 244 184.905C244 183.507 244.55 182.185 245.549 181.211C246.549 180.238 247.824 179.664 249.249 179.664C250.648 179.664 251.973 180.213 252.948 181.211C253.923 182.21 254.497 183.483 254.497 184.905Z" fill="#171717"/>
</g>
<rect x="270" y="173.666" width="24" height="24" rx="4" fill="#FCFCFC"/>
<path d="M277 182.666H278" stroke="#171717" stroke-width="1.5" stroke-linecap="round"/>
<path d="M277 185.666H278" stroke="#171717" stroke-width="1.5" stroke-linecap="round"/>
<path d="M281 178.666V192.666" stroke="#171717" stroke-width="1.5"/>
<rect x="274" y="178.666" width="16" height="14" rx="4" stroke="#171717" stroke-width="1.5"/>
<line x1="56" y1="211.166" x2="294" y2="211.166" stroke="#A1A1A1"/>
<g opacity="0.9">
<rect x="56" y="215.666" width="238" height="40" rx="8" fill="#FCFCFC"/>
<path d="M73.77 229.24H72.4613C70.8044 229.24 69.4613 230.583 69.4613 232.24V239.166C69.4613 240.823 70.8044 242.166 72.4613 242.166H79.3874C81.0443 242.166 82.3874 240.823 82.3874 239.166V237.858" stroke="#171717" stroke-width="1.5" stroke-linecap="round"/>
<path d="M76.2594 238.188C75.913 238.534 75.4515 238.742 74.9625 238.77L73.3697 238.864C73.0709 238.881 72.8237 238.634 72.8413 238.335L72.9348 236.743C72.9635 236.253 73.1707 235.792 73.5171 235.446L78.4252 230.538C79.1825 229.78 80.4102 229.78 81.1675 230.538V230.538C81.9248 231.295 81.9248 232.523 81.1675 233.28L76.2594 238.188Z" stroke="#171717" stroke-width="1.5"/>
<path d="M103.337 230.985V241.166H101.925L96.7493 233.699H96.6548V241.166H95.1186V230.985H96.5405L101.721 238.462H101.815V230.985H103.337ZM108.707 241.321C107.955 241.321 107.307 241.16 106.764 240.838C106.223 240.513 105.806 240.058 105.511 239.471C105.219 238.881 105.073 238.19 105.073 237.398C105.073 236.616 105.219 235.926 105.511 235.33C105.806 234.733 106.217 234.267 106.744 233.933C107.274 233.598 107.894 233.431 108.603 233.431C109.034 233.431 109.452 233.502 109.856 233.644C110.26 233.787 110.623 234.011 110.945 234.316C111.266 234.62 111.52 235.017 111.705 235.504C111.891 235.988 111.984 236.576 111.984 237.269V237.796H105.913V236.682H110.527C110.527 236.291 110.448 235.945 110.288 235.643C110.129 235.338 109.906 235.098 109.617 234.922C109.332 234.746 108.997 234.659 108.613 234.659C108.195 234.659 107.831 234.761 107.519 234.967C107.211 235.169 106.972 235.434 106.803 235.762C106.638 236.087 106.555 236.44 106.555 236.821V237.691C106.555 238.202 106.644 238.636 106.823 238.994C107.006 239.352 107.259 239.625 107.584 239.814C107.909 240 108.288 240.093 108.722 240.093C109.004 240.093 109.261 240.053 109.493 239.973C109.725 239.89 109.926 239.768 110.095 239.605C110.264 239.443 110.393 239.242 110.482 239.004L111.889 239.257C111.777 239.672 111.574 240.035 111.283 240.346C110.994 240.654 110.631 240.895 110.194 241.067C109.76 241.236 109.264 241.321 108.707 241.321ZM115.233 241.166L112.986 233.53H114.522L116.018 239.138H116.093L117.594 233.53H119.131L120.622 239.113H120.697L122.183 233.53H123.719L121.477 241.166H119.961L118.41 235.653H118.295L116.744 241.166H115.233ZM131.968 241.321C131.229 241.321 130.592 241.153 130.059 240.818C129.528 240.48 129.121 240.015 128.836 239.421C128.551 238.828 128.408 238.149 128.408 237.383C128.408 236.607 128.554 235.923 128.846 235.33C129.137 234.733 129.548 234.267 130.079 233.933C130.609 233.598 131.234 233.431 131.953 233.431C132.533 233.431 133.05 233.538 133.504 233.754C133.958 233.966 134.324 234.264 134.603 234.649C134.884 235.033 135.052 235.482 135.105 235.996H133.658C133.579 235.638 133.396 235.33 133.111 235.071C132.83 234.813 132.452 234.683 131.978 234.683C131.563 234.683 131.201 234.793 130.889 235.012C130.581 235.227 130.34 235.535 130.168 235.936C129.996 236.334 129.91 236.805 129.91 237.348C129.91 237.905 129.994 238.386 130.163 238.79C130.332 239.194 130.571 239.508 130.879 239.73C131.191 239.952 131.557 240.063 131.978 240.063C132.259 240.063 132.515 240.011 132.743 239.909C132.975 239.803 133.169 239.652 133.325 239.456C133.484 239.261 133.595 239.025 133.658 238.75H135.105C135.052 239.244 134.891 239.685 134.623 240.073C134.354 240.46 133.995 240.765 133.544 240.987C133.096 241.209 132.571 241.321 131.968 241.321ZM138.139 236.632V241.166H136.653V230.985H138.119V234.773H138.214C138.393 234.362 138.666 234.035 139.034 233.794C139.402 233.552 139.882 233.431 140.476 233.431C140.999 233.431 141.457 233.538 141.848 233.754C142.242 233.969 142.547 234.291 142.763 234.718C142.981 235.142 143.091 235.673 143.091 236.309V241.166H141.604V236.488C141.604 235.928 141.46 235.494 141.172 235.186C140.883 234.874 140.482 234.718 139.969 234.718C139.617 234.718 139.302 234.793 139.024 234.942C138.749 235.091 138.532 235.31 138.373 235.598C138.217 235.883 138.139 236.228 138.139 236.632ZM147.255 241.335C146.771 241.335 146.333 241.246 145.942 241.067C145.551 240.885 145.241 240.621 145.013 240.276C144.787 239.932 144.674 239.509 144.674 239.009C144.674 238.578 144.757 238.223 144.923 237.945C145.089 237.666 145.313 237.446 145.594 237.284C145.876 237.121 146.191 236.999 146.539 236.916C146.887 236.833 147.241 236.77 147.603 236.727C148.06 236.674 148.431 236.631 148.716 236.597C149.001 236.561 149.209 236.503 149.338 236.423C149.467 236.344 149.532 236.215 149.532 236.036V236.001C149.532 235.567 149.409 235.23 149.164 234.992C148.922 234.753 148.561 234.634 148.08 234.634C147.58 234.634 147.185 234.745 146.897 234.967C146.612 235.186 146.415 235.429 146.305 235.698L144.908 235.379C145.074 234.915 145.316 234.541 145.634 234.256C145.956 233.968 146.325 233.759 146.743 233.629C147.16 233.497 147.599 233.431 148.06 233.431C148.365 233.431 148.688 233.467 149.03 233.54C149.374 233.61 149.696 233.739 149.994 233.928C150.296 234.117 150.543 234.387 150.735 234.738C150.927 235.086 151.023 235.539 151.023 236.095V241.166H149.572V240.122H149.512C149.416 240.315 149.272 240.504 149.079 240.689C148.887 240.875 148.64 241.029 148.339 241.151C148.037 241.274 147.676 241.335 147.255 241.335ZM147.578 240.142C147.989 240.142 148.34 240.061 148.632 239.899C148.927 239.736 149.151 239.524 149.303 239.262C149.459 238.997 149.537 238.714 149.537 238.412V237.428C149.484 237.481 149.381 237.53 149.228 237.577C149.079 237.62 148.909 237.658 148.716 237.691C148.524 237.721 148.337 237.749 148.155 237.776C147.972 237.799 147.82 237.819 147.697 237.835C147.409 237.872 147.145 237.933 146.907 238.019C146.671 238.106 146.482 238.23 146.34 238.392C146.201 238.551 146.131 238.763 146.131 239.029C146.131 239.396 146.267 239.675 146.539 239.864C146.811 240.049 147.157 240.142 147.578 240.142ZM156.526 233.53V234.723H152.355V233.53H156.526ZM153.473 231.7H154.96V238.924C154.96 239.213 155.003 239.43 155.089 239.575C155.175 239.718 155.286 239.816 155.422 239.869C155.561 239.919 155.712 239.943 155.875 239.943C155.994 239.943 156.098 239.935 156.188 239.919C156.277 239.902 156.347 239.889 156.397 239.879L156.665 241.107C156.579 241.14 156.456 241.173 156.297 241.206C156.138 241.243 155.939 241.262 155.7 241.266C155.309 241.272 154.945 241.203 154.607 241.057C154.269 240.911 153.995 240.686 153.786 240.381C153.578 240.076 153.473 239.693 153.473 239.232V231.7Z" fill="#171717"/>
</g>
<g opacity="0.9">
<rect x="56" y="257.666" width="238" height="40" rx="8" fill="#FCFCFC"/>
<path d="M72.1543 278.308C73.924 278.308 75.3583 279.742 75.3584 281.512C75.3584 283.282 73.9241 284.716 72.1543 284.716C70.3846 284.716 68.9502 283.282 68.9502 281.512C68.9503 279.742 70.3847 278.308 72.1543 278.308ZM79.8457 278.308C81.6154 278.308 83.0497 279.742 83.0498 281.512C83.0498 283.282 81.6155 284.716 79.8457 284.716C78.076 284.716 76.6416 283.282 76.6416 281.512C76.6416 279.742 78.076 278.308 79.8457 278.308ZM72.1543 279.678C71.1412 279.678 70.3204 280.499 70.3203 281.512L70.3291 281.7C70.423 282.625 71.2045 283.346 72.1543 283.346C73.1675 283.346 73.9883 282.525 73.9883 281.512L73.9795 281.325C73.8856 280.399 73.1042 279.678 72.1543 279.678ZM79.6582 279.687C78.7331 279.781 78.0117 280.562 78.0117 281.512C78.0117 282.525 78.8325 283.346 79.8457 283.346L80.0332 283.337C80.9583 283.243 81.6797 282.462 81.6797 281.512C81.6797 280.499 80.8589 279.678 79.8457 279.678L79.6582 279.687ZM72.1543 270.617C73.924 270.617 75.3583 272.051 75.3584 273.821C75.3584 275.59 73.9241 277.025 72.1543 277.025C70.3846 277.025 68.9502 275.59 68.9502 273.821C68.9503 272.051 70.3847 270.617 72.1543 270.617ZM79.8457 270.617C81.6154 270.617 83.0497 272.051 83.0498 273.821C83.0498 275.59 81.6155 277.025 79.8457 277.025C78.076 277.025 76.6416 275.59 76.6416 273.821C76.6417 272.051 78.076 270.617 79.8457 270.617ZM72.1543 271.987C71.1412 271.987 70.3204 272.808 70.3203 273.821C70.3203 274.834 71.1412 275.655 72.1543 275.655C73.1675 275.655 73.9883 274.834 73.9883 273.821C73.9882 272.808 73.1675 271.987 72.1543 271.987ZM79.8457 271.987C78.8326 271.987 78.0118 272.808 78.0117 273.821C78.0117 274.834 78.8325 275.655 79.8457 275.655C80.8589 275.655 81.6797 274.834 81.6797 273.821C81.6796 272.808 80.8589 271.987 79.8457 271.987Z" fill="#171717" stroke="#171717" stroke-width="0.1"/>
<path d="M102.009 276.201C101.913 275.9 101.784 275.629 101.621 275.391C101.462 275.149 101.272 274.943 101.05 274.774C100.828 274.602 100.574 274.471 100.289 274.382C100.007 274.292 99.6974 274.247 99.3594 274.247C98.786 274.247 98.2689 274.395 97.8082 274.69C97.3475 274.985 96.983 275.417 96.7145 275.987C96.4493 276.554 96.3168 277.249 96.3168 278.071C96.3168 278.896 96.451 279.593 96.7195 280.164C96.9879 280.734 97.3558 281.166 97.8232 281.461C98.2905 281.756 98.8224 281.904 99.419 281.904C99.9725 281.904 100.455 281.791 100.866 281.566C101.28 281.34 101.6 281.022 101.825 280.611C102.054 280.197 102.168 279.709 102.168 279.149L102.566 279.224H99.6527V277.956H103.655V279.115C103.655 279.97 103.473 280.712 103.108 281.342C102.747 281.968 102.246 282.452 101.607 282.794C100.97 283.135 100.241 283.306 99.419 283.306C98.4976 283.306 97.6889 283.093 96.9929 282.669C96.3002 282.245 95.7599 281.643 95.3722 280.865C94.9844 280.082 94.7905 279.154 94.7905 278.08C94.7905 277.268 94.9032 276.539 95.1286 275.893C95.3539 275.247 95.6705 274.698 96.0781 274.247C96.4891 273.793 96.9714 273.447 97.5249 273.208C98.0817 272.966 98.6899 272.845 99.3494 272.845C99.8996 272.845 100.412 272.927 100.886 273.089C101.363 273.251 101.787 273.482 102.158 273.78C102.533 274.078 102.843 274.433 103.088 274.844C103.333 275.252 103.499 275.704 103.585 276.201H102.009ZM105.563 283.166V272.985H109.192C109.984 272.985 110.641 273.129 111.161 273.417C111.681 273.705 112.071 274.1 112.329 274.6C112.588 275.097 112.717 275.658 112.717 276.281C112.717 276.907 112.586 277.471 112.324 277.971C112.066 278.468 111.675 278.863 111.151 279.154C110.631 279.443 109.976 279.587 109.187 279.587H106.691V278.284H109.048C109.548 278.284 109.955 278.198 110.266 278.026C110.578 277.85 110.806 277.611 110.952 277.31C111.098 277.008 111.171 276.665 111.171 276.281C111.171 275.896 111.098 275.555 110.952 275.257C110.806 274.958 110.576 274.725 110.261 274.556C109.95 274.387 109.539 274.302 109.028 274.302H107.099V283.166H105.563ZM113.974 274.307V272.985H121.854V274.307H118.677V283.166H117.146V274.307H113.974ZM128.117 277.394L126.77 277.633C126.713 277.461 126.624 277.297 126.501 277.141C126.382 276.985 126.22 276.857 126.014 276.758C125.809 276.659 125.552 276.609 125.243 276.609C124.823 276.609 124.471 276.703 124.19 276.892C123.908 277.078 123.767 277.318 123.767 277.613C123.767 277.868 123.861 278.074 124.05 278.23C124.239 278.385 124.544 278.513 124.965 278.612L126.178 278.891C126.881 279.053 127.404 279.303 127.749 279.642C128.094 279.98 128.266 280.419 128.266 280.959C128.266 281.416 128.134 281.824 127.868 282.182C127.607 282.537 127.24 282.815 126.77 283.017C126.302 283.219 125.761 283.321 125.144 283.321C124.289 283.321 123.591 283.138 123.051 282.774C122.511 282.406 122.179 281.884 122.057 281.208L123.493 280.989C123.583 281.363 123.767 281.647 124.045 281.839C124.324 282.028 124.687 282.122 125.134 282.122C125.621 282.122 126.011 282.021 126.302 281.819C126.594 281.614 126.74 281.363 126.74 281.068C126.74 280.83 126.65 280.629 126.471 280.467C126.296 280.304 126.026 280.182 125.661 280.099L124.368 279.816C123.656 279.653 123.129 279.395 122.788 279.04C122.449 278.685 122.28 278.236 122.28 277.693C122.28 277.242 122.406 276.847 122.658 276.509C122.91 276.171 123.258 275.908 123.702 275.719C124.146 275.527 124.655 275.431 125.229 275.431C126.054 275.431 126.703 275.61 127.177 275.968C127.651 276.322 127.965 276.798 128.117 277.394Z" fill="#171717"/>
</g>
<g opacity="0.9">
<rect x="56" y="299.666" width="238" height="40" rx="8" fill="#FCFCFC"/>
<g clip-path="url(#clip3_859_5660)">
<path d="M78.0779 321.909V313.484C78.0779 312.757 77.4612 312.166 76.7022 312.166H69.8757C69.1168 312.166 68.5 312.757 68.5 313.484V321.909C68.5 322.636 69.1168 323.226 69.8757 323.226H76.7031C77.462 323.226 78.0788 322.636 78.0788 321.909H78.0779ZM69.5582 321.909V313.484C69.5582 313.316 69.7004 313.18 69.8757 313.18H76.7031C76.8784 313.18 77.0206 313.316 77.0206 313.484V321.909C77.0206 322.077 76.8784 322.213 76.7031 322.213H69.8757C69.7004 322.213 69.5582 322.077 69.5582 321.909ZM83.4667 317.905L81.5751 326.132C81.4338 326.747 80.8633 327.166 80.2316 327.166C80.1341 327.166 80.0349 327.156 79.9357 327.136L73.2679 325.729C72.9827 325.669 72.8024 325.399 72.8653 325.125C72.9281 324.852 73.2109 324.679 73.4961 324.739L80.1639 326.146C80.335 326.183 80.5045 326.078 80.5425 325.915L82.4341 317.687C82.4523 317.608 82.4375 317.526 82.3912 317.458C82.3457 317.39 82.2746 317.342 82.1919 317.325L80.1035 316.885C79.8183 316.825 79.6381 316.554 79.7009 316.281C79.7637 316.007 80.0457 315.834 80.3317 315.895L82.4201 316.335C82.7789 316.41 83.0856 316.615 83.2832 316.912C83.4808 317.209 83.5461 317.562 83.4676 317.905L83.4667 317.905Z" fill="black" stroke="black" stroke-width="0.3"/>
</g>
<path d="M95.1186 325.166V314.985H96.6548V323.844H101.268V325.166H95.1186ZM102.86 325.166V317.53H104.346V325.166H102.86ZM103.61 316.352C103.352 316.352 103.13 316.266 102.944 316.093C102.762 315.918 102.671 315.709 102.671 315.467C102.671 315.222 102.762 315.013 102.944 314.84C103.13 314.665 103.352 314.577 103.61 314.577C103.869 314.577 104.089 314.665 104.272 314.84C104.457 315.013 104.55 315.222 104.55 315.467C104.55 315.709 104.457 315.918 104.272 316.093C104.089 316.266 103.869 316.352 103.61 316.352ZM106.423 325.166V314.985H107.91V318.768H107.999C108.085 318.609 108.21 318.425 108.372 318.216C108.535 318.007 108.76 317.825 109.048 317.669C109.337 317.51 109.718 317.431 110.192 317.431C110.808 317.431 111.358 317.586 111.842 317.898C112.326 318.209 112.706 318.659 112.981 319.245C113.259 319.832 113.398 320.538 113.398 321.363C113.398 322.188 113.261 322.896 112.986 323.486C112.711 324.073 112.333 324.525 111.852 324.843C111.372 325.158 110.823 325.316 110.207 325.316C109.743 325.316 109.363 325.238 109.068 325.082C108.777 324.926 108.548 324.744 108.382 324.535C108.216 324.326 108.089 324.141 107.999 323.978H107.875V325.166H106.423ZM107.88 321.348C107.88 321.885 107.958 322.356 108.114 322.76C108.269 323.164 108.495 323.481 108.79 323.71C109.085 323.935 109.446 324.048 109.874 324.048C110.318 324.048 110.689 323.93 110.987 323.695C111.285 323.456 111.511 323.133 111.663 322.725C111.819 322.318 111.897 321.859 111.897 321.348C111.897 320.844 111.821 320.392 111.668 319.991C111.519 319.59 111.294 319.273 110.992 319.041C110.694 318.809 110.321 318.693 109.874 318.693C109.443 318.693 109.078 318.804 108.78 319.026C108.485 319.249 108.261 319.558 108.109 319.956C107.956 320.354 107.88 320.818 107.88 321.348ZM115.026 325.166V317.53H116.462V318.743H116.542C116.681 318.332 116.926 318.009 117.278 317.774C117.632 317.535 118.033 317.416 118.481 317.416C118.574 317.416 118.683 317.419 118.809 317.426C118.938 317.432 119.039 317.441 119.112 317.45V318.872C119.053 318.856 118.947 318.838 118.794 318.818C118.642 318.794 118.489 318.783 118.337 318.783C117.985 318.783 117.672 318.857 117.397 319.007C117.125 319.152 116.91 319.356 116.751 319.618C116.592 319.877 116.512 320.172 116.512 320.503V325.166H115.026ZM122.511 325.335C122.027 325.335 121.589 325.246 121.198 325.067C120.807 324.885 120.497 324.621 120.268 324.276C120.043 323.932 119.93 323.509 119.93 323.009C119.93 322.578 120.013 322.223 120.179 321.945C120.345 321.666 120.568 321.446 120.85 321.284C121.132 321.121 121.447 320.999 121.795 320.916C122.143 320.833 122.497 320.77 122.859 320.727C123.316 320.674 123.687 320.631 123.972 320.597C124.257 320.561 124.464 320.503 124.594 320.423C124.723 320.344 124.788 320.215 124.788 320.036V320.001C124.788 319.567 124.665 319.23 124.42 318.992C124.178 318.753 123.816 318.634 123.336 318.634C122.835 318.634 122.441 318.745 122.153 318.967C121.868 319.186 121.67 319.429 121.561 319.698L120.164 319.379C120.33 318.915 120.572 318.541 120.89 318.256C121.211 317.968 121.581 317.759 121.999 317.629C122.416 317.497 122.855 317.431 123.316 317.431C123.621 317.431 123.944 317.467 124.285 317.54C124.63 317.61 124.952 317.739 125.25 317.928C125.552 318.117 125.799 318.387 125.991 318.738C126.183 319.086 126.279 319.539 126.279 320.095V325.166H124.827V324.122H124.768C124.672 324.315 124.527 324.504 124.335 324.689C124.143 324.875 123.896 325.029 123.594 325.151C123.293 325.274 122.932 325.335 122.511 325.335ZM122.834 324.142C123.245 324.142 123.596 324.061 123.888 323.899C124.183 323.736 124.406 323.524 124.559 323.262C124.715 322.997 124.793 322.714 124.793 322.412V321.428C124.74 321.481 124.637 321.53 124.484 321.577C124.335 321.62 124.165 321.658 123.972 321.691C123.78 321.721 123.593 321.749 123.41 321.776C123.228 321.799 123.076 321.819 122.953 321.835C122.665 321.872 122.401 321.933 122.163 322.019C121.927 322.106 121.738 322.23 121.596 322.392C121.457 322.551 121.387 322.763 121.387 323.029C121.387 323.396 121.523 323.675 121.795 323.864C122.066 324.049 122.413 324.142 122.834 324.142ZM128.217 325.166V317.53H129.654V318.743H129.733C129.873 318.332 130.118 318.009 130.469 317.774C130.824 317.535 131.225 317.416 131.672 317.416C131.765 317.416 131.874 317.419 132 317.426C132.13 317.432 132.231 317.441 132.304 317.45V318.872C132.244 318.856 132.138 318.838 131.985 318.818C131.833 318.794 131.681 318.783 131.528 318.783C131.177 318.783 130.864 318.857 130.588 319.007C130.317 319.152 130.101 319.356 129.942 319.618C129.783 319.877 129.704 320.172 129.704 320.503V325.166H128.217ZM134.72 328.03C134.498 328.03 134.296 328.012 134.114 327.975C133.931 327.942 133.795 327.906 133.706 327.866L134.064 326.648C134.336 326.721 134.578 326.752 134.79 326.742C135.002 326.732 135.189 326.653 135.352 326.504C135.517 326.355 135.663 326.111 135.789 325.773L135.973 325.266L133.179 317.53H134.77L136.704 323.456H136.783L138.717 317.53H140.313L137.166 326.186C137.02 326.583 136.835 326.92 136.609 327.195C136.384 327.473 136.115 327.682 135.804 327.821C135.492 327.96 135.131 328.03 134.72 328.03Z" fill="#171717"/>
</g>
<g opacity="0.9">
<rect x="56" y="341.666" width="238" height="40" rx="8" fill="#FCFCFC"/>
<path d="M81.5803 356.102H76.5772C76.3444 356.102 76.1253 356.009 75.9604 355.839L75.3829 355.245C75.0205 354.872 74.5385 354.666 74.0263 354.666H70.4184C69.3601 354.666 68.5 355.552 68.5 356.641V366.692C68.5 367.781 69.3608 368.666 70.4184 368.666H81.5816C82.6399 368.666 83.5 367.781 83.5 366.692L83.4993 358.077C83.4993 356.988 82.6386 356.103 81.5809 356.103L81.5803 356.102ZM70.4171 355.743H74.0251C74.2579 355.743 74.477 355.837 74.6419 356.007L75.2194 356.601C75.5818 356.974 76.0638 357.179 76.576 357.179H81.579C82.0598 357.179 82.4509 357.582 82.4509 358.076V359.2C82.188 359.06 81.8943 358.974 81.579 358.974H70.4179C70.102 358.974 69.8089 359.06 69.546 359.2V356.641C69.546 356.146 69.9371 355.743 70.4179 355.743L70.4171 355.743ZM82.4522 366.693C82.4522 367.188 82.0611 367.59 81.5803 367.59H70.4178C69.9371 367.59 69.5459 367.188 69.5459 366.693V360.949C69.5459 360.454 69.9371 360.052 70.4178 360.052H81.581C82.0617 360.052 82.4529 360.454 82.4529 360.949V366.693H82.4522ZM74.4286 365.975C74.4286 366.272 74.1944 366.513 73.9053 366.513H71.1144C70.8253 366.513 70.5911 366.272 70.5911 365.975C70.5911 365.677 70.8253 365.436 71.1144 365.436H73.9053C74.1944 365.436 74.4286 365.677 74.4286 365.975Z" fill="#171717"/>
<path d="M97.1122 367.166L94.2884 356.985H95.9041L97.8878 364.87H97.9822L100.045 356.985H101.646L103.71 364.874H103.804L105.783 356.985H107.403L104.575 367.166H103.028L100.886 359.54H100.806L98.6634 367.166H97.1122ZM111.108 367.321C110.392 367.321 109.767 367.156 109.233 366.828C108.7 366.5 108.285 366.041 107.99 365.451C107.695 364.861 107.548 364.172 107.548 363.383C107.548 362.591 107.695 361.898 107.99 361.305C108.285 360.712 108.7 360.251 109.233 359.923C109.767 359.595 110.392 359.431 111.108 359.431C111.823 359.431 112.448 359.595 112.982 359.923C113.515 360.251 113.93 360.712 114.225 361.305C114.52 361.898 114.667 362.591 114.667 363.383C114.667 364.172 114.52 364.861 114.225 365.451C113.93 366.041 113.515 366.5 112.982 366.828C112.448 367.156 111.823 367.321 111.108 367.321ZM111.112 366.073C111.576 366.073 111.961 365.95 112.266 365.705C112.571 365.459 112.796 365.133 112.942 364.725C113.091 364.318 113.166 363.869 113.166 363.378C113.166 362.891 113.091 362.443 112.942 362.036C112.796 361.625 112.571 361.295 112.266 361.046C111.961 360.798 111.576 360.673 111.112 360.673C110.645 360.673 110.257 360.798 109.949 361.046C109.644 361.295 109.417 361.625 109.268 362.036C109.122 362.443 109.049 362.891 109.049 363.378C109.049 363.869 109.122 364.318 109.268 364.725C109.417 365.133 109.644 365.459 109.949 365.705C110.257 365.95 110.645 366.073 111.112 366.073ZM116.284 367.166V359.53H117.721V360.743H117.801C117.94 360.332 118.185 360.009 118.537 359.774C118.891 359.535 119.292 359.416 119.74 359.416C119.832 359.416 119.942 359.419 120.068 359.426C120.197 359.432 120.298 359.441 120.371 359.45V360.872C120.311 360.856 120.205 360.838 120.053 360.818C119.9 360.794 119.748 360.783 119.596 360.783C119.244 360.783 118.931 360.857 118.656 361.007C118.384 361.152 118.169 361.356 118.01 361.618C117.85 361.877 117.771 362.172 117.771 362.503V367.166H116.284ZM122.983 364.576L122.973 362.762H123.231L126.274 359.53H128.054L124.584 363.209H124.35L122.983 364.576ZM121.615 367.166V356.985H123.102V367.166H121.615ZM126.438 367.166L123.704 363.537L124.728 362.498L128.262 367.166H126.438ZM135.089 361.394L133.741 361.633C133.685 361.461 133.596 361.297 133.473 361.141C133.354 360.985 133.191 360.857 132.986 360.758C132.78 360.659 132.523 360.609 132.215 360.609C131.794 360.609 131.443 360.703 131.161 360.892C130.879 361.078 130.739 361.318 130.739 361.613C130.739 361.868 130.833 362.074 131.022 362.23C131.211 362.385 131.516 362.513 131.937 362.612L133.15 362.891C133.852 363.053 134.376 363.303 134.721 363.642C135.066 363.98 135.238 364.419 135.238 364.959C135.238 365.416 135.105 365.824 134.84 366.182C134.578 366.537 134.212 366.815 133.741 367.017C133.274 367.219 132.732 367.321 132.116 367.321C131.261 367.321 130.563 367.138 130.023 366.774C129.482 366.406 129.151 365.884 129.028 365.208L130.465 364.989C130.555 365.363 130.739 365.647 131.017 365.839C131.295 366.028 131.658 366.122 132.106 366.122C132.593 366.122 132.982 366.021 133.274 365.819C133.566 365.614 133.712 365.363 133.712 365.068C133.712 364.83 133.622 364.629 133.443 364.467C133.267 364.304 132.997 364.182 132.633 364.099L131.34 363.816C130.628 363.653 130.101 363.395 129.759 363.04C129.421 362.685 129.252 362.236 129.252 361.693C129.252 361.242 129.378 360.847 129.63 360.509C129.882 360.171 130.23 359.908 130.674 359.719C131.118 359.527 131.627 359.431 132.2 359.431C133.026 359.431 133.675 359.61 134.149 359.968C134.623 360.322 134.936 360.798 135.089 361.394ZM139.053 367.335C138.569 367.335 138.131 367.246 137.74 367.067C137.349 366.885 137.039 366.621 136.81 366.276C136.585 365.932 136.472 365.509 136.472 365.009C136.472 364.578 136.555 364.223 136.721 363.945C136.887 363.666 137.11 363.446 137.392 363.284C137.674 363.121 137.989 362.999 138.337 362.916C138.685 362.833 139.039 362.77 139.401 362.727C139.858 362.674 140.229 362.631 140.514 362.597C140.799 362.561 141.006 362.503 141.136 362.423C141.265 362.344 141.33 362.215 141.33 362.036V362.001C141.33 361.567 141.207 361.23 140.962 360.992C140.72 360.753 140.358 360.634 139.878 360.634C139.377 360.634 138.983 360.745 138.695 360.967C138.41 361.186 138.212 361.429 138.103 361.698L136.706 361.379C136.872 360.915 137.114 360.541 137.432 360.256C137.753 359.968 138.123 359.759 138.541 359.629C138.958 359.497 139.397 359.431 139.858 359.431C140.163 359.431 140.486 359.467 140.827 359.54C141.172 359.61 141.494 359.739 141.792 359.928C142.094 360.117 142.34 360.387 142.533 360.738C142.725 361.086 142.821 361.539 142.821 362.095V367.166H141.369V366.122H141.31C141.214 366.315 141.069 366.504 140.877 366.689C140.685 366.875 140.438 367.029 140.136 367.151C139.835 367.274 139.474 367.335 139.053 367.335ZM139.376 366.142C139.787 366.142 140.138 366.061 140.43 365.899C140.725 365.736 140.948 365.524 141.101 365.262C141.257 364.997 141.335 364.714 141.335 364.412V363.428C141.282 363.481 141.179 363.53 141.026 363.577C140.877 363.62 140.706 363.658 140.514 363.691C140.322 363.721 140.135 363.749 139.952 363.776C139.77 363.799 139.618 363.819 139.495 363.835C139.207 363.872 138.943 363.933 138.705 364.019C138.469 364.106 138.28 364.23 138.138 364.392C137.999 364.551 137.929 364.763 137.929 365.029C137.929 365.396 138.065 365.675 138.337 365.864C138.608 366.049 138.955 366.142 139.376 366.142ZM144.759 370.03V359.53H146.211V360.768H146.335C146.421 360.609 146.545 360.425 146.708 360.216C146.87 360.007 147.096 359.825 147.384 359.669C147.672 359.51 148.054 359.431 148.527 359.431C149.144 359.431 149.694 359.586 150.178 359.898C150.662 360.209 151.041 360.659 151.317 361.245C151.595 361.832 151.734 362.538 151.734 363.363C151.734 364.188 151.597 364.896 151.322 365.486C151.046 366.073 150.669 366.525 150.188 366.843C149.707 367.158 149.159 367.316 148.542 367.316C148.078 367.316 147.699 367.238 147.404 367.082C147.112 366.926 146.884 366.744 146.718 366.535C146.552 366.326 146.424 366.141 146.335 365.978H146.246V370.03H144.759ZM146.216 363.348C146.216 363.885 146.294 364.356 146.449 364.76C146.605 365.164 146.831 365.481 147.125 365.71C147.42 365.935 147.782 366.048 148.209 366.048C148.653 366.048 149.025 365.93 149.323 365.695C149.621 365.456 149.847 365.133 149.999 364.725C150.155 364.318 150.233 363.859 150.233 363.348C150.233 362.844 150.157 362.392 150.004 361.991C149.855 361.59 149.63 361.273 149.328 361.041C149.03 360.809 148.657 360.693 148.209 360.693C147.778 360.693 147.414 360.804 147.116 361.026C146.821 361.249 146.597 361.558 146.444 361.956C146.292 362.354 146.216 362.818 146.216 363.348ZM156.574 367.321C155.835 367.321 155.199 367.153 154.665 366.818C154.135 366.48 153.727 366.015 153.442 365.421C153.157 364.828 153.015 364.149 153.015 363.383C153.015 362.607 153.16 361.923 153.452 361.33C153.744 360.733 154.155 360.267 154.685 359.933C155.215 359.598 155.84 359.431 156.559 359.431C157.139 359.431 157.656 359.538 158.11 359.754C158.565 359.966 158.931 360.264 159.209 360.649C159.491 361.033 159.658 361.482 159.711 361.996H158.265C158.185 361.638 158.003 361.33 157.718 361.071C157.436 360.813 157.058 360.683 156.584 360.683C156.17 360.683 155.807 360.793 155.495 361.012C155.187 361.227 154.947 361.535 154.775 361.936C154.602 362.334 154.516 362.805 154.516 363.348C154.516 363.905 154.601 364.386 154.77 364.79C154.939 365.194 155.177 365.508 155.485 365.73C155.797 365.952 156.163 366.063 156.584 366.063C156.866 366.063 157.121 366.011 157.35 365.909C157.582 365.803 157.776 365.652 157.931 365.456C158.091 365.261 158.202 365.025 158.265 364.75H159.711C159.658 365.244 159.498 365.685 159.229 366.073C158.961 366.46 158.601 366.765 158.15 366.987C157.703 367.209 157.177 367.321 156.574 367.321ZM164.55 367.321C163.798 367.321 163.15 367.16 162.606 366.838C162.066 366.513 161.648 366.058 161.353 365.471C161.062 364.881 160.916 364.19 160.916 363.398C160.916 362.616 161.062 361.926 161.353 361.33C161.648 360.733 162.059 360.267 162.586 359.933C163.117 359.598 163.737 359.431 164.446 359.431C164.877 359.431 165.294 359.502 165.699 359.644C166.103 359.787 166.466 360.011 166.787 360.316C167.109 360.62 167.362 361.017 167.548 361.504C167.734 361.988 167.826 362.576 167.826 363.269V363.796H161.756V362.682H166.37C166.37 362.291 166.29 361.945 166.131 361.643C165.972 361.338 165.748 361.098 165.46 360.922C165.175 360.746 164.84 360.659 164.456 360.659C164.038 360.659 163.674 360.761 163.362 360.967C163.054 361.169 162.815 361.434 162.646 361.762C162.48 362.087 162.397 362.44 162.397 362.821V363.691C162.397 364.202 162.487 364.636 162.666 364.994C162.848 365.352 163.102 365.625 163.427 365.814C163.751 366 164.131 366.093 164.565 366.093C164.847 366.093 165.104 366.053 165.336 365.973C165.568 365.89 165.768 365.768 165.937 365.605C166.106 365.443 166.236 365.242 166.325 365.004L167.732 365.257C167.619 365.672 167.417 366.035 167.125 366.346C166.837 366.654 166.474 366.895 166.037 367.067C165.603 367.236 165.107 367.321 164.55 367.321Z" fill="#171717"/>
</g>
<g opacity="0.9">
<rect width="238" height="31" transform="translate(56 385.666)" fill="#FCFCFC"/>
<path d="M76.2074 399.777H74.8778C74.8267 399.493 74.7315 399.243 74.5923 399.027C74.4531 398.811 74.2827 398.628 74.081 398.477C73.8793 398.327 73.6534 398.213 73.4034 398.137C73.1563 398.06 72.8935 398.021 72.6151 398.021C72.1122 398.021 71.6619 398.148 71.2642 398.401C70.8693 398.654 70.5568 399.024 70.3267 399.513C70.0994 400.002 69.9858 400.598 69.9858 401.303C69.9858 402.013 70.0994 402.612 70.3267 403.101C70.5568 403.59 70.8707 403.959 71.2685 404.209C71.6662 404.459 72.1136 404.584 72.6108 404.584C72.8864 404.584 73.1477 404.547 73.3949 404.473C73.6449 404.396 73.8707 404.284 74.0724 404.137C74.2741 403.989 74.4446 403.808 74.5838 403.595C74.7259 403.379 74.8239 403.132 74.8778 402.854L76.2074 402.858C76.1364 403.287 75.9986 403.682 75.794 404.043C75.5923 404.401 75.3324 404.71 75.0142 404.972C74.6989 405.23 74.3381 405.431 73.9318 405.573C73.5256 405.715 73.0824 405.786 72.6023 405.786C71.8466 405.786 71.1733 405.607 70.5824 405.249C69.9915 404.888 69.5256 404.372 69.1847 403.702C68.8466 403.031 68.6776 402.232 68.6776 401.303C68.6776 400.371 68.848 399.571 69.1889 398.904C69.5298 398.233 69.9957 397.719 70.5866 397.361C71.1776 397 71.8494 396.82 72.6023 396.82C73.0653 396.82 73.4972 396.887 73.8977 397.02C74.3011 397.151 74.6634 397.344 74.9844 397.6C75.3054 397.852 75.571 398.162 75.7812 398.529C75.9915 398.892 76.1335 399.308 76.2074 399.777ZM78.9189 401.78V405.666H77.6448V396.939H78.9019V400.186H78.9828C79.1362 399.834 79.3706 399.554 79.6859 399.347C80.0013 399.139 80.4132 399.036 80.9217 399.036C81.3706 399.036 81.7627 399.128 82.0979 399.313C82.4359 399.497 82.6973 399.773 82.882 400.139C83.0695 400.503 83.1632 400.958 83.1632 401.503V405.666H81.8891V401.656C81.8891 401.176 81.7655 400.804 81.5183 400.54C81.2712 400.273 80.9274 400.139 80.4871 400.139C80.1859 400.139 79.9161 400.203 79.6774 400.331C79.4416 400.459 79.2555 400.646 79.1192 400.894C78.9857 401.138 78.9189 401.433 78.9189 401.78ZM86.7323 405.811C86.3176 405.811 85.9426 405.735 85.6073 405.581C85.2721 405.425 85.0065 405.199 84.8105 404.904C84.6173 404.608 84.5207 404.246 84.5207 403.817C84.5207 403.448 84.5917 403.144 84.7338 402.905C84.8758 402.666 85.0676 402.477 85.309 402.338C85.5505 402.199 85.8204 402.094 86.1187 402.023C86.417 401.952 86.721 401.898 87.0306 401.861C87.4227 401.816 87.7409 401.779 87.9852 401.75C88.2295 401.719 88.407 401.669 88.5178 401.601C88.6286 401.533 88.684 401.422 88.684 401.269V401.239C88.684 400.867 88.5789 400.578 88.3687 400.374C88.1613 400.169 87.8517 400.067 87.4397 400.067C87.0107 400.067 86.6727 400.162 86.4255 400.352C86.1812 400.54 86.0122 400.749 85.9184 400.979L84.721 400.706C84.863 400.308 85.0704 399.987 85.3431 399.743C85.6187 399.496 85.9355 399.317 86.2934 399.206C86.6514 399.093 87.0278 399.036 87.4227 399.036C87.684 399.036 87.961 399.067 88.2536 399.129C88.5491 399.189 88.8247 399.3 89.0803 399.462C89.3389 399.624 89.5505 399.855 89.7153 400.156C89.8801 400.455 89.9624 400.843 89.9624 401.32V405.666H88.7181V404.771H88.667C88.5846 404.936 88.461 405.098 88.2963 405.257C88.1315 405.416 87.9198 405.548 87.6613 405.654C87.4028 405.759 87.0931 405.811 86.7323 405.811ZM87.0093 404.789C87.3616 404.789 87.6627 404.719 87.9127 404.58C88.1656 404.441 88.3573 404.259 88.488 404.034C88.6215 403.807 88.6883 403.564 88.6883 403.306V402.462C88.6428 402.507 88.5548 402.55 88.4241 402.59C88.2963 402.627 88.1499 402.659 87.9852 402.688C87.8204 402.713 87.6599 402.737 87.5036 402.76C87.3474 402.78 87.2167 402.797 87.1116 402.811C86.8644 402.843 86.6386 402.895 86.434 402.969C86.2323 403.043 86.0704 403.149 85.9482 403.289C85.8289 403.425 85.7693 403.607 85.7693 403.834C85.7693 404.149 85.8857 404.388 86.1187 404.55C86.3517 404.709 86.6485 404.789 87.0093 404.789ZM94.6789 399.121V400.144H91.1036V399.121H94.6789ZM92.0625 397.553H93.3366V403.745C93.3366 403.992 93.3735 404.178 93.4474 404.303C93.5213 404.425 93.6164 404.509 93.7329 404.554C93.8522 404.597 93.9815 404.618 94.1207 404.618C94.223 404.618 94.3125 404.611 94.3892 404.597C94.4659 404.583 94.5255 404.571 94.5681 404.563L94.7983 405.615C94.7244 405.644 94.6193 405.672 94.4829 405.7C94.3465 405.732 94.1761 405.749 93.9715 405.752C93.6363 405.757 93.3238 405.698 93.034 405.573C92.7443 405.448 92.5099 405.254 92.3309 404.993C92.1519 404.732 92.0625 404.404 92.0625 404.009V397.553ZM100.852 400.719L99.6969 400.923C99.6486 400.776 99.5719 400.635 99.4668 400.502C99.3645 400.368 99.2253 400.259 99.0492 400.173C98.873 400.088 98.6529 400.046 98.3887 400.046C98.0279 400.046 97.7267 400.127 97.4853 400.289C97.2438 400.448 97.123 400.654 97.123 400.906C97.123 401.125 97.204 401.301 97.3659 401.435C97.5279 401.568 97.7892 401.678 98.15 401.763L99.1898 402.002C99.7921 402.141 100.241 402.355 100.536 402.645C100.832 402.935 100.98 403.311 100.98 403.774C100.98 404.166 100.866 404.516 100.639 404.823C100.414 405.127 100.1 405.365 99.6969 405.539C99.2963 405.712 98.8319 405.798 98.3034 405.798C97.5705 405.798 96.9725 405.642 96.5094 405.33C96.0463 405.014 95.7623 404.567 95.6571 403.987L96.8887 403.8C96.9654 404.121 97.123 404.364 97.3617 404.529C97.6003 404.691 97.9114 404.771 98.2949 404.771C98.7125 404.771 99.0463 404.685 99.2963 404.512C99.5463 404.335 99.6713 404.121 99.6713 403.868C99.6713 403.664 99.5946 403.492 99.4412 403.352C99.2907 403.213 99.0591 403.108 98.7466 403.037L97.6387 402.794C97.0279 402.655 96.5762 402.433 96.2836 402.129C95.9938 401.825 95.8489 401.441 95.8489 400.975C95.8489 400.588 95.9569 400.25 96.1728 399.96C96.3887 399.671 96.687 399.445 97.0676 399.283C97.4483 399.118 97.8844 399.036 98.3759 399.036C99.0833 399.036 99.6401 399.189 100.046 399.496C100.453 399.8 100.721 400.208 100.852 400.719Z" fill="#737373"/>
</g>
<g clip-path="url(#clip4_859_5660)">
<g opacity="0.9">
<rect x="56" y="418.666" width="238" height="36" rx="8" fill="#FCFCFC"/>
<path d="M69.233 442.166V431.985H75.3778V433.078H70.4659V436.519H75.0597V437.612H70.4659V441.073H75.4574V442.166H69.233ZM78.2741 434.53L80.1036 437.652L81.9331 434.53H83.2854L80.8195 438.348L83.2854 442.166H81.9331L80.1036 439.203L78.2741 442.166H76.9218L79.3479 438.348L76.9218 434.53H78.2741ZM84.9176 445.03V434.53H86.0511V435.743H86.1903C86.2765 435.611 86.3958 435.441 86.5483 435.236C86.7041 435.027 86.9261 434.842 87.2145 434.679C87.5061 434.513 87.9006 434.431 88.3977 434.431C89.0407 434.431 89.6075 434.591 90.098 434.913C90.5885 435.234 90.9713 435.69 91.2464 436.28C91.5215 436.87 91.6591 437.566 91.6591 438.368C91.6591 439.177 91.5215 439.878 91.2464 440.471C90.9713 441.061 90.5902 441.518 90.103 441.843C89.6158 442.165 89.054 442.325 88.4176 442.325C87.9271 442.325 87.5343 442.244 87.2393 442.082C86.9444 441.916 86.7173 441.729 86.5582 441.52C86.3991 441.308 86.2765 441.132 86.1903 440.993H86.0909V445.03H84.9176ZM86.071 438.348C86.071 438.925 86.1555 439.434 86.3246 439.874C86.4936 440.312 86.7405 440.655 87.0653 440.904C87.3901 441.149 87.7879 441.271 88.2585 441.271C88.749 441.271 89.1584 441.142 89.4865 440.884C89.8179 440.622 90.0665 440.271 90.2322 439.83C90.4013 439.386 90.4858 438.892 90.4858 438.348C90.4858 437.811 90.4029 437.327 90.2372 436.896C90.0748 436.462 89.8279 436.119 89.4964 435.867C89.1683 435.612 88.7557 435.485 88.2585 435.485C87.7812 435.485 87.3802 435.606 87.0554 435.847C86.7306 436.086 86.4853 436.421 86.3196 436.852C86.1539 437.279 86.071 437.778 86.071 438.348ZM94.5801 431.985V442.166H93.4068V431.985H94.5801ZM98.9343 442.345C98.4504 442.345 98.0112 442.254 97.6168 442.072C97.2224 441.886 96.9092 441.62 96.6772 441.271C96.4452 440.92 96.3292 440.496 96.3292 439.999C96.3292 439.561 96.4153 439.207 96.5877 438.935C96.76 438.66 96.9904 438.444 97.2787 438.289C97.5671 438.133 97.8853 438.017 98.2333 437.941C98.5846 437.861 98.9376 437.798 99.2922 437.752C99.7562 437.692 100.132 437.647 100.421 437.617C100.712 437.584 100.925 437.53 101.057 437.453C101.193 437.377 101.261 437.245 101.261 437.056V437.016C101.261 436.525 101.127 436.144 100.858 435.872C100.593 435.601 100.19 435.465 99.6502 435.465C99.0901 435.465 98.6509 435.587 98.3327 435.833C98.0145 436.078 97.7908 436.34 97.6615 436.618L96.5479 436.22C96.7468 435.756 97.0119 435.395 97.3434 435.137C97.6781 434.875 98.0427 434.692 98.4371 434.59C98.8348 434.484 99.2259 434.431 99.6104 434.431C99.8557 434.431 100.137 434.46 100.456 434.52C100.777 434.576 101.087 434.694 101.385 434.873C101.687 435.052 101.937 435.322 102.136 435.683C102.335 436.045 102.434 436.529 102.434 437.135V442.166H101.261V441.132H101.201C101.122 441.298 100.989 441.475 100.804 441.664C100.618 441.853 100.371 442.014 100.063 442.146C99.7546 442.279 99.3784 442.345 98.9343 442.345ZM99.1133 441.291C99.5773 441.291 99.9684 441.2 100.287 441.018C100.608 440.836 100.85 440.6 101.012 440.312C101.178 440.024 101.261 439.72 101.261 439.402V438.328C101.211 438.388 101.102 438.443 100.933 438.492C100.767 438.539 100.575 438.58 100.356 438.617C100.141 438.65 99.9302 438.68 99.7248 438.706C99.5226 438.729 99.3585 438.749 99.2326 438.766C98.9276 438.806 98.6426 438.87 98.3775 438.96C98.1156 439.046 97.9035 439.177 97.7411 439.352C97.582 439.525 97.5025 439.76 97.5025 440.058C97.5025 440.466 97.6533 440.774 97.9549 440.983C98.2598 441.189 98.6459 441.291 99.1133 441.291ZM104.534 442.166V434.53H105.707V442.166H104.534ZM105.13 433.257C104.902 433.257 104.704 433.179 104.539 433.024C104.376 432.868 104.295 432.681 104.295 432.462C104.295 432.243 104.376 432.056 104.539 431.9C104.704 431.744 104.902 431.666 105.13 431.666C105.359 431.666 105.555 431.744 105.717 431.9C105.883 432.056 105.966 432.243 105.966 432.462C105.966 432.681 105.883 432.868 105.717 433.024C105.555 433.179 105.359 433.257 105.13 433.257ZM108.987 437.573V442.166H107.814V434.53H108.948V435.723H109.047C109.226 435.335 109.498 435.024 109.862 434.789C110.227 434.55 110.698 434.431 111.274 434.431C111.791 434.431 112.244 434.537 112.632 434.749C113.019 434.958 113.321 435.276 113.536 435.703C113.752 436.128 113.86 436.664 113.86 437.314V442.166H112.686V437.394C112.686 436.794 112.53 436.326 112.219 435.992C111.907 435.654 111.48 435.485 110.936 435.485C110.562 435.485 110.227 435.566 109.932 435.728C109.64 435.891 109.41 436.128 109.241 436.439C109.072 436.751 108.987 437.129 108.987 437.573ZM124.67 439.044V434.53H125.843V442.166H124.67V440.874H124.59C124.411 441.262 124.133 441.591 123.755 441.863C123.377 442.132 122.9 442.266 122.323 442.266C121.846 442.266 121.421 442.161 121.05 441.953C120.679 441.74 120.387 441.422 120.175 440.998C119.963 440.571 119.857 440.032 119.857 439.382V434.53H121.03V439.303C121.03 439.86 121.186 440.304 121.498 440.635C121.812 440.967 122.214 441.132 122.701 441.132C122.992 441.132 123.289 441.058 123.591 440.909C123.896 440.759 124.151 440.531 124.356 440.222C124.565 439.914 124.67 439.521 124.67 439.044ZM133.359 436.24L132.305 436.539C132.239 436.363 132.141 436.192 132.012 436.026C131.886 435.857 131.713 435.718 131.495 435.609C131.276 435.499 130.996 435.445 130.654 435.445C130.187 435.445 129.798 435.553 129.486 435.768C129.178 435.98 129.024 436.25 129.024 436.578C129.024 436.87 129.13 437.1 129.342 437.269C129.554 437.438 129.885 437.579 130.336 437.692L131.47 437.97C132.152 438.136 132.661 438.39 132.996 438.731C133.331 439.069 133.498 439.505 133.498 440.039C133.498 440.476 133.372 440.867 133.12 441.212C132.872 441.557 132.524 441.828 132.076 442.027C131.629 442.226 131.108 442.325 130.515 442.325C129.736 442.325 129.092 442.156 128.581 441.818C128.071 441.48 127.748 440.986 127.612 440.337L128.725 440.058C128.831 440.469 129.032 440.778 129.327 440.983C129.625 441.189 130.015 441.291 130.495 441.291C131.042 441.291 131.476 441.175 131.798 440.943C132.123 440.708 132.285 440.426 132.285 440.098C132.285 439.833 132.192 439.611 132.007 439.432C131.821 439.25 131.536 439.114 131.151 439.024L129.879 438.726C129.179 438.56 128.666 438.303 128.338 437.955C128.013 437.604 127.85 437.165 127.85 436.638C127.85 436.207 127.971 435.826 128.213 435.495C128.459 435.163 128.792 434.903 129.213 434.714C129.637 434.525 130.117 434.431 130.654 434.431C131.41 434.431 132.003 434.596 132.434 434.928C132.868 435.259 133.177 435.697 133.359 436.24ZM138.424 442.325C137.688 442.325 137.053 442.163 136.52 441.838C135.99 441.51 135.58 441.053 135.292 440.466C135.007 439.876 134.864 439.19 134.864 438.408C134.864 437.626 135.007 436.936 135.292 436.34C135.58 435.74 135.981 435.272 136.495 434.938C137.012 434.6 137.615 434.431 138.305 434.431C138.702 434.431 139.095 434.497 139.483 434.629C139.871 434.762 140.224 434.977 140.542 435.276C140.86 435.571 141.114 435.962 141.302 436.449C141.491 436.936 141.586 437.536 141.586 438.249V438.746H135.699V437.732H140.393C140.393 437.301 140.307 436.916 140.134 436.578C139.965 436.24 139.723 435.973 139.408 435.778C139.097 435.582 138.729 435.485 138.305 435.485C137.837 435.485 137.433 435.601 137.092 435.833C136.753 436.061 136.493 436.36 136.311 436.727C136.129 437.095 136.038 437.49 136.038 437.911V438.587C136.038 439.164 136.137 439.652 136.336 440.053C136.538 440.451 136.818 440.754 137.176 440.963C137.534 441.169 137.95 441.271 138.424 441.271C138.732 441.271 139.011 441.228 139.259 441.142C139.511 441.053 139.728 440.92 139.91 440.745C140.093 440.566 140.234 440.343 140.333 440.078L141.467 440.396C141.347 440.781 141.147 441.119 140.865 441.411C140.583 441.699 140.235 441.924 139.821 442.087C139.407 442.246 138.941 442.325 138.424 442.325ZM143.329 442.166V434.53H144.462V435.683H144.542C144.681 435.306 144.933 434.999 145.297 434.764C145.662 434.528 146.073 434.411 146.53 434.411C146.617 434.411 146.724 434.412 146.854 434.416C146.983 434.419 147.081 434.424 147.147 434.431V435.624C147.107 435.614 147.016 435.599 146.873 435.579C146.734 435.556 146.587 435.544 146.431 435.544C146.06 435.544 145.728 435.622 145.437 435.778C145.148 435.93 144.92 436.142 144.751 436.414C144.585 436.683 144.502 436.989 144.502 437.334V442.166H143.329ZM152.391 434.53H153.564V442.723C153.564 443.194 153.483 443.602 153.321 443.946C153.162 444.291 152.92 444.558 152.595 444.747C152.273 444.936 151.867 445.03 151.377 445.03C151.337 445.03 151.297 445.03 151.258 445.03C151.218 445.03 151.178 445.03 151.138 445.03V443.936C151.178 443.936 151.215 443.936 151.248 443.936C151.281 443.936 151.317 443.936 151.357 443.936C151.715 443.936 151.977 443.83 152.143 443.618C152.308 443.409 152.391 443.111 152.391 442.723V434.53ZM152.968 433.257C152.739 433.257 152.542 433.179 152.376 433.024C152.214 432.868 152.133 432.681 152.133 432.462C152.133 432.243 152.214 432.056 152.376 431.9C152.542 431.744 152.739 431.666 152.968 431.666C153.197 431.666 153.392 431.744 153.554 431.9C153.72 432.056 153.803 432.243 153.803 432.462C153.803 432.681 153.72 432.868 153.554 433.024C153.392 433.179 153.197 433.257 152.968 433.257ZM158.774 442.325C158.084 442.325 157.479 442.161 156.959 441.833C156.442 441.505 156.038 441.046 155.746 440.456C155.458 439.866 155.313 439.177 155.313 438.388C155.313 437.593 155.458 436.898 155.746 436.305C156.038 435.712 156.442 435.251 156.959 434.923C157.479 434.595 158.084 434.431 158.774 434.431C159.463 434.431 160.066 434.595 160.583 434.923C161.104 435.251 161.508 435.712 161.796 436.305C162.088 436.898 162.234 437.593 162.234 438.388C162.234 439.177 162.088 439.866 161.796 440.456C161.508 441.046 161.104 441.505 160.583 441.833C160.066 442.161 159.463 442.325 158.774 442.325ZM158.774 441.271C159.297 441.271 159.728 441.137 160.066 440.869C160.404 440.6 160.655 440.247 160.817 439.81C160.979 439.372 161.061 438.898 161.061 438.388C161.061 437.878 160.979 437.402 160.817 436.961C160.655 436.52 160.404 436.164 160.066 435.892C159.728 435.62 159.297 435.485 158.774 435.485C158.25 435.485 157.819 435.62 157.481 435.892C157.143 436.164 156.893 436.52 156.73 436.961C156.568 437.402 156.487 437.878 156.487 438.388C156.487 438.898 156.568 439.372 156.73 439.81C156.893 440.247 157.143 440.6 157.481 440.869C157.819 441.137 158.25 441.271 158.774 441.271ZM168.795 439.044V434.53H169.969V442.166H168.795V440.874H168.716C168.537 441.262 168.258 441.591 167.881 441.863C167.503 442.132 167.026 442.266 166.449 442.266C165.972 442.266 165.547 442.161 165.176 441.953C164.805 441.74 164.513 441.422 164.301 440.998C164.089 440.571 163.983 440.032 163.983 439.382V434.53H165.156V439.303C165.156 439.86 165.312 440.304 165.624 440.635C165.938 440.967 166.339 441.132 166.827 441.132C167.118 441.132 167.415 441.058 167.717 440.909C168.022 440.759 168.277 440.531 168.482 440.222C168.691 439.914 168.795 439.521 168.795 439.044ZM172.076 442.166V434.53H173.209V435.683H173.289C173.428 435.306 173.68 434.999 174.044 434.764C174.409 434.528 174.82 434.411 175.277 434.411C175.364 434.411 175.471 434.412 175.601 434.416C175.73 434.419 175.828 434.424 175.894 434.431V435.624C175.854 435.614 175.763 435.599 175.62 435.579C175.481 435.556 175.334 435.544 175.178 435.544C174.807 435.544 174.475 435.622 174.184 435.778C173.895 435.93 173.667 436.142 173.498 436.414C173.332 436.683 173.249 436.989 173.249 437.334V442.166H172.076ZM178.416 437.573V442.166H177.243V434.53H178.376V435.723H178.476C178.655 435.335 178.926 435.024 179.291 434.789C179.656 434.55 180.126 434.431 180.703 434.431C181.22 434.431 181.672 434.537 182.06 434.749C182.448 434.958 182.75 435.276 182.965 435.703C183.18 436.128 183.288 436.664 183.288 437.314V442.166H182.115V437.394C182.115 436.794 181.959 436.326 181.648 435.992C181.336 435.654 180.908 435.485 180.365 435.485C179.99 435.485 179.656 435.566 179.361 435.728C179.069 435.891 178.839 436.128 178.67 436.439C178.5 436.751 178.416 437.129 178.416 437.573ZM188.592 442.325C187.856 442.325 187.221 442.163 186.688 441.838C186.157 441.51 185.748 441.053 185.46 440.466C185.175 439.876 185.032 439.19 185.032 438.408C185.032 437.626 185.175 436.936 185.46 436.34C185.748 435.74 186.149 435.272 186.663 434.938C187.18 434.6 187.783 434.431 188.473 434.431C188.87 434.431 189.263 434.497 189.651 434.629C190.039 434.762 190.392 434.977 190.71 435.276C191.028 435.571 191.281 435.962 191.47 436.449C191.659 436.936 191.754 437.536 191.754 438.249V438.746H185.867V437.732H190.561C190.561 437.301 190.474 436.916 190.302 436.578C190.133 436.24 189.891 435.973 189.576 435.778C189.265 435.582 188.897 435.485 188.473 435.485C188.005 435.485 187.601 435.601 187.259 435.833C186.921 436.061 186.661 436.36 186.479 436.727C186.297 437.095 186.205 437.49 186.205 437.911V438.587C186.205 439.164 186.305 439.652 186.504 440.053C186.706 440.451 186.986 440.754 187.344 440.963C187.702 441.169 188.118 441.271 188.592 441.271C188.9 441.271 189.178 441.228 189.427 441.142C189.679 441.053 189.896 440.92 190.078 440.745C190.261 440.566 190.401 440.343 190.501 440.078L191.634 440.396C191.515 440.781 191.315 441.119 191.033 441.411C190.751 441.699 190.403 441.924 189.989 442.087C189.575 442.246 189.109 442.325 188.592 442.325ZM194.02 445.03C193.821 445.03 193.644 445.013 193.488 444.98C193.332 444.95 193.224 444.921 193.165 444.891L193.463 443.857C193.748 443.93 194 443.956 194.219 443.936C194.437 443.916 194.631 443.819 194.8 443.643C194.973 443.471 195.13 443.191 195.273 442.803L195.491 442.206L192.668 434.53H193.94L196.048 440.615H196.128L198.236 434.53H199.508L196.267 443.28C196.121 443.674 195.941 444.001 195.725 444.259C195.51 444.521 195.259 444.715 194.974 444.841C194.693 444.967 194.374 445.03 194.02 445.03ZM204.911 442.166V434.53H206.044V435.723H206.144C206.303 435.316 206.56 434.999 206.914 434.774C207.269 434.545 207.695 434.431 208.192 434.431C208.696 434.431 209.115 434.545 209.45 434.774C209.788 434.999 210.051 435.316 210.24 435.723H210.32C210.515 435.329 210.809 435.016 211.2 434.784C211.591 434.548 212.06 434.431 212.607 434.431C213.289 434.431 213.848 434.644 214.282 435.072C214.716 435.496 214.933 436.157 214.933 437.056V442.166H213.76V437.056C213.76 436.492 213.606 436.089 213.298 435.847C212.989 435.606 212.627 435.485 212.209 435.485C211.672 435.485 211.256 435.647 210.961 435.972C210.666 436.293 210.519 436.701 210.519 437.195V442.166H209.325V436.936C209.325 436.502 209.185 436.152 208.903 435.887C208.621 435.619 208.258 435.485 207.814 435.485C207.509 435.485 207.224 435.566 206.959 435.728C206.697 435.891 206.485 436.116 206.323 436.404C206.163 436.689 206.084 437.019 206.084 437.394V442.166H204.911ZM219.284 442.345C218.8 442.345 218.361 442.254 217.966 442.072C217.572 441.886 217.259 441.62 217.027 441.271C216.795 440.92 216.679 440.496 216.679 439.999C216.679 439.561 216.765 439.207 216.937 438.935C217.11 438.66 217.34 438.444 217.628 438.289C217.917 438.133 218.235 438.017 218.583 437.941C218.934 437.861 219.287 437.798 219.642 437.752C220.106 437.692 220.482 437.647 220.77 437.617C221.062 437.584 221.274 437.53 221.407 437.453C221.543 437.377 221.61 437.245 221.61 437.056V437.016C221.61 436.525 221.476 436.144 221.208 435.872C220.943 435.601 220.54 435.465 220 435.465C219.44 435.465 219 435.587 218.682 435.833C218.364 436.078 218.14 436.34 218.011 436.618L216.897 436.22C217.096 435.756 217.361 435.395 217.693 435.137C218.028 434.875 218.392 434.692 218.787 434.59C219.184 434.484 219.575 434.431 219.96 434.431C220.205 434.431 220.487 434.46 220.805 434.52C221.127 434.576 221.436 434.694 221.735 434.873C222.036 435.052 222.287 435.322 222.485 435.683C222.684 436.045 222.784 436.529 222.784 437.135V442.166H221.61V441.132H221.551C221.471 441.298 221.339 441.475 221.153 441.664C220.967 441.853 220.721 442.014 220.412 442.146C220.104 442.279 219.728 442.345 219.284 442.345ZM219.463 441.291C219.927 441.291 220.318 441.2 220.636 441.018C220.958 440.836 221.199 440.6 221.362 440.312C221.528 440.024 221.61 439.72 221.61 439.402V438.328C221.561 438.388 221.451 438.443 221.282 438.492C221.117 438.539 220.924 438.58 220.706 438.617C220.49 438.65 220.28 438.68 220.074 438.706C219.872 438.729 219.708 438.749 219.582 438.766C219.277 438.806 218.992 438.87 218.727 438.96C218.465 439.046 218.253 439.177 218.091 439.352C217.931 439.525 217.852 439.76 217.852 440.058C217.852 440.466 218.003 440.774 218.304 440.983C218.609 441.189 218.995 441.291 219.463 441.291ZM224.883 445.03V434.53H226.017V435.743H226.156C226.242 435.611 226.361 435.441 226.514 435.236C226.67 435.027 226.892 434.842 227.18 434.679C227.472 434.513 227.866 434.431 228.363 434.431C229.006 434.431 229.573 434.591 230.064 434.913C230.554 435.234 230.937 435.69 231.212 436.28C231.487 436.87 231.625 437.566 231.625 438.368C231.625 439.177 231.487 439.878 231.212 440.471C230.937 441.061 230.556 441.518 230.069 441.843C229.581 442.165 229.02 442.325 228.383 442.325C227.893 442.325 227.5 442.244 227.205 442.082C226.91 441.916 226.683 441.729 226.524 441.52C226.365 441.308 226.242 441.132 226.156 440.993H226.057V445.03H224.883ZM226.037 438.348C226.037 438.925 226.121 439.434 226.29 439.874C226.459 440.312 226.706 440.655 227.031 440.904C227.356 441.149 227.754 441.271 228.224 441.271C228.715 441.271 229.124 441.142 229.452 440.884C229.784 440.622 230.032 440.271 230.198 439.83C230.367 439.386 230.451 438.892 230.451 438.348C230.451 437.811 230.369 437.327 230.203 436.896C230.04 436.462 229.794 436.119 229.462 435.867C229.134 435.612 228.721 435.485 228.224 435.485C227.747 435.485 227.346 435.606 227.021 435.847C226.696 436.086 226.451 436.421 226.285 436.852C226.12 437.279 226.037 437.778 226.037 438.348ZM237.268 442.166V434.53H238.441V442.166H237.268ZM237.865 433.257C237.636 433.257 237.439 433.179 237.273 433.024C237.111 432.868 237.029 432.681 237.029 432.462C237.029 432.243 237.111 432.056 237.273 431.9C237.439 431.744 237.636 431.666 237.865 431.666C238.093 431.666 238.289 431.744 238.451 431.9C238.617 432.056 238.7 432.243 238.7 432.462C238.7 432.681 238.617 432.868 238.451 433.024C238.289 433.179 238.093 433.257 237.865 433.257ZM241.722 437.573V442.166H240.548V434.53H241.682V435.723H241.781C241.96 435.335 242.232 435.024 242.597 434.789C242.961 434.55 243.432 434.431 244.009 434.431C244.526 434.431 244.978 434.537 245.366 434.749C245.754 434.958 246.055 435.276 246.271 435.703C246.486 436.128 246.594 436.664 246.594 437.314V442.166H245.42V437.394C245.42 436.794 245.265 436.326 244.953 435.992C244.642 435.654 244.214 435.485 243.67 435.485C243.296 435.485 242.961 435.566 242.666 435.728C242.375 435.891 242.144 436.128 241.975 436.439C241.806 436.751 241.722 437.129 241.722 437.573ZM255.475 442.325C254.838 442.325 254.277 442.165 253.789 441.843C253.302 441.518 252.921 441.061 252.646 440.471C252.371 439.878 252.233 439.177 252.233 438.368C252.233 437.566 252.371 436.87 252.646 436.28C252.921 435.69 253.304 435.234 253.794 434.913C254.285 434.591 254.852 434.431 255.495 434.431C255.992 434.431 256.385 434.513 256.673 434.679C256.965 434.842 257.187 435.027 257.339 435.236C257.495 435.441 257.616 435.611 257.702 435.743H257.801V431.985H258.975V442.166H257.841V440.993H257.702C257.616 441.132 257.493 441.308 257.334 441.52C257.175 441.729 256.948 441.916 256.653 442.082C256.358 442.244 255.965 442.325 255.475 442.325ZM255.634 441.271C256.104 441.271 256.502 441.149 256.827 440.904C257.152 440.655 257.399 440.312 257.568 439.874C257.737 439.434 257.821 438.925 257.821 438.348C257.821 437.778 257.738 437.279 257.573 436.852C257.407 436.421 257.162 436.086 256.837 435.847C256.512 435.606 256.111 435.485 255.634 435.485C255.137 435.485 254.722 435.612 254.391 435.867C254.063 436.119 253.816 436.462 253.65 436.896C253.488 437.327 253.407 437.811 253.407 438.348C253.407 438.892 253.489 439.386 253.655 439.83C253.824 440.271 254.073 440.622 254.401 440.884C254.732 441.142 255.143 441.271 255.634 441.271ZM264.446 442.325C263.71 442.325 263.076 442.163 262.542 441.838C262.012 441.51 261.602 441.053 261.314 440.466C261.029 439.876 260.887 439.19 260.887 438.408C260.887 437.626 261.029 436.936 261.314 436.34C261.602 435.74 262.004 435.272 262.517 434.938C263.034 434.6 263.638 434.431 264.327 434.431C264.725 434.431 265.117 434.497 265.505 434.629C265.893 434.762 266.246 434.977 266.564 435.276C266.882 435.571 267.136 435.962 267.325 436.449C267.514 436.936 267.608 437.536 267.608 438.249V438.746H261.722V437.732H266.415C266.415 437.301 266.329 436.916 266.156 436.578C265.987 436.24 265.745 435.973 265.431 435.778C265.119 435.582 264.751 435.485 264.327 435.485C263.86 435.485 263.455 435.601 263.114 435.833C262.776 436.061 262.516 436.36 262.333 436.727C262.151 437.095 262.06 437.49 262.06 437.911V438.587C262.06 439.164 262.159 439.652 262.358 440.053C262.56 440.451 262.84 440.754 263.198 440.963C263.556 441.169 263.972 441.271 264.446 441.271C264.754 441.271 265.033 441.228 265.281 441.142C265.533 441.053 265.75 440.92 265.933 440.745C266.115 440.566 266.256 440.343 266.355 440.078L267.489 440.396C267.37 440.781 267.169 441.119 266.887 441.411C266.606 441.699 266.258 441.924 265.843 442.087C265.429 442.246 264.963 442.325 264.446 442.325ZM270.206 442.246C269.961 442.246 269.75 442.158 269.575 441.982C269.399 441.807 269.311 441.596 269.311 441.351C269.311 441.106 269.399 440.895 269.575 440.72C269.75 440.544 269.961 440.456 270.206 440.456C270.451 440.456 270.662 440.544 270.837 440.72C271.013 440.895 271.101 441.106 271.101 441.351C271.101 441.513 271.06 441.663 270.977 441.798C270.897 441.934 270.789 442.044 270.654 442.127C270.521 442.206 270.372 442.246 270.206 442.246ZM274.024 442.246C273.779 442.246 273.569 442.158 273.393 441.982C273.217 441.807 273.129 441.596 273.129 441.351C273.129 441.106 273.217 440.895 273.393 440.72C273.569 440.544 273.779 440.456 274.024 440.456C274.27 440.456 274.48 440.544 274.656 440.72C274.831 440.895 274.919 441.106 274.919 441.351C274.919 441.513 274.878 441.663 274.795 441.798C274.715 441.934 274.608 442.044 274.472 442.127C274.339 442.206 274.19 442.246 274.024 442.246ZM277.842 442.246C277.597 442.246 277.387 442.158 277.211 441.982C277.035 441.807 276.948 441.596 276.948 441.351C276.948 441.106 277.035 440.895 277.211 440.72C277.387 440.544 277.597 440.456 277.842 440.456C278.088 440.456 278.298 440.544 278.474 440.72C278.65 440.895 278.737 441.106 278.737 441.351C278.737 441.513 278.696 441.663 278.613 441.798C278.534 441.934 278.426 442.044 278.29 442.127C278.157 442.206 278.008 442.246 277.842 442.246Z" fill="#171717"/>
</g>
<g opacity="0.9">
<rect x="56" y="456.666" width="238" height="36" rx="8" fill="#FCFCFC"/>
</g>
</g>
<g clip-path="url(#clip5_859_5660)">
<rect width="1238" height="60" transform="translate(312 153.666)" fill="#FCFCFC"/>
<path d="M337.679 182.851H335.463C335.378 182.378 335.219 181.961 334.987 181.601C334.755 181.241 334.471 180.936 334.135 180.685C333.799 180.434 333.422 180.245 333.006 180.117C332.594 179.989 332.156 179.925 331.692 179.925C330.854 179.925 330.103 180.136 329.44 180.557C328.782 180.978 328.261 181.596 327.878 182.411C327.499 183.225 327.31 184.219 327.31 185.394C327.31 186.577 327.499 187.576 327.878 188.391C328.261 189.205 328.785 189.821 329.447 190.237C330.11 190.654 330.856 190.862 331.685 190.862C332.144 190.862 332.58 190.801 332.991 190.678C333.408 190.55 333.785 190.363 334.121 190.117C334.457 189.87 334.741 189.57 334.973 189.215C335.21 188.855 335.373 188.443 335.463 187.979L337.679 187.986C337.561 188.701 337.331 189.359 336.99 189.96C336.654 190.557 336.221 191.073 335.69 191.509C335.165 191.94 334.563 192.273 333.886 192.51C333.209 192.747 332.471 192.865 331.67 192.865C330.411 192.865 329.289 192.567 328.304 191.97C327.319 191.369 326.543 190.51 325.974 189.392C325.411 188.275 325.129 186.942 325.129 185.394C325.129 183.841 325.413 182.508 325.982 181.395C326.55 180.278 327.326 179.421 328.311 178.824C329.296 178.223 330.416 177.922 331.67 177.922C332.442 177.922 333.162 178.033 333.83 178.256C334.502 178.474 335.106 178.796 335.641 179.222C336.176 179.643 336.618 180.159 336.969 180.77C337.319 181.376 337.556 182.07 337.679 182.851ZM342.198 186.189V192.666H340.075V178.121H342.17V183.533H342.305C342.56 182.946 342.951 182.479 343.477 182.134C344.002 181.788 344.689 181.615 345.536 181.615C346.284 181.615 346.938 181.769 347.496 182.077C348.06 182.385 348.496 182.844 348.803 183.455C349.116 184.061 349.272 184.818 349.272 185.727V192.666H347.148V185.983C347.148 185.183 346.942 184.563 346.531 184.122C346.119 183.677 345.546 183.455 344.812 183.455C344.31 183.455 343.86 183.561 343.462 183.774C343.069 183.987 342.759 184.3 342.532 184.712C342.309 185.119 342.198 185.611 342.198 186.189ZM355.221 192.908C354.529 192.908 353.904 192.78 353.346 192.524C352.787 192.264 352.344 191.887 352.017 191.395C351.695 190.903 351.534 190.299 351.534 189.584C351.534 188.968 351.653 188.462 351.89 188.064C352.126 187.666 352.446 187.352 352.848 187.12C353.251 186.887 353.701 186.712 354.198 186.594C354.695 186.476 355.202 186.386 355.718 186.324C356.371 186.248 356.901 186.187 357.309 186.139C357.716 186.087 358.012 186.004 358.196 185.891C358.381 185.777 358.473 185.593 358.473 185.337V185.287C358.473 184.667 358.298 184.186 357.948 183.845C357.602 183.504 357.086 183.334 356.4 183.334C355.685 183.334 355.121 183.493 354.709 183.81C354.302 184.122 354.02 184.47 353.864 184.854L351.868 184.399C352.105 183.736 352.451 183.201 352.905 182.794C353.364 182.382 353.892 182.084 354.489 181.899C355.086 181.71 355.713 181.615 356.371 181.615C356.807 181.615 357.268 181.667 357.756 181.771C358.248 181.871 358.708 182.056 359.134 182.325C359.565 182.595 359.918 182.981 360.192 183.483C360.467 183.98 360.604 184.627 360.604 185.422V192.666H358.53V191.175H358.445C358.308 191.45 358.102 191.719 357.827 191.985C357.552 192.25 357.2 192.47 356.769 192.645C356.338 192.82 355.822 192.908 355.221 192.908ZM355.682 191.203C356.269 191.203 356.771 191.087 357.188 190.855C357.609 190.623 357.929 190.32 358.147 189.946C358.369 189.567 358.48 189.163 358.48 188.732V187.325C358.405 187.401 358.258 187.472 358.04 187.539C357.827 187.6 357.583 187.655 357.309 187.702C357.034 187.745 356.766 187.785 356.506 187.823C356.246 187.856 356.028 187.884 355.853 187.908C355.441 187.96 355.064 188.048 354.723 188.171C354.387 188.294 354.117 188.471 353.914 188.703C353.715 188.931 353.615 189.234 353.615 189.612C353.615 190.138 353.81 190.536 354.198 190.806C354.586 191.071 355.081 191.203 355.682 191.203ZM368.465 181.757V183.462H362.506V181.757H368.465ZM364.104 179.144H366.228V189.463C366.228 189.875 366.289 190.185 366.412 190.394C366.535 190.597 366.694 190.737 366.888 190.813C367.087 190.884 367.302 190.919 367.534 190.919C367.705 190.919 367.854 190.907 367.982 190.884C368.11 190.86 368.209 190.841 368.28 190.827L368.664 192.581C368.541 192.629 368.365 192.676 368.138 192.723C367.911 192.775 367.627 192.804 367.286 192.808C366.727 192.818 366.206 192.718 365.723 192.51C365.24 192.302 364.85 191.98 364.552 191.544C364.253 191.109 364.104 190.562 364.104 189.904V179.144ZM380.768 182.716C380.631 182.285 380.446 181.899 380.214 181.558C379.987 181.213 379.715 180.919 379.397 180.678C379.08 180.432 378.718 180.245 378.311 180.117C377.908 179.989 377.466 179.925 376.983 179.925C376.164 179.925 375.425 180.136 374.767 180.557C374.109 180.978 373.588 181.596 373.204 182.411C372.825 183.22 372.636 184.212 372.636 185.387C372.636 186.566 372.828 187.562 373.211 188.377C373.595 189.191 374.12 189.809 374.788 190.23C375.456 190.652 376.216 190.862 377.068 190.862C377.859 190.862 378.548 190.701 379.135 190.379C379.726 190.057 380.183 189.603 380.505 189.016C380.832 188.424 380.995 187.728 380.995 186.928L381.564 187.034H377.402V185.223H383.119V186.878C383.119 188.1 382.859 189.16 382.338 190.06C381.822 190.955 381.107 191.646 380.193 192.134C379.284 192.621 378.242 192.865 377.068 192.865C375.752 192.865 374.596 192.562 373.602 191.956C372.612 191.35 371.841 190.491 371.287 189.378C370.733 188.261 370.456 186.935 370.456 185.401C370.456 184.241 370.617 183.199 370.939 182.276C371.261 181.352 371.713 180.569 372.295 179.925C372.882 179.276 373.571 178.781 374.362 178.441C375.157 178.095 376.026 177.922 376.968 177.922C377.754 177.922 378.486 178.038 379.163 178.27C379.845 178.502 380.451 178.831 380.981 179.257C381.516 179.683 381.959 180.19 382.309 180.777C382.66 181.36 382.896 182.006 383.02 182.716H380.768ZM385.845 192.666V178.121H391.03C392.161 178.121 393.099 178.327 393.842 178.739C394.585 179.151 395.142 179.714 395.511 180.429C395.88 181.139 396.065 181.94 396.065 182.83C396.065 183.725 395.878 184.53 395.504 185.245C395.135 185.955 394.576 186.518 393.828 186.935C393.084 187.347 392.149 187.553 391.022 187.553H387.457V185.692H390.824C391.539 185.692 392.119 185.569 392.564 185.323C393.009 185.072 393.335 184.731 393.544 184.3C393.752 183.869 393.856 183.379 393.856 182.83C393.856 182.28 393.752 181.793 393.544 181.367C393.335 180.941 393.006 180.607 392.557 180.365C392.111 180.124 391.524 180.003 390.795 180.003H388.039V192.666H385.845ZM397.861 180.01V178.121H409.118V180.01H404.579V192.666H402.392V180.01H397.861Z" fill="#404040"/>
<g clip-path="url(#clip6_859_5660)">
<rect width="1238" height="922" transform="translate(312 213.666)" fill="#FCFCFC"/>
<g clip-path="url(#clip7_859_5660)">
<rect width="768" height="930" transform="translate(547 209.666)" fill="#FCFCFC"/>
</g>
</g>
</g>
</g>
<path d="M38 153.666V154.166H1550V153.666V153.166H38V153.666Z" fill="#D4D4D4"/>
</g>
<rect width="693" height="75" fill="white"/>
<rect x="24" y="17.5" width="42" height="40" rx="4" fill="black"/>
<path d="M38.5 45.24C37.3667 45.24 36.4 44.9467 35.6 44.36C34.8 43.76 34.1867 42.92 33.76 41.84C33.3333 40.7467 33.12 39.4733 33.12 38.02C33.12 36.54 33.3333 35.26 33.76 34.18C34.1867 33.1 34.8 32.2667 35.6 31.68C36.4 31.0933 37.3667 30.8 38.5 30.8C39.6467 30.8 40.6133 31.0933 41.4 31.68C42.2 32.2667 42.8133 33.1 43.24 34.18C43.6667 35.2467 43.88 36.5267 43.88 38.02C43.88 39.4867 43.6667 40.76 43.24 41.84C42.8133 42.92 42.2 43.76 41.4 44.36C40.6133 44.9467 39.6467 45.24 38.5 45.24ZM38.5 43.44C39.5533 43.44 40.3467 42.9667 40.88 42.02C41.4133 41.06 41.68 39.7267 41.68 38.02C41.68 36.2867 41.4133 34.9533 40.88 34.02C40.3467 33.0733 39.5533 32.6 38.5 32.6C37.46 32.6 36.6733 33.0733 36.14 34.02C35.6067 34.9533 35.34 36.2867 35.34 38.02C35.34 39.7267 35.6067 41.06 36.14 42.02C36.6733 42.9667 37.46 43.44 38.5 43.44ZM50.5478 45V36.38L50.6478 33.54L48.3878 35.38L45.8878 37.38V34.88L51.1278 31.04H52.6678V45H50.5478ZM45.8878 45V43.2H55.7678V45H45.8878Z" fill="white"/>
<path d="M92.088 45.788C90.616 45.788 89.336 45.42 88.248 44.684C87.176 43.932 86.344 42.908 85.752 41.612C85.176 40.3 84.888 38.796 84.888 37.1C84.888 35.34 85.192 33.812 85.8 32.516C86.408 31.22 87.256 30.22 88.344 29.516C89.448 28.812 90.728 28.46 92.184 28.46C93.352 28.46 94.408 28.692 95.352 29.156C96.312 29.604 97.088 30.26 97.68 31.124C98.288 31.972 98.64 32.988 98.736 34.172H95.952C95.824 33.1 95.424 32.244 94.752 31.604C94.08 30.948 93.216 30.62 92.16 30.62C91.248 30.62 90.44 30.884 89.736 31.412C89.048 31.924 88.512 32.668 88.128 33.644C87.744 34.62 87.552 35.78 87.552 37.124C87.552 38.468 87.744 39.628 88.128 40.604C88.528 41.58 89.072 42.332 89.76 42.86C90.448 43.372 91.224 43.628 92.088 43.628C92.84 43.628 93.496 43.476 94.056 43.172C94.616 42.852 95.064 42.412 95.4 41.852C95.752 41.292 95.96 40.636 96.024 39.884H98.832C98.72 41.068 98.376 42.108 97.8 43.004C97.224 43.884 96.448 44.572 95.472 45.068C94.512 45.548 93.384 45.788 92.088 45.788ZM110.001 45.5V37.196C110.001 36.252 109.737 35.5 109.209 34.94C108.681 34.364 107.993 34.076 107.145 34.076C106.169 34.076 105.297 34.436 104.529 35.156C103.777 35.86 103.177 36.964 102.729 38.468L102.345 35.78C102.841 34.516 103.553 33.572 104.481 32.948C105.425 32.324 106.449 32.012 107.553 32.012C108.545 32.012 109.401 32.228 110.121 32.66C110.857 33.076 111.425 33.668 111.825 34.436C112.225 35.188 112.425 36.076 112.425 37.1V45.5H110.001ZM100.593 45.5V27.836H103.017V45.5H100.593ZM124.555 45.5L124.459 42.5V36.86C124.459 35.916 124.147 35.18 123.523 34.652C122.915 34.108 122.075 33.836 121.003 33.836C119.963 33.836 119.115 34.076 118.459 34.556C117.803 35.02 117.443 35.668 117.379 36.5H115.003C115.083 35.556 115.387 34.756 115.915 34.1C116.443 33.428 117.147 32.916 118.027 32.564C118.907 32.196 119.923 32.012 121.075 32.012C122.259 32.012 123.283 32.212 124.147 32.612C125.011 32.996 125.675 33.556 126.139 34.292C126.619 35.028 126.859 35.924 126.859 36.98V45.5H124.555ZM119.779 45.788C118.915 45.788 118.155 45.636 117.499 45.332C116.843 45.012 116.331 44.564 115.963 43.988C115.595 43.396 115.411 42.708 115.411 41.924C115.411 40.564 115.931 39.508 116.971 38.756C118.027 38.004 119.499 37.628 121.387 37.628H124.771V39.428H121.291C120.203 39.428 119.347 39.636 118.723 40.052C118.115 40.468 117.811 41.052 117.811 41.804C117.811 42.428 118.027 42.916 118.459 43.268C118.907 43.62 119.507 43.796 120.259 43.796C121.219 43.796 122.067 43.54 122.803 43.028C123.555 42.5 124.163 41.78 124.627 40.868L124.891 42.644C124.475 43.652 123.835 44.428 122.971 44.972C122.107 45.516 121.043 45.788 119.779 45.788ZM136.828 45.5C136.012 45.5 135.316 45.34 134.74 45.02C134.164 44.684 133.732 44.212 133.444 43.604C133.156 42.996 133.012 42.284 133.012 41.468V29.804L135.436 28.484V41.468C135.436 41.852 135.492 42.204 135.604 42.524C135.716 42.844 135.932 43.092 136.252 43.268C136.588 43.444 137.076 43.532 137.716 43.532H141.676V45.5H136.828ZM129.892 34.268V32.3H139.564V34.268H129.892ZM150.734 45.788C149.246 45.788 147.949 45.428 146.845 44.708C145.741 43.988 144.877 42.98 144.253 41.684C143.645 40.388 143.341 38.868 143.341 37.124C143.341 35.396 143.653 33.884 144.277 32.588C144.901 31.292 145.773 30.284 146.893 29.564C148.014 28.828 149.318 28.46 150.806 28.46C151.958 28.46 152.99 28.684 153.902 29.132C154.83 29.58 155.582 30.228 156.157 31.076C156.734 31.924 157.07 32.948 157.166 34.148H154.358C154.23 33.076 153.846 32.22 153.206 31.58C152.582 30.94 151.766 30.62 150.757 30.62C149.862 30.62 149.054 30.884 148.334 31.412C147.63 31.924 147.07 32.668 146.654 33.644C146.238 34.604 146.03 35.764 146.03 37.124C146.03 38.516 146.238 39.7 146.654 40.676C147.086 41.636 147.67 42.372 148.406 42.884C149.158 43.38 149.997 43.628 150.925 43.628C151.742 43.628 152.462 43.484 153.086 43.196C153.71 42.892 154.23 42.508 154.646 42.044V38.732L151.718 38.828L151.813 36.644H157.166V42.788C156.51 43.732 155.622 44.468 154.502 44.996C153.398 45.524 152.142 45.788 150.734 45.788ZM161.015 39.38V37.22H165.383C166.455 37.22 167.319 36.924 167.975 36.332C168.631 35.74 168.959 34.964 168.959 34.004C168.959 33.076 168.655 32.332 168.047 31.772C167.439 31.196 166.631 30.908 165.623 30.908H161.015V28.748H165.623C166.839 28.748 167.895 28.964 168.791 29.396C169.687 29.828 170.383 30.436 170.879 31.22C171.375 32.004 171.623 32.932 171.623 34.004C171.623 35.076 171.367 36.02 170.855 36.836C170.343 37.636 169.615 38.26 168.671 38.708C167.743 39.156 166.655 39.38 165.407 39.38H161.015ZM159.191 45.5V28.748H161.735V45.5H159.191ZM178.424 45.5V30.908H173.024V28.748H186.368V30.908H180.968V45.5H178.424Z" fill="#171717"/>
<path d="M620.54 45V43.48C622.38 42.1067 623.86 40.9133 624.98 39.9C626.1 38.8733 626.913 37.9667 627.42 37.18C627.927 36.38 628.18 35.6533 628.18 35C628.18 34.28 627.953 33.7 627.5 33.26C627.06 32.82 626.44 32.6 625.64 32.6C624.8 32.6 624.107 32.86 623.56 33.38C623.013 33.8867 622.72 34.6067 622.68 35.54H620.54C620.607 34.54 620.86 33.6867 621.3 32.98C621.753 32.26 622.353 31.72 623.1 31.36C623.86 30.9867 624.72 30.8 625.68 30.8C626.64 30.8 627.473 30.9733 628.18 31.32C628.887 31.6533 629.427 32.1333 629.8 32.76C630.187 33.3733 630.38 34.0867 630.38 34.9C630.38 35.78 630.153 36.6467 629.7 37.5C629.26 38.34 628.547 39.2267 627.56 40.16C626.587 41.08 625.293 42.0933 623.68 43.2H630.42V45H620.54ZM637.708 45.24C636.574 45.24 635.608 44.9467 634.808 44.36C634.008 43.76 633.394 42.92 632.968 41.84C632.541 40.7467 632.328 39.4733 632.328 38.02C632.328 36.54 632.541 35.26 632.968 34.18C633.394 33.1 634.008 32.2667 634.808 31.68C635.608 31.0933 636.574 30.8 637.708 30.8C638.854 30.8 639.821 31.0933 640.608 31.68C641.408 32.2667 642.021 33.1 642.448 34.18C642.874 35.2467 643.088 36.5267 643.088 38.02C643.088 39.4867 642.874 40.76 642.448 41.84C642.021 42.92 641.408 43.76 640.608 44.36C639.821 44.9467 638.854 45.24 637.708 45.24ZM637.708 43.44C638.761 43.44 639.554 42.9667 640.088 42.02C640.621 41.06 640.888 39.7267 640.888 38.02C640.888 36.2867 640.621 34.9533 640.088 34.02C639.554 33.0733 638.761 32.6 637.708 32.6C636.668 32.6 635.881 33.0733 635.348 34.02C634.814 34.9533 634.548 36.2867 634.548 38.02C634.548 39.7267 634.814 41.06 635.348 42.02C635.881 42.9667 636.668 43.44 637.708 43.44ZM644.956 45V43.48C646.796 42.1067 648.276 40.9133 649.396 39.9C650.516 38.8733 651.329 37.9667 651.836 37.18C652.342 36.38 652.596 35.6533 652.596 35C652.596 34.28 652.369 33.7 651.916 33.26C651.476 32.82 650.856 32.6 650.056 32.6C649.216 32.6 648.522 32.86 647.976 33.38C647.429 33.8867 647.136 34.6067 647.096 35.54H644.956C645.022 34.54 645.276 33.6867 645.716 32.98C646.169 32.26 646.769 31.72 647.516 31.36C648.276 30.9867 649.136 30.8 650.096 30.8C651.056 30.8 651.889 30.9733 652.596 31.32C653.302 31.6533 653.842 32.1333 654.216 32.76C654.602 33.3733 654.796 34.0867 654.796 34.9C654.796 35.78 654.569 36.6467 654.116 37.5C653.676 38.34 652.962 39.2267 651.976 40.16C651.002 41.08 649.709 42.0933 648.096 43.2H654.836V45H644.956ZM662.063 45.22C661.13 45.22 660.317 45.0533 659.623 44.72C658.93 44.3867 658.377 43.9133 657.963 43.3C657.563 42.6867 657.343 41.9733 657.303 41.16H659.423C659.49 41.84 659.757 42.3867 660.223 42.8C660.69 43.2133 661.31 43.42 662.083 43.42C662.683 43.42 663.203 43.2867 663.643 43.02C664.083 42.7533 664.423 42.3733 664.663 41.88C664.903 41.3867 665.023 40.8133 665.023 40.16C665.023 39.3067 664.77 38.62 664.263 38.1C663.757 37.5667 663.09 37.3 662.263 37.3C661.69 37.3 661.15 37.4467 660.643 37.74C660.137 38.02 659.73 38.3867 659.423 38.84H657.463L658.643 31.04H666.523V32.84H660.363L659.723 36.88C660.11 36.4533 660.577 36.1133 661.123 35.86C661.67 35.6067 662.23 35.48 662.803 35.48C663.67 35.48 664.437 35.68 665.103 36.08C665.77 36.4667 666.29 37.0067 666.663 37.7C667.037 38.38 667.223 39.1867 667.223 40.12C667.223 41.16 667.01 42.0667 666.583 42.84C666.157 43.6 665.557 44.1867 664.783 44.6C664.01 45.0133 663.103 45.22 662.063 45.22Z" fill="#404040"/>
</g>
<defs>
<filter id="filter0_d_859_5660" x="33" y="102" width="1522" height="1042.67" filterUnits="userSpaceOnUse" color-interpolation-filters="sRGB">
<feFlood flood-opacity="0" result="BackgroundImageFix"/>
<feColorMatrix in="SourceAlpha" type="matrix" values="0 0 0 0 0 0 0 0 0 0 0 0 0 0 0 0 0 0 127 0" result="hardAlpha"/>
<feOffset dy="4"/>
<feGaussianBlur stdDeviation="2"/>
<feComposite in2="hardAlpha" operator="out"/>
<feColorMatrix type="matrix" values="0 0 0 0 0 0 0 0 0 0 0 0 0 0 0 0 0 0 0.25 0"/>
<feBlend mode="normal" in2="BackgroundImageFix" result="effect1_dropShadow_859_5660"/>
<feBlend mode="normal" in="SourceGraphic" in2="effect1_dropShadow_859_5660" result="shape"/>
</filter>
<clipPath id="clip0_859_5660">
<rect width="693" height="462" rx="8" fill="white"/>
</clipPath>
<clipPath id="clip1_859_5660">
<path d="M38 153.666H1550V1135.67H38V153.666Z" fill="white"/>
</clipPath>
<clipPath id="clip2_859_5660">
<rect width="16" height="16" fill="white" transform="translate(242 177.666)"/>
</clipPath>
<clipPath id="clip3_859_5660">
<rect width="16" height="16" fill="white" transform="translate(68 311.666)"/>
</clipPath>
<clipPath id="clip4_859_5660">
<rect width="238" height="646" fill="white" transform="translate(56 418.666)"/>
</clipPath>
<clipPath id="clip5_859_5660">
<rect width="1238" height="982" fill="white" transform="translate(312 153.666)"/>
</clipPath>
<clipPath id="clip6_859_5660">
<rect width="1238" height="922" fill="white" transform="translate(312 213.666)"/>
</clipPath>
<clipPath id="clip7_859_5660">
<rect width="768" height="930" fill="white" transform="translate(547 209.666)"/>
</clipPath>
</defs>
</svg>
