<svg width="525" height="350" viewBox="0 0 525 350" fill="none" xmlns="http://www.w3.org/2000/svg">
<g clip-path="url(#clip0_399_5710)">
<rect width="525" height="350" rx="8" fill="white"/>
<rect x="89.5" y="92.5" width="1513" height="1023.09" rx="8.5" stroke="#DDDDDD"/>
<g clip-path="url(#clip1_399_5710)">
<mask id="path-3-inside-1_399_5710" fill="white">
<path d="M90 133.095H1602V1115.09H90V133.095Z"/>
</mask>
<path d="M90 133.095H1602V1115.09H90V133.095Z" fill="white"/>
<rect width="262" height="982" transform="translate(90 133.095)" fill="#FCFCFC"/>
<rect x="98.25" y="143.345" width="245.5" height="961.5" rx="11.75" fill="#F5F5F5"/>
<rect x="98.25" y="143.345" width="245.5" height="961.5" rx="11.75" stroke="#D5D5D5" stroke-width="0.5"/>
<line x1="102" y1="194.845" x2="340" y2="194.845" stroke="#D5D5D5" stroke-width="0.5"/>
<path d="M121.77 207.169H120.461C118.804 207.169 117.461 208.512 117.461 210.169V217.095C117.461 218.752 118.804 220.095 120.461 220.095H127.387C129.044 220.095 130.387 218.752 130.387 217.095V215.786" stroke="#171717" stroke-width="1.5" stroke-linecap="round"/>
<path d="M124.259 216.116C123.913 216.463 123.452 216.67 122.962 216.699L121.37 216.792C121.071 216.81 120.824 216.562 120.841 216.264L120.935 214.671C120.964 214.182 121.171 213.72 121.517 213.374L126.425 208.466C127.182 207.709 128.41 207.709 129.168 208.466V208.466C129.925 209.223 129.925 210.451 129.168 211.208L124.259 216.116Z" stroke="#171717" stroke-width="1.5"/>
<path d="M151.307 208.913V219.095H150.114L144.565 211.1H144.466V219.095H143.233V208.913H144.426L149.994 216.927H150.094V208.913H151.307ZM156.775 219.254C156.039 219.254 155.404 219.091 154.87 218.767C154.34 218.438 153.931 217.981 153.642 217.394C153.357 216.804 153.215 216.118 153.215 215.336C153.215 214.554 153.357 213.865 153.642 213.268C153.931 212.668 154.332 212.201 154.846 211.866C155.363 211.528 155.966 211.359 156.655 211.359C157.053 211.359 157.446 211.425 157.834 211.558C158.221 211.69 158.574 211.906 158.892 212.204C159.211 212.499 159.464 212.89 159.653 213.377C159.842 213.865 159.937 214.464 159.937 215.177V215.674H154.05V214.66H158.743C158.743 214.229 158.657 213.845 158.485 213.507C158.316 213.169 158.074 212.902 157.759 212.706C157.447 212.511 157.08 212.413 156.655 212.413C156.188 212.413 155.784 212.529 155.442 212.761C155.104 212.99 154.844 213.288 154.662 213.656C154.479 214.024 154.388 214.418 154.388 214.839V215.515C154.388 216.092 154.488 216.581 154.687 216.982C154.889 217.379 155.169 217.683 155.527 217.892C155.885 218.097 156.301 218.2 156.775 218.2C157.083 218.2 157.361 218.157 157.61 218.071C157.862 217.981 158.079 217.848 158.261 217.673C158.443 217.494 158.584 217.272 158.684 217.007L159.817 217.325C159.698 217.709 159.497 218.047 159.216 218.339C158.934 218.627 158.586 218.853 158.172 219.015C157.757 219.174 157.292 219.254 156.775 219.254ZM163.409 219.095L161.083 211.458H162.316L163.966 217.305H164.046L165.676 211.458H166.929L168.54 217.285H168.62L170.27 211.458H171.503L169.176 219.095H168.023L166.353 213.228H166.233L164.563 219.095H163.409ZM185.26 212.095H184.027C183.954 211.74 183.827 211.429 183.644 211.16C183.465 210.892 183.247 210.666 182.988 210.484C182.733 210.298 182.449 210.159 182.138 210.066C181.826 209.973 181.502 209.927 181.163 209.927C180.547 209.927 179.989 210.083 179.488 210.394C178.991 210.706 178.595 211.165 178.3 211.772C178.008 212.378 177.862 213.122 177.862 214.004C177.862 214.885 178.008 215.629 178.3 216.236C178.595 216.843 178.991 217.302 179.488 217.613C179.989 217.925 180.547 218.08 181.163 218.08C181.502 218.08 181.826 218.034 182.138 217.941C182.449 217.848 182.733 217.711 182.988 217.529C183.247 217.343 183.465 217.116 183.644 216.848C183.827 216.576 183.954 216.264 184.027 215.913H185.26C185.167 216.433 184.998 216.899 184.753 217.31C184.508 217.721 184.203 218.071 183.838 218.359C183.474 218.644 183.064 218.861 182.61 219.01C182.159 219.159 181.677 219.234 181.163 219.234C180.295 219.234 179.523 219.022 178.847 218.598C178.171 218.173 177.639 217.57 177.251 216.788C176.863 216.006 176.669 215.078 176.669 214.004C176.669 212.93 176.863 212.002 177.251 211.22C177.639 210.437 178.171 209.834 178.847 209.41C179.523 208.986 180.295 208.774 181.163 208.774C181.677 208.774 182.159 208.848 182.61 208.997C183.064 209.147 183.474 209.365 183.838 209.654C184.203 209.939 184.508 210.287 184.753 210.698C184.998 211.105 185.167 211.571 185.26 212.095ZM188.225 214.501V219.095H187.051V208.913H188.225V212.652H188.324C188.503 212.257 188.772 211.944 189.129 211.712C189.491 211.477 189.971 211.359 190.571 211.359C191.092 211.359 191.547 211.463 191.938 211.672C192.33 211.878 192.633 212.194 192.848 212.622C193.067 213.046 193.176 213.586 193.176 214.242V219.095H192.003V214.322C192.003 213.715 191.846 213.246 191.531 212.915C191.219 212.58 190.787 212.413 190.233 212.413C189.849 212.413 189.504 212.494 189.199 212.656C188.897 212.819 188.659 213.056 188.483 213.367C188.311 213.679 188.225 214.057 188.225 214.501ZM197.528 219.274C197.044 219.274 196.605 219.183 196.211 219C195.816 218.815 195.503 218.548 195.271 218.2C195.039 217.848 194.923 217.424 194.923 216.927C194.923 216.49 195.009 216.135 195.181 215.863C195.354 215.588 195.584 215.373 195.872 215.217C196.161 215.061 196.479 214.945 196.827 214.869C197.178 214.789 197.531 214.726 197.886 214.68C198.35 214.62 198.726 214.576 199.015 214.546C199.306 214.513 199.518 214.458 199.651 214.382C199.787 214.305 199.855 214.173 199.855 213.984V213.944C199.855 213.454 199.72 213.072 199.452 212.801C199.187 212.529 198.784 212.393 198.244 212.393C197.684 212.393 197.245 212.516 196.926 212.761C196.608 213.006 196.385 213.268 196.255 213.546L195.142 213.149C195.341 212.685 195.606 212.323 195.937 212.065C196.272 211.803 196.636 211.621 197.031 211.518C197.429 211.412 197.82 211.359 198.204 211.359C198.449 211.359 198.731 211.389 199.049 211.448C199.371 211.505 199.681 211.622 199.979 211.801C200.281 211.98 200.531 212.25 200.73 212.612C200.929 212.973 201.028 213.457 201.028 214.063V219.095H199.855V218.061H199.795C199.716 218.226 199.583 218.404 199.397 218.593C199.212 218.781 198.965 218.942 198.657 219.075C198.348 219.207 197.972 219.274 197.528 219.274ZM197.707 218.22C198.171 218.22 198.562 218.129 198.88 217.946C199.202 217.764 199.444 217.529 199.606 217.24C199.772 216.952 199.855 216.649 199.855 216.33V215.257C199.805 215.316 199.696 215.371 199.527 215.421C199.361 215.467 199.169 215.509 198.95 215.545C198.734 215.578 198.524 215.608 198.318 215.634C198.116 215.658 197.952 215.678 197.826 215.694C197.521 215.734 197.236 215.799 196.971 215.888C196.709 215.974 196.497 216.105 196.335 216.281C196.176 216.453 196.096 216.688 196.096 216.987C196.096 217.394 196.247 217.703 196.549 217.911C196.854 218.117 197.24 218.22 197.707 218.22ZM206.449 211.458V212.453H202.491V211.458H206.449ZM203.645 209.629H204.818V216.907C204.818 217.239 204.866 217.487 204.962 217.653C205.061 217.815 205.187 217.925 205.34 217.981C205.496 218.034 205.66 218.061 205.832 218.061C205.961 218.061 206.067 218.054 206.15 218.041C206.233 218.024 206.299 218.011 206.349 218.001L206.588 219.055C206.508 219.085 206.397 219.115 206.255 219.144C206.112 219.178 205.931 219.194 205.713 219.194C205.381 219.194 205.056 219.123 204.738 218.98C204.423 218.838 204.162 218.621 203.953 218.329C203.747 218.037 203.645 217.67 203.645 217.225V209.629Z" fill="#171717"/>
<path d="M120.154 251.236C121.924 251.236 123.358 252.671 123.358 254.44C123.358 256.21 121.924 257.645 120.154 257.645C118.385 257.644 116.95 256.21 116.95 254.44C116.95 252.671 118.385 251.236 120.154 251.236ZM127.846 251.236C129.615 251.236 131.05 252.671 131.05 254.44C131.05 256.21 129.615 257.644 127.846 257.645C126.076 257.644 124.642 256.21 124.642 254.44C124.642 252.671 126.076 251.236 127.846 251.236ZM120.154 252.606C119.141 252.607 118.32 253.427 118.32 254.44L118.329 254.628C118.423 255.553 119.204 256.274 120.154 256.274C121.168 256.274 121.988 255.454 121.988 254.44L121.979 254.253C121.886 253.328 121.104 252.606 120.154 252.606ZM127.846 252.606C126.833 252.607 126.012 253.427 126.012 254.44C126.012 255.454 126.833 256.274 127.846 256.274C128.859 256.274 129.68 255.454 129.68 254.44C129.68 253.427 128.859 252.606 127.846 252.606ZM120.154 243.545C121.924 243.545 123.358 244.979 123.358 246.749C123.358 248.519 121.924 249.953 120.154 249.953C118.385 249.953 116.95 248.519 116.95 246.749C116.95 244.979 118.385 243.545 120.154 243.545ZM127.846 243.545C129.615 243.545 131.05 244.979 131.05 246.749C131.05 248.519 129.616 249.953 127.846 249.953C126.076 249.953 124.642 248.519 124.642 246.749C124.642 244.979 126.076 243.545 127.846 243.545ZM120.154 244.915C119.141 244.915 118.32 245.736 118.32 246.749C118.32 247.762 119.141 248.583 120.154 248.583C121.168 248.583 121.988 247.762 121.988 246.749C121.988 245.736 121.167 244.915 120.154 244.915ZM127.846 244.915C126.833 244.915 126.012 245.736 126.012 246.749C126.012 247.762 126.833 248.583 127.846 248.583C128.859 248.583 129.68 247.762 129.68 246.749C129.68 245.736 128.859 244.915 127.846 244.915Z" fill="#171717" stroke="#171717" stroke-width="0.1"/>
<path d="M150.193 249.095C150.084 248.76 149.94 248.46 149.761 248.195C149.585 247.926 149.375 247.698 149.129 247.509C148.887 247.32 148.612 247.176 148.304 247.076C147.996 246.977 147.658 246.927 147.29 246.927C146.687 246.927 146.138 247.083 145.644 247.394C145.15 247.706 144.758 248.165 144.466 248.772C144.174 249.378 144.028 250.122 144.028 251.004C144.028 251.885 144.176 252.629 144.471 253.236C144.766 253.843 145.165 254.302 145.669 254.613C146.173 254.925 146.74 255.08 147.369 255.08C147.953 255.08 148.466 254.956 148.911 254.708C149.358 254.456 149.706 254.101 149.955 253.644C150.206 253.183 150.332 252.641 150.332 252.018L150.71 252.098H147.648V251.004H151.526V252.098C151.526 252.936 151.347 253.665 150.989 254.285C150.634 254.905 150.143 255.385 149.517 255.727C148.894 256.065 148.178 256.234 147.369 256.234C146.468 256.234 145.676 256.022 144.993 255.598C144.313 255.173 143.783 254.57 143.402 253.788C143.024 253.006 142.835 252.078 142.835 251.004C142.835 250.198 142.943 249.474 143.158 248.831C143.377 248.185 143.685 247.635 144.083 247.181C144.481 246.727 144.951 246.379 145.495 246.137C146.039 245.895 146.637 245.774 147.29 245.774C147.827 245.774 148.327 245.855 148.791 246.017C149.259 246.176 149.674 246.403 150.039 246.698C150.407 246.99 150.714 247.34 150.959 247.747C151.204 248.152 151.373 248.601 151.466 249.095H150.193ZM153.595 256.095V245.913H157.036C157.834 245.913 158.487 246.057 158.994 246.345C159.505 246.63 159.883 247.017 160.128 247.504C160.373 247.991 160.496 248.535 160.496 249.134C160.496 249.734 160.373 250.28 160.128 250.77C159.886 251.261 159.511 251.652 159.004 251.943C158.497 252.232 157.848 252.376 157.055 252.376H154.59V251.282H157.016C157.563 251.282 158.002 251.188 158.333 250.999C158.665 250.81 158.905 250.555 159.054 250.233C159.207 249.908 159.283 249.542 159.283 249.134C159.283 248.727 159.207 248.362 159.054 248.041C158.905 247.719 158.663 247.467 158.328 247.285C157.993 247.099 157.549 247.007 156.996 247.007H154.828V256.095H153.595ZM161.883 247.007V245.913H169.52V247.007H166.318V256.095H165.085V247.007H161.883ZM175.591 250.169L174.537 250.467C174.471 250.291 174.373 250.121 174.244 249.955C174.118 249.786 173.946 249.647 173.727 249.537C173.508 249.428 173.228 249.373 172.887 249.373C172.419 249.373 172.03 249.481 171.718 249.696C171.41 249.908 171.256 250.179 171.256 250.507C171.256 250.798 171.362 251.029 171.574 251.198C171.786 251.367 172.118 251.508 172.569 251.62L173.702 251.899C174.385 252.064 174.894 252.318 175.228 252.659C175.563 252.997 175.731 253.433 175.731 253.967C175.731 254.404 175.605 254.795 175.353 255.14C175.104 255.485 174.756 255.757 174.309 255.955C173.861 256.154 173.341 256.254 172.748 256.254C171.969 256.254 171.324 256.085 170.814 255.747C170.303 255.409 169.98 254.915 169.844 254.265L170.958 253.987C171.064 254.398 171.264 254.706 171.559 254.911C171.858 255.117 172.247 255.22 172.728 255.22C173.275 255.22 173.709 255.104 174.03 254.872C174.355 254.636 174.517 254.355 174.517 254.027C174.517 253.761 174.425 253.539 174.239 253.36C174.053 253.178 173.768 253.042 173.384 252.953L172.111 252.654C171.412 252.489 170.898 252.232 170.57 251.884C170.245 251.532 170.083 251.093 170.083 250.566C170.083 250.135 170.204 249.754 170.446 249.423C170.691 249.091 171.024 248.831 171.445 248.642C171.869 248.453 172.35 248.359 172.887 248.359C173.642 248.359 174.236 248.525 174.667 248.856C175.101 249.187 175.409 249.625 175.591 250.169Z" fill="#171717"/>
<path d="M123.395 286.266C124.032 286.177 124.621 286.621 124.71 287.258C124.8 287.895 124.356 288.483 123.719 288.573C123.082 288.662 122.493 288.219 122.404 287.582C122.314 286.945 122.758 286.356 123.395 286.266Z" fill="#171717" stroke="#171717" stroke-width="0.1"/>
<path d="M124.292 283.636C124.653 283.621 124.987 283.64 125.308 283.734L125.444 283.777L125.446 283.778L125.652 283.863H125.654C126.074 284.055 126.442 284.346 126.727 284.71L126.843 284.871L126.844 284.872L126.919 284.991L126.92 284.993C127.088 285.282 127.186 285.6 127.259 285.954C127.341 286.351 127.401 286.847 127.476 287.456L127.784 289.965L127.883 290.795V290.796C127.909 291.046 127.929 291.271 127.938 291.474C127.952 291.835 127.933 292.169 127.84 292.489V292.491L127.796 292.624V292.626C127.614 293.125 127.298 293.562 126.885 293.891L126.884 293.893L126.704 294.024L126.702 294.025C126.382 294.24 126.023 294.357 125.619 294.441C125.42 294.482 125.197 294.517 124.948 294.552H124.947L124.118 294.657H124.117L121.608 294.966C121 295.041 120.504 295.103 120.1 295.119C119.739 295.134 119.405 295.115 119.084 295.022H119.082L118.949 294.978H118.947C118.449 294.796 118.011 294.479 117.683 294.067L117.681 294.066V294.065L117.55 293.886L117.549 293.884C117.333 293.564 117.216 293.205 117.133 292.801C117.112 292.702 117.093 292.596 117.074 292.484L117.021 292.129L116.916 291.3V291.299L116.607 288.79C116.533 288.182 116.471 287.686 116.454 287.281C116.437 286.869 116.464 286.492 116.596 286.129L116.597 286.127L116.682 285.921V285.919C116.901 285.439 117.25 285.027 117.689 284.731L117.69 284.73L117.81 284.654L117.812 284.653C118.1 284.485 118.419 284.388 118.772 284.315L119.089 284.256C119.424 284.201 119.818 284.154 120.274 284.098L122.783 283.789L123.613 283.691H123.614C123.864 283.664 124.089 283.644 124.292 283.636ZM120.925 290.379C120.646 290.339 120.36 290.374 120.098 290.482C119.964 290.536 119.813 290.636 119.584 290.856C119.349 291.08 119.071 291.391 118.669 291.843L118.335 292.217C118.354 292.335 118.372 292.443 118.393 292.541L118.444 292.759C118.497 292.95 118.552 293.071 118.614 293.163L118.689 293.266L118.836 293.426C118.993 293.575 119.18 293.692 119.386 293.768L119.503 293.802L119.606 293.82C119.719 293.835 119.859 293.841 120.046 293.833C120.386 293.819 120.822 293.766 121.452 293.689L123.961 293.382L124.771 293.277L124.877 293.261L122.682 291.504C122.209 291.126 121.883 290.866 121.613 290.684C121.416 290.55 121.273 290.476 121.155 290.434H121.154L121.044 290.401L120.925 290.379ZM124.346 284.922C124.176 284.929 123.981 284.945 123.751 284.97L122.939 285.067L120.431 285.374C119.801 285.451 119.366 285.505 119.032 285.574C118.788 285.625 118.629 285.678 118.513 285.736L118.512 285.735L118.408 285.796C118.165 285.96 117.973 286.189 117.853 286.454L117.805 286.571L117.804 286.57C117.753 286.71 117.727 286.897 117.74 287.228C117.754 287.568 117.807 288.004 117.885 288.634L118.116 290.531L118.241 290.394L118.476 290.144C118.551 290.066 118.624 289.993 118.694 289.926C118.98 289.652 119.267 289.431 119.611 289.29H119.613L119.815 289.216L119.817 289.215C120.303 289.059 120.823 289.034 121.323 289.146L121.324 289.147L121.456 289.179L121.458 289.18C121.767 289.27 122.047 289.424 122.334 289.618C122.656 289.836 123.028 290.135 123.484 290.5L126.258 292.718C126.4 292.564 126.514 292.385 126.587 292.186L126.621 292.067C126.649 291.941 126.661 291.775 126.651 291.527C126.644 291.358 126.627 291.164 126.603 290.934L126.507 290.121L126.2 287.612C126.123 286.982 126.068 286.548 125.999 286.214C125.949 285.969 125.895 285.811 125.837 285.694V285.693L125.776 285.59C125.613 285.348 125.386 285.156 125.121 285.035L125.002 284.986V284.985C124.862 284.935 124.676 284.909 124.346 284.922Z" fill="#171717" stroke="#171717" stroke-width="0.1"/>
<path d="M123.707 280.07C124.112 280.087 124.608 280.149 125.217 280.223L127.726 280.532L128.556 280.638L128.91 280.69C129.022 280.709 129.128 280.728 129.228 280.749C129.581 280.822 129.9 280.92 130.189 281.088L130.311 281.165L130.313 281.166L130.491 281.298L130.493 281.299C130.906 281.627 131.222 282.065 131.404 282.563L131.405 282.565L131.448 282.698V282.7C131.542 283.021 131.56 283.354 131.545 283.716C131.537 283.918 131.517 284.143 131.49 284.393V284.394L131.393 285.224L131.084 287.733C131.009 288.342 130.949 288.838 130.867 289.235C130.794 289.589 130.697 289.908 130.529 290.196L130.528 290.198L130.452 290.317L130.451 290.318C130.317 290.518 130.158 290.698 129.981 290.856L129.977 290.86L129.88 290.931L129.876 290.933C129.617 291.084 129.279 291.037 129.072 290.805C128.837 290.54 128.86 290.135 129.122 289.898L129.264 289.756C129.307 289.706 129.348 289.654 129.385 289.598L129.447 289.493C129.504 289.377 129.557 289.219 129.608 288.975C129.677 288.642 129.731 288.207 129.808 287.577L130.115 285.068L130.211 284.257L130.242 283.937C130.251 283.839 130.257 283.747 130.26 283.662C130.27 283.413 130.257 283.246 130.229 283.119V283.118L130.195 283.004C130.094 282.729 129.921 282.488 129.694 282.306L129.589 282.23V282.229C129.466 282.147 129.292 282.076 128.968 282.009C128.801 281.974 128.608 281.944 128.379 281.912V281.911L127.57 281.808L125.06 281.501C124.43 281.423 123.995 281.37 123.655 281.356C123.405 281.346 123.238 281.359 123.112 281.388L122.996 281.421L122.895 281.462C122.661 281.565 122.456 281.724 122.297 281.924L122.222 282.024L122.223 282.025C122.166 282.109 122.115 282.217 122.067 282.379L122.066 282.384L122.02 282.495L122.018 282.5C121.877 282.764 121.566 282.901 121.268 282.813C120.927 282.712 120.732 282.354 120.833 282.014L120.834 282.012L120.895 281.827V281.826C120.962 281.642 121.047 281.469 121.156 281.306L121.158 281.304L121.289 281.124L121.29 281.123H121.291C121.62 280.71 122.057 280.393 122.556 280.212H122.558L122.691 280.168H122.693C123.013 280.075 123.346 280.055 123.707 280.07Z" fill="#171717" stroke="#171717" stroke-width="0.1"/>
<path d="M143.233 293.095V282.913H144.466V292.001H149.199V293.095H143.233ZM150.907 293.095V285.458H152.08V293.095H150.907ZM151.503 284.186C151.275 284.186 151.078 284.108 150.912 283.952C150.749 283.796 150.668 283.609 150.668 283.39C150.668 283.171 150.749 282.984 150.912 282.828C151.078 282.673 151.275 282.595 151.503 282.595C151.732 282.595 151.928 282.673 152.09 282.828C152.256 282.984 152.339 283.171 152.339 283.39C152.339 283.609 152.256 283.796 152.09 283.952C151.928 284.108 151.732 284.186 151.503 284.186ZM154.346 293.095V282.913H155.52V286.671H155.619C155.705 286.539 155.824 286.37 155.977 286.164C156.133 285.955 156.355 285.77 156.643 285.607C156.935 285.442 157.329 285.359 157.826 285.359C158.469 285.359 159.036 285.52 159.527 285.841C160.017 286.163 160.4 286.618 160.675 287.208C160.95 287.798 161.088 288.494 161.088 289.296C161.088 290.105 160.95 290.806 160.675 291.399C160.4 291.989 160.019 292.447 159.532 292.772C159.044 293.093 158.483 293.254 157.846 293.254C157.356 293.254 156.963 293.173 156.668 293.01C156.373 292.844 156.146 292.657 155.987 292.448C155.828 292.236 155.705 292.061 155.619 291.921H155.48V293.095H154.346ZM155.5 289.277C155.5 289.853 155.584 290.362 155.753 290.803C155.922 291.24 156.169 291.583 156.494 291.832C156.819 292.077 157.216 292.2 157.687 292.2C158.178 292.2 158.587 292.071 158.915 291.812C159.247 291.55 159.495 291.199 159.661 290.758C159.83 290.314 159.914 289.82 159.914 289.277C159.914 288.74 159.832 288.256 159.666 287.825C159.503 287.391 159.256 287.048 158.925 286.796C158.597 286.54 158.184 286.413 157.687 286.413C157.21 286.413 156.809 286.534 156.484 286.776C156.159 287.014 155.914 287.349 155.748 287.78C155.582 288.208 155.5 288.706 155.5 289.277ZM162.84 293.095V285.458H163.974V286.612H164.054C164.193 286.234 164.445 285.927 164.809 285.692C165.174 285.457 165.585 285.339 166.042 285.339C166.128 285.339 166.236 285.341 166.365 285.344C166.495 285.347 166.592 285.352 166.659 285.359V286.552C166.619 286.542 166.528 286.527 166.385 286.507C166.246 286.484 166.098 286.473 165.943 286.473C165.572 286.473 165.24 286.55 164.948 286.706C164.66 286.859 164.431 287.071 164.262 287.343C164.097 287.611 164.014 287.918 164.014 288.262V293.095H162.84ZM170.255 293.274C169.771 293.274 169.332 293.183 168.937 293C168.543 292.815 168.229 292.548 167.997 292.2C167.765 291.848 167.649 291.424 167.649 290.927C167.649 290.49 167.736 290.135 167.908 289.863C168.08 289.588 168.311 289.373 168.599 289.217C168.887 289.061 169.206 288.945 169.554 288.869C169.905 288.789 170.258 288.726 170.613 288.68C171.077 288.62 171.453 288.576 171.741 288.546C172.033 288.513 172.245 288.458 172.377 288.382C172.513 288.305 172.581 288.173 172.581 287.984V287.944C172.581 287.454 172.447 287.072 172.179 286.801C171.913 286.529 171.511 286.393 170.97 286.393C170.41 286.393 169.971 286.516 169.653 286.761C169.335 287.006 169.111 287.268 168.982 287.546L167.868 287.149C168.067 286.685 168.332 286.323 168.664 286.065C168.998 285.803 169.363 285.621 169.757 285.518C170.155 285.412 170.546 285.359 170.931 285.359C171.176 285.359 171.458 285.389 171.776 285.448C172.097 285.505 172.407 285.622 172.706 285.801C173.007 285.98 173.257 286.25 173.456 286.612C173.655 286.973 173.755 287.457 173.755 288.063V293.095H172.581V292.061H172.522C172.442 292.226 172.31 292.404 172.124 292.593C171.938 292.781 171.691 292.942 171.383 293.075C171.075 293.207 170.699 293.274 170.255 293.274ZM170.434 292.22C170.898 292.22 171.289 292.129 171.607 291.946C171.928 291.764 172.17 291.529 172.333 291.24C172.498 290.952 172.581 290.649 172.581 290.33V289.257C172.532 289.316 172.422 289.371 172.253 289.421C172.087 289.467 171.895 289.509 171.676 289.545C171.461 289.578 171.251 289.608 171.045 289.634C170.843 289.658 170.679 289.678 170.553 289.694C170.248 289.734 169.963 289.799 169.698 289.888C169.436 289.974 169.224 290.105 169.061 290.281C168.902 290.453 168.823 290.688 168.823 290.987C168.823 291.394 168.974 291.703 169.275 291.911C169.58 292.117 169.966 292.22 170.434 292.22ZM175.854 293.095V285.458H176.988V286.612H177.067C177.206 286.234 177.458 285.927 177.823 285.692C178.187 285.457 178.598 285.339 179.056 285.339C179.142 285.339 179.25 285.341 179.379 285.344C179.508 285.347 179.606 285.352 179.672 285.359V286.552C179.633 286.542 179.541 286.527 179.399 286.507C179.26 286.484 179.112 286.473 178.956 286.473C178.585 286.473 178.254 286.55 177.962 286.706C177.674 286.859 177.445 287.071 177.276 287.343C177.11 287.611 177.027 287.918 177.027 288.262V293.095H175.854ZM182.009 295.958C181.81 295.958 181.633 295.942 181.477 295.909C181.321 295.879 181.214 295.849 181.154 295.819L181.452 294.785C181.737 294.858 181.989 294.884 182.208 294.865C182.427 294.845 182.621 294.747 182.79 294.571C182.962 294.399 183.12 294.119 183.262 293.731L183.481 293.134L180.657 285.458H181.93L184.038 291.544H184.117L186.225 285.458H187.498L184.256 294.208C184.111 294.603 183.93 294.929 183.714 295.188C183.499 295.45 183.249 295.643 182.964 295.769C182.682 295.895 182.364 295.958 182.009 295.958Z" fill="#171717"/>
<path d="M130 317.545C130.856 317.545 131.55 318.27 131.55 319.155V327.763C131.55 328.593 130.94 329.282 130.158 329.364L130 329.372H126.258L124.82 331.236C124.62 331.496 124.321 331.645 124 331.645C123.679 331.645 123.38 331.496 123.18 331.236L121.742 329.372H118C117.144 329.372 116.45 328.647 116.45 327.762V319.154C116.45 318.269 117.144 317.545 118 317.545H130ZM118 318.685C117.753 318.685 117.55 318.893 117.55 319.154V327.762C117.55 328.023 117.753 328.231 118 328.231H122.008C122.175 328.232 122.332 328.311 122.437 328.446L123.999 330.473L125.562 328.447C125.667 328.312 125.824 328.232 125.992 328.232H130C130.247 328.232 130.45 328.023 130.45 327.763V319.154C130.45 318.893 130.247 318.685 130 318.685H118Z" fill="#171717" stroke="#171717" stroke-width="0.1"/>
<path d="M120.761 322.011C120.942 321.789 121.258 321.77 121.463 321.965L123.384 323.804H123.385C123.49 323.906 123.55 324.05 123.55 324.202C123.55 324.353 123.49 324.497 123.385 324.598L123.384 324.599L121.463 326.437L121.464 326.438C121.37 326.528 121.252 326.573 121.134 326.573C120.996 326.573 120.859 326.511 120.762 326.392C120.582 326.172 120.601 325.838 120.804 325.643L122.309 324.202L120.804 322.76L120.803 322.759C120.6 322.564 120.582 322.231 120.761 322.011Z" fill="#171717" stroke="#171717" stroke-width="0.1"/>
<path d="M126.704 325.545C127.026 325.545 127.3 325.768 127.3 326.059C127.3 326.35 127.025 326.573 126.704 326.573H124.046C123.725 326.573 123.45 326.35 123.45 326.059C123.45 325.767 123.725 325.545 124.046 325.545H126.704Z" fill="#171717" stroke="#171717" stroke-width="0.1"/>
<path d="M143.233 330.095V319.913H146.673C147.472 319.913 148.125 320.057 148.632 320.345C149.143 320.63 149.52 321.017 149.766 321.504C150.011 321.991 150.134 322.535 150.134 323.134C150.134 323.734 150.011 324.28 149.766 324.77C149.524 325.261 149.149 325.652 148.642 325.943C148.135 326.232 147.485 326.376 146.693 326.376H144.227V325.282H146.653C147.2 325.282 147.639 325.188 147.971 324.999C148.302 324.81 148.543 324.555 148.692 324.233C148.844 323.908 148.92 323.542 148.92 323.134C148.92 322.727 148.844 322.362 148.692 322.041C148.543 321.719 148.301 321.467 147.966 321.285C147.631 321.099 147.187 321.007 146.634 321.007H144.466V330.095H143.233ZM151.919 330.095V322.458H153.052V323.612H153.132C153.271 323.234 153.523 322.927 153.887 322.692C154.252 322.457 154.663 322.339 155.12 322.339C155.206 322.339 155.314 322.341 155.443 322.344C155.573 322.347 155.67 322.352 155.737 322.359V323.552C155.697 323.542 155.606 323.527 155.463 323.507C155.324 323.484 155.177 323.473 155.021 323.473C154.65 323.473 154.318 323.55 154.027 323.706C153.738 323.859 153.509 324.071 153.34 324.343C153.175 324.611 153.092 324.918 153.092 325.262V330.095H151.919ZM159.955 330.254C159.266 330.254 158.661 330.09 158.141 329.762C157.624 329.433 157.219 328.974 156.928 328.384C156.639 327.795 156.495 327.105 156.495 326.316C156.495 325.521 156.639 324.826 156.928 324.233C157.219 323.64 157.624 323.179 158.141 322.851C158.661 322.523 159.266 322.359 159.955 322.359C160.645 322.359 161.248 322.523 161.765 322.851C162.285 323.179 162.69 323.64 162.978 324.233C163.27 324.826 163.416 325.521 163.416 326.316C163.416 327.105 163.27 327.795 162.978 328.384C162.69 328.974 162.285 329.433 161.765 329.762C161.248 330.09 160.645 330.254 159.955 330.254ZM159.955 329.2C160.479 329.2 160.91 329.066 161.248 328.797C161.586 328.529 161.836 328.176 161.999 327.738C162.161 327.301 162.242 326.827 162.242 326.316C162.242 325.806 162.161 325.33 161.999 324.889C161.836 324.449 161.586 324.092 161.248 323.821C160.91 323.549 160.479 323.413 159.955 323.413C159.432 323.413 159.001 323.549 158.663 323.821C158.325 324.092 158.074 324.449 157.912 324.889C157.75 325.33 157.668 325.806 157.668 326.316C157.668 326.827 157.75 327.301 157.912 327.738C158.074 328.176 158.325 328.529 158.663 328.797C159.001 329.066 159.432 329.2 159.955 329.2ZM165.165 330.095V322.458H166.298V323.652H166.398C166.557 323.244 166.814 322.927 167.168 322.702C167.523 322.473 167.949 322.359 168.446 322.359C168.95 322.359 169.369 322.473 169.704 322.702C170.042 322.927 170.305 323.244 170.494 323.652H170.574C170.769 323.257 171.063 322.944 171.454 322.712C171.845 322.477 172.314 322.359 172.861 322.359C173.543 322.359 174.102 322.573 174.536 323C174.97 323.424 175.187 324.086 175.187 324.984V330.095H174.014V324.984C174.014 324.42 173.86 324.018 173.552 323.776C173.243 323.534 172.881 323.413 172.463 323.413C171.926 323.413 171.51 323.575 171.215 323.9C170.92 324.222 170.773 324.629 170.773 325.123V330.095H169.579V324.865C169.579 324.43 169.439 324.081 169.157 323.816C168.875 323.547 168.512 323.413 168.068 323.413C167.763 323.413 167.478 323.494 167.213 323.656C166.951 323.819 166.739 324.044 166.577 324.333C166.418 324.618 166.338 324.947 166.338 325.322V330.095H165.165ZM177.291 332.958V322.458H178.424V323.671H178.563C178.65 323.539 178.769 323.37 178.921 323.164C179.077 322.955 179.299 322.77 179.588 322.607C179.879 322.442 180.274 322.359 180.771 322.359C181.414 322.359 181.98 322.52 182.471 322.841C182.962 323.163 183.344 323.618 183.619 324.208C183.895 324.798 184.032 325.494 184.032 326.296C184.032 327.105 183.895 327.806 183.619 328.399C183.344 328.989 182.963 329.447 182.476 329.772C181.989 330.093 181.427 330.254 180.791 330.254C180.3 330.254 179.907 330.173 179.612 330.01C179.317 329.844 179.09 329.657 178.931 329.448C178.772 329.236 178.65 329.061 178.563 328.921H178.464V332.958H177.291ZM178.444 326.277C178.444 326.853 178.529 327.362 178.698 327.803C178.867 328.24 179.114 328.583 179.438 328.832C179.763 329.077 180.161 329.2 180.632 329.2C181.122 329.2 181.531 329.071 181.86 328.812C182.191 328.55 182.44 328.199 182.605 327.758C182.774 327.314 182.859 326.82 182.859 326.277C182.859 325.74 182.776 325.256 182.61 324.825C182.448 324.391 182.201 324.048 181.869 323.796C181.541 323.54 181.129 323.413 180.632 323.413C180.154 323.413 179.753 323.534 179.428 323.776C179.104 324.014 178.858 324.349 178.693 324.78C178.527 325.208 178.444 325.706 178.444 326.277ZM189.101 322.458V323.453H185.144V322.458H189.101ZM186.297 320.629H187.47V327.907C187.47 328.239 187.518 328.487 187.614 328.653C187.714 328.815 187.84 328.925 187.992 328.981C188.148 329.034 188.312 329.061 188.484 329.061C188.614 329.061 188.72 329.054 188.803 329.041C188.885 329.024 188.952 329.011 189.001 329.001L189.24 330.055C189.161 330.085 189.05 330.115 188.907 330.144C188.764 330.178 188.584 330.194 188.365 330.194C188.034 330.194 187.709 330.123 187.391 329.98C187.076 329.838 186.814 329.621 186.605 329.329C186.4 329.037 186.297 328.67 186.297 328.225V320.629ZM196.096 324.169L195.042 324.467C194.976 324.291 194.878 324.121 194.749 323.955C194.623 323.786 194.451 323.647 194.232 323.537C194.013 323.428 193.733 323.373 193.392 323.373C192.924 323.373 192.535 323.481 192.223 323.696C191.915 323.908 191.761 324.179 191.761 324.507C191.761 324.798 191.867 325.029 192.079 325.198C192.291 325.367 192.623 325.508 193.073 325.62L194.207 325.899C194.89 326.064 195.399 326.318 195.733 326.659C196.068 326.997 196.235 327.433 196.235 327.967C196.235 328.404 196.109 328.795 195.858 329.14C195.609 329.485 195.261 329.757 194.814 329.955C194.366 330.154 193.846 330.254 193.252 330.254C192.474 330.254 191.829 330.085 191.318 329.747C190.808 329.409 190.485 328.915 190.349 328.265L191.463 327.987C191.569 328.398 191.769 328.706 192.064 328.911C192.363 329.117 192.752 329.22 193.233 329.22C193.779 329.22 194.214 329.104 194.535 328.872C194.86 328.636 195.022 328.355 195.022 328.027C195.022 327.761 194.93 327.539 194.744 327.36C194.558 327.178 194.273 327.042 193.889 326.953L192.616 326.654C191.917 326.489 191.403 326.232 191.075 325.884C190.75 325.532 190.588 325.093 190.588 324.566C190.588 324.135 190.709 323.754 190.951 323.423C191.196 323.091 191.529 322.831 191.95 322.642C192.374 322.453 192.855 322.359 193.392 322.359C194.147 322.359 194.741 322.525 195.171 322.856C195.606 323.187 195.914 323.625 196.096 324.169Z" fill="#171717"/>
<g opacity="0.9">
<path d="M131.818 165.279C132.022 164.605 132.092 163.892 132.025 163.186C131.957 162.481 131.753 161.799 131.426 161.187C130.94 160.261 130.2 159.528 129.31 159.094C128.421 158.66 127.428 158.546 126.476 158.77C125.935 158.11 125.245 157.618 124.476 157.344C123.707 157.069 122.885 157.021 122.093 157.204C121.301 157.387 120.568 157.796 119.966 158.388C119.364 158.981 118.914 159.736 118.663 160.579C118.029 160.722 117.429 161.011 116.905 161.428C116.381 161.845 115.944 162.379 115.623 162.996C115.133 163.92 114.923 164.991 115.025 166.054C115.126 167.117 115.534 168.117 116.188 168.91C115.983 169.583 115.912 170.296 115.979 171.002C116.046 171.708 116.25 172.39 116.577 173.002C117.062 173.928 117.804 174.661 118.694 175.095C119.584 175.53 120.577 175.643 121.53 175.419C121.96 175.949 122.488 176.373 123.079 176.662C123.67 176.951 124.311 177.099 124.958 177.095C125.934 177.096 126.885 176.757 127.674 176.127C128.463 175.497 129.048 174.608 129.346 173.59C129.981 173.447 130.58 173.158 131.104 172.741C131.628 172.324 132.065 171.79 132.386 171.173C132.871 170.25 133.077 169.184 132.974 168.125C132.872 167.066 132.467 166.07 131.818 165.279ZM124.958 175.786C124.159 175.787 123.384 175.48 122.771 174.918L122.879 174.851L126.512 172.553C126.602 172.495 126.677 172.412 126.73 172.312C126.782 172.213 126.81 172.1 126.81 171.985V166.371L128.346 167.345C128.354 167.349 128.361 167.355 128.366 167.363C128.371 167.37 128.374 167.379 128.375 167.388V172.04C128.373 173.033 128.013 173.984 127.372 174.686C126.732 175.388 125.864 175.784 124.958 175.786ZM117.613 172.348C117.212 171.589 117.068 170.7 117.206 169.836L117.314 169.907L120.951 172.206C121.041 172.264 121.143 172.294 121.248 172.294C121.352 172.294 121.454 172.264 121.544 172.206L125.987 169.399V171.342C125.986 171.353 125.984 171.362 125.979 171.371C125.975 171.38 125.969 171.388 125.962 171.394L122.282 173.72C121.496 174.216 120.564 174.35 119.688 174.092C118.813 173.835 118.066 173.208 117.613 172.348ZM116.656 163.674C117.059 162.911 117.697 162.328 118.454 162.03V166.761C118.453 166.876 118.48 166.988 118.532 167.087C118.583 167.187 118.659 167.269 118.749 167.325L123.17 170.12L121.634 171.094C121.626 171.099 121.617 171.101 121.607 171.101C121.598 171.101 121.589 171.099 121.58 171.094L117.908 168.772C117.124 168.274 116.552 167.456 116.317 166.497C116.083 165.538 116.204 164.516 116.656 163.655V163.674ZM129.274 166.887L124.839 164.065L126.372 163.095C126.38 163.09 126.389 163.087 126.399 163.087C126.408 163.087 126.417 163.09 126.426 163.095L130.098 165.421C130.66 165.776 131.118 166.299 131.418 166.928C131.719 167.558 131.85 168.268 131.796 168.976C131.742 169.684 131.505 170.361 131.114 170.927C130.722 171.494 130.191 171.926 129.584 172.174V167.443C129.581 167.329 129.55 167.218 129.496 167.12C129.442 167.023 129.366 166.943 129.274 166.887ZM130.803 164.368L130.695 164.297L127.066 161.979C126.975 161.921 126.872 161.89 126.767 161.89C126.662 161.89 126.559 161.921 126.469 161.979L122.03 164.786V162.842C122.029 162.833 122.031 162.823 122.034 162.814C122.038 162.805 122.044 162.797 122.052 162.791L125.724 160.469C126.287 160.114 126.931 159.941 127.58 159.972C128.229 160.003 128.856 160.235 129.389 160.643C129.922 161.05 130.338 161.615 130.588 162.272C130.839 162.929 130.913 163.651 130.803 164.352L130.803 164.368ZM121.192 167.814L119.656 166.844C119.648 166.839 119.642 166.832 119.637 166.824C119.632 166.816 119.628 166.806 119.627 166.797V162.156C119.628 161.445 119.814 160.748 120.162 160.147C120.511 159.547 121.009 159.068 121.597 158.766C122.185 158.464 122.84 158.352 123.484 158.443C124.128 158.533 124.736 158.823 125.235 159.278L125.127 159.345L121.494 161.644C121.404 161.702 121.328 161.785 121.276 161.884C121.224 161.984 121.196 162.097 121.195 162.212L121.192 167.814ZM122.026 165.843L124.005 164.593L125.987 165.843V168.342L124.012 169.592L122.03 168.342L122.026 165.843Z" fill="#171717"/>
</g>
<g opacity="0.9">
<g clip-path="url(#clip2_399_5710)">
<path d="M285.297 173.297L282.497 170.526C284.622 167.881 284.422 163.987 281.998 161.566C280.723 160.294 279.048 159.595 277.249 159.595C275.449 159.595 273.749 160.294 272.475 161.566C271.2 162.839 270.5 164.512 270.5 166.333C270.5 168.155 271.2 169.828 272.475 171.101C273.749 172.348 275.424 173.072 277.249 173.072C278.773 173.072 280.273 172.548 281.448 171.6L284.222 174.37C284.372 174.52 284.547 174.595 284.747 174.595C284.947 174.595 285.147 174.52 285.272 174.37C285.572 174.071 285.572 173.596 285.297 173.297ZM282.497 166.333C282.497 167.731 281.948 169.054 280.948 170.027C279.948 171.001 278.648 171.575 277.249 171.575C275.849 171.575 274.524 171.026 273.549 170.027C272.575 169.029 272 167.731 272 166.333C272 164.936 272.55 163.613 273.549 162.64C274.549 161.666 275.824 161.092 277.249 161.092C278.648 161.092 279.973 161.641 280.948 162.64C281.923 163.638 282.497 164.911 282.497 166.333Z" fill="#171717"/>
</g>
</g>
<g opacity="0.9">
<path d="M317 164.095H318" stroke="#171717" stroke-width="1.5" stroke-linecap="round"/>
<path d="M317 167.095H318" stroke="#171717" stroke-width="1.5" stroke-linecap="round"/>
<path d="M321 160.095V174.095" stroke="#171717" stroke-width="1.5"/>
<rect x="314" y="160.095" width="16" height="14" rx="4" stroke="#171717" stroke-width="1.5"/>
</g>
<g clip-path="url(#clip3_399_5710)">
<rect width="1250" height="60" transform="translate(352 133.095)" fill="#FCFCFC"/>
<g opacity="0.9">
<path d="M385.466 160.095H383.705C383.6 159.588 383.418 159.143 383.158 158.759C382.902 158.376 382.589 158.054 382.22 157.794C381.856 157.528 381.451 157.33 381.006 157.197C380.561 157.064 380.097 156.998 379.614 156.998C378.733 156.998 377.935 157.221 377.22 157.666C376.51 158.111 375.944 158.767 375.523 159.633C375.106 160.5 374.898 161.562 374.898 162.822C374.898 164.081 375.106 165.144 375.523 166.011C375.944 166.877 376.51 167.533 377.22 167.978C377.935 168.423 378.733 168.646 379.614 168.646C380.097 168.646 380.561 168.58 381.006 168.447C381.451 168.314 381.856 168.118 382.22 167.857C382.589 167.592 382.902 167.268 383.158 166.884C383.418 166.496 383.6 166.051 383.705 165.549H385.466C385.333 166.293 385.092 166.958 384.741 167.545C384.391 168.132 383.955 168.632 383.435 169.044C382.914 169.451 382.329 169.761 381.68 169.974C381.036 170.187 380.348 170.294 379.614 170.294C378.373 170.294 377.27 169.991 376.304 169.384C375.338 168.778 374.578 167.917 374.024 166.799C373.47 165.682 373.193 164.356 373.193 162.822C373.193 161.288 373.47 159.962 374.024 158.845C374.578 157.727 375.338 156.866 376.304 156.259C377.27 155.653 378.373 155.35 379.614 155.35C380.348 155.35 381.036 155.457 381.68 155.67C382.329 155.883 382.914 156.196 383.435 156.607C383.955 157.015 384.391 157.512 384.741 158.099C385.092 158.681 385.333 159.347 385.466 160.095ZM389.701 163.532V170.095H388.025V155.549H389.701V160.89H389.843C390.099 160.327 390.482 159.879 390.994 159.548C391.51 159.212 392.196 159.044 393.053 159.044C393.797 159.044 394.448 159.193 395.006 159.491C395.565 159.785 395.998 160.237 396.306 160.848C396.619 161.454 396.775 162.225 396.775 163.163V170.095H395.099V163.277C395.099 162.41 394.874 161.74 394.424 161.267C393.979 160.788 393.361 160.549 392.57 160.549C392.021 160.549 391.529 160.665 391.093 160.897C390.662 161.129 390.321 161.468 390.07 161.913C389.824 162.358 389.701 162.898 389.701 163.532ZM402.992 170.35C402.3 170.35 401.673 170.22 401.109 169.96C400.546 169.695 400.099 169.313 399.767 168.816C399.436 168.314 399.27 167.708 399.27 166.998C399.27 166.373 399.393 165.866 399.639 165.478C399.885 165.085 400.215 164.777 400.626 164.555C401.038 164.332 401.493 164.167 401.99 164.058C402.492 163.944 402.996 163.854 403.503 163.788C404.166 163.703 404.703 163.639 405.115 163.596C405.532 163.549 405.835 163.471 406.024 163.362C406.218 163.253 406.315 163.063 406.315 162.794V162.737C406.315 162.036 406.124 161.491 405.74 161.103C405.361 160.715 404.786 160.521 404.014 160.521C403.214 160.521 402.587 160.696 402.132 161.046C401.678 161.397 401.358 161.771 401.173 162.169L399.582 161.6C399.867 160.937 400.245 160.421 400.719 160.052C401.197 159.678 401.718 159.418 402.281 159.271C402.849 159.119 403.408 159.044 403.957 159.044C404.308 159.044 404.71 159.086 405.165 159.171C405.624 159.252 406.067 159.42 406.493 159.676C406.924 159.931 407.281 160.317 407.565 160.833C407.849 161.349 407.992 162.041 407.992 162.907V170.095H406.315V168.617H406.23C406.117 168.854 405.927 169.107 405.662 169.377C405.397 169.647 405.044 169.877 404.604 170.066C404.163 170.256 403.626 170.35 402.992 170.35ZM403.247 168.845C403.91 168.845 404.469 168.714 404.923 168.454C405.383 168.194 405.728 167.857 405.96 167.446C406.197 167.034 406.315 166.6 406.315 166.146V164.612C406.244 164.697 406.088 164.775 405.847 164.846C405.61 164.912 405.335 164.972 405.023 165.024C404.715 165.071 404.414 165.114 404.121 165.152C403.832 165.185 403.598 165.213 403.418 165.237C402.982 165.294 402.575 165.386 402.196 165.514C401.822 165.637 401.519 165.824 401.287 166.075C401.06 166.321 400.946 166.657 400.946 167.083C400.946 167.666 401.161 168.106 401.592 168.404C402.028 168.698 402.58 168.845 403.247 168.845ZM415.735 159.186V160.606H410.082V159.186H415.735ZM411.729 156.572H413.406V166.97C413.406 167.443 413.474 167.798 413.612 168.035C413.754 168.267 413.934 168.423 414.151 168.504C414.374 168.58 414.608 168.617 414.854 168.617C415.039 168.617 415.191 168.608 415.309 168.589C415.427 168.565 415.522 168.546 415.593 168.532L415.934 170.038C415.82 170.08 415.662 170.123 415.458 170.166C415.255 170.213 414.996 170.237 414.684 170.237C414.211 170.237 413.746 170.135 413.292 169.931C412.842 169.728 412.468 169.418 412.17 169.001C411.876 168.584 411.729 168.059 411.729 167.424V156.572ZM428.367 160.095C428.211 159.616 428.005 159.188 427.749 158.809C427.498 158.426 427.197 158.099 426.847 157.829C426.501 157.559 426.108 157.353 425.668 157.211C425.228 157.069 424.745 156.998 424.219 156.998C423.357 156.998 422.574 157.221 421.868 157.666C421.163 158.111 420.602 158.767 420.185 159.633C419.768 160.5 419.56 161.562 419.56 162.822C419.56 164.081 419.771 165.144 420.192 166.011C420.614 166.877 421.184 167.533 421.904 167.978C422.624 168.423 423.433 168.646 424.333 168.646C425.166 168.646 425.9 168.468 426.535 168.113C427.174 167.753 427.671 167.247 428.026 166.593C428.386 165.935 428.566 165.161 428.566 164.271L429.106 164.384H424.731V162.822H430.27V164.384C430.27 165.582 430.015 166.624 429.503 167.509C428.997 168.395 428.296 169.081 427.401 169.569C426.511 170.052 425.488 170.294 424.333 170.294C423.045 170.294 421.913 169.991 420.938 169.384C419.967 168.778 419.21 167.917 418.665 166.799C418.125 165.682 417.856 164.356 417.856 162.822C417.856 161.671 418.009 160.637 418.317 159.718C418.63 158.795 419.07 158.009 419.638 157.36C420.206 156.712 420.879 156.214 421.655 155.869C422.432 155.523 423.286 155.35 424.219 155.35C424.986 155.35 425.701 155.466 426.364 155.698C427.032 155.926 427.626 156.25 428.147 156.671C428.672 157.088 429.11 157.588 429.461 158.17C429.811 158.748 430.052 159.389 430.185 160.095H428.367ZM433.227 170.095V155.549H438.142C439.283 155.549 440.216 155.755 440.94 156.167C441.669 156.574 442.209 157.126 442.559 157.822C442.91 158.518 443.085 159.294 443.085 160.152C443.085 161.009 442.91 161.787 442.559 162.488C442.214 163.189 441.679 163.748 440.954 164.164C440.23 164.576 439.302 164.782 438.17 164.782H434.647V163.22H438.113C438.895 163.22 439.522 163.085 439.995 162.815C440.469 162.545 440.812 162.18 441.025 161.721C441.243 161.257 441.352 160.734 441.352 160.152C441.352 159.569 441.243 159.048 441.025 158.589C440.812 158.13 440.467 157.77 439.988 157.509C439.51 157.244 438.876 157.112 438.085 157.112H434.988V170.095H433.227ZM445.067 157.112V155.549H455.976V157.112H451.402V170.095H449.641V157.112H445.067Z" fill="#404040"/>
</g>
<g clip-path="url(#clip4_399_5710)">
<rect width="1250" height="930" transform="translate(352 193.095)" fill="#FCFCFC"/>
</g>
</g>
</g>
<path d="M90 133.095V134.095H1602V133.095V132.095H90V133.095Z" fill="#D5D5D5" mask="url(#path-3-inside-1_399_5710)"/>
<path d="M1298.75 92.5C1300.93 92.5 1302.6 92.4995 1303.93 92.6074C1305.26 92.7157 1306.3 92.9358 1307.22 93.4004L1307.51 93.5547C1308.95 94.3525 1310.12 95.5557 1310.87 97.0156L1310.87 97.0166C1311.33 97.9301 1311.55 98.9631 1311.66 100.29C1311.77 101.611 1311.77 103.267 1311.77 105.436V133.916H89.5385V105.436C89.5385 103.268 89.5381 101.611 89.6469 100.29C89.7561 98.9628 89.9785 97.9295 90.4476 97.0156C91.2463 95.4588 92.5206 94.194 94.0873 93.4014C95.0066 92.9364 96.0462 92.7158 97.3822 92.6074C98.7124 92.4995 100.38 92.5 102.564 92.5H1298.75Z" fill="#FDFDFD" stroke="#D5D5D5"/>
<mask id="mask0_399_5710" style="mask-type:luminance" maskUnits="userSpaceOnUse" x="164" y="102" width="79" height="21">
<path d="M242.416 102.605V122.258H164.698V102.605H242.416Z" fill="white" stroke="white"/>
</mask>
<g mask="url(#mask0_399_5710)">
<path d="M180.016 106.492C180.801 106.492 181.483 106.694 181.967 107.169C182.453 107.646 182.661 108.32 182.661 109.096V116.947C182.661 117.723 182.453 118.396 181.967 118.873C181.483 119.348 180.801 119.551 180.016 119.551H168.898C168.115 119.551 167.434 119.349 166.951 118.873C166.466 118.396 166.259 117.722 166.259 116.947V109.096C166.259 108.318 166.466 107.643 166.952 107.167C167.436 106.692 168.116 106.492 168.898 106.492H180.016ZM168.553 116.831C168.553 117.059 168.613 117.146 168.645 117.178C168.679 117.211 168.765 117.266 168.981 117.266H171.445V114.19C171.275 114.441 170.985 114.601 170.671 114.602H169.338C169.017 114.601 168.721 114.433 168.553 114.172V116.831ZM173.673 117.266H179.931C180.149 117.266 180.235 117.211 180.269 117.178C180.301 117.146 180.361 117.059 180.361 116.831V109.212C180.361 108.983 180.301 108.897 180.269 108.865C180.236 108.832 180.149 108.776 179.931 108.776H173.673V117.266ZM168.553 113.208C168.67 113.028 168.849 112.893 169.053 112.827C168.846 112.759 168.669 112.62 168.553 112.438V113.208ZM171.445 112.458C171.329 112.63 171.156 112.762 170.956 112.827C171.154 112.891 171.328 113.019 171.445 113.19V112.458ZM168.553 111.472C168.668 111.293 168.843 111.156 169.047 111.088C168.842 111.019 168.668 110.88 168.553 110.701V111.472ZM171.445 110.72C171.33 110.89 171.16 111.021 170.962 111.088C171.159 111.153 171.33 111.283 171.445 111.453V110.72ZM168.981 108.776C168.765 108.776 168.679 108.832 168.645 108.865C168.613 108.897 168.553 108.983 168.553 109.212V109.736C168.72 109.477 169.015 109.305 169.338 109.305H170.671C170.988 109.305 171.276 109.469 171.445 109.718V108.776H168.981Z" fill="#717171" stroke="#D5D5D5"/>
<path d="M207.504 106.879C208.184 106.879 208.732 107.413 208.732 108.096C208.732 108.427 208.596 108.742 208.363 108.973L208.36 108.978L208.012 108.618L208.359 108.978L204.449 112.759L208.36 116.554L208.363 116.558C208.594 116.787 208.732 117.095 208.732 117.435C208.731 118.118 208.184 118.651 207.504 118.651C207.173 118.651 206.88 118.523 206.652 118.305L206.649 118.303L201.89 113.682L201.886 113.678C201.644 113.438 201.487 113.133 201.487 112.765C201.488 112.408 201.636 112.087 201.897 111.841H201.896L206.653 107.227C206.88 107.003 207.177 106.879 207.504 106.879Z" fill="#717171" stroke="#D5D5D5"/>
<path d="M230.511 106.879C230.849 106.879 231.135 107.008 231.361 107.223L231.366 107.227L236.124 111.847H236.123C236.391 112.098 236.525 112.415 236.525 112.765C236.525 113.141 236.37 113.437 236.133 113.679L236.123 113.689L231.365 118.303L231.361 118.307C231.135 118.521 230.849 118.651 230.511 118.651C229.832 118.651 229.281 118.119 229.281 117.435C229.281 117.089 229.423 116.793 229.641 116.566L229.654 116.553L233.57 112.77L229.654 108.977L229.647 108.971L229.641 108.965C229.43 108.745 229.281 108.437 229.281 108.096C229.281 107.412 229.832 106.879 230.511 106.879Z" fill="#BDBCBC" stroke="#D5D5D5"/>
</g>
<mask id="mask1_399_5710" style="mask-type:luminance" maskUnits="userSpaceOnUse" x="104" y="107" width="44" height="12">
<path d="M146.902 108.045V118.372H105.194V108.045H146.902Z" fill="white" stroke="white"/>
</mask>
<g mask="url(#mask1_399_5710)">
<path d="M110.391 108.045C113.258 108.045 115.588 110.353 115.588 113.208C115.588 116.063 113.258 118.372 110.391 118.372C107.524 118.372 105.194 116.063 105.194 113.208C105.194 110.353 107.524 108.045 110.391 108.045Z" fill="#ED6A5E" stroke="#D5D5D5"/>
<path d="M110.391 108.433C113.041 108.433 115.196 110.568 115.196 113.208C115.196 115.848 113.041 117.983 110.391 117.983C107.74 117.983 105.585 115.848 105.585 113.208C105.585 110.568 107.74 108.433 110.391 108.433Z" stroke="#D5D5D5"/>
<path d="M126.049 108.045C128.916 108.045 131.246 110.353 131.247 113.208C131.247 116.063 128.916 118.372 126.049 118.372C123.182 118.372 120.852 116.063 120.852 113.208C120.852 110.353 123.183 108.045 126.049 108.045Z" fill="#F4BD50" stroke="#D5D5D5"/>
<path d="M126.048 108.433C128.699 108.433 130.854 110.568 130.854 113.208C130.854 115.848 128.699 117.983 126.048 117.983C123.398 117.983 121.243 115.848 121.243 113.208C121.243 110.568 123.398 108.433 126.048 108.433Z" stroke="#D5D5D5"/>
<path d="M141.708 108.045C144.575 108.045 146.905 110.353 146.906 113.208C146.906 116.063 144.575 118.372 141.708 118.372C138.841 118.372 136.511 116.063 136.511 113.208C136.511 110.353 138.842 108.045 141.708 108.045Z" fill="#61C454" stroke="#D5D5D5"/>
<path d="M141.709 108.433C144.359 108.433 146.514 110.568 146.515 113.208C146.515 115.848 144.36 117.983 141.709 117.983C139.058 117.983 136.903 115.848 136.903 113.208C136.903 110.568 139.058 108.433 141.709 108.433Z" stroke="#D5D5D5"/>
</g>
<path d="M930.295 101.827C931.602 101.827 932.612 101.827 933.421 101.893C934.235 101.959 934.887 102.094 935.471 102.39C936.449 102.884 937.246 103.674 937.744 104.646H937.743C938.041 105.227 938.178 105.876 938.245 106.685C938.311 107.488 938.31 108.491 938.31 109.788V116.628C938.31 117.926 938.311 118.93 938.245 119.733C938.187 120.44 938.075 121.026 937.847 121.551L937.743 121.772C937.245 122.743 936.449 123.532 935.471 124.026L935.472 124.027C934.888 124.323 934.235 124.458 933.421 124.525C932.612 124.59 931.602 124.59 930.295 124.59H470.923C469.616 124.59 468.606 124.59 467.798 124.525C467.086 124.467 466.497 124.356 465.97 124.131L465.747 124.027C464.829 123.564 464.073 122.841 463.571 121.952L463.474 121.772C463.177 121.19 463.04 120.54 462.973 119.732C462.908 118.929 462.908 117.925 462.908 116.628V109.788C462.908 108.491 462.908 107.487 462.973 106.685C463.04 105.876 463.176 105.227 463.473 104.646L463.474 104.645C463.974 103.673 464.768 102.883 465.747 102.389C466.331 102.093 466.984 101.959 467.798 101.893C468.606 101.827 469.616 101.827 470.923 101.827H930.295Z" fill="#F0F0F0" stroke="#D5D5D5"/>
<path d="M445.402 105.712C445.613 105.712 445.838 105.744 446.046 105.796L446.248 105.855L446.25 105.856C446.95 106.094 449.386 106.944 450.126 107.258L450.129 107.259V107.26C450.468 107.407 450.806 107.587 451.044 107.893C451.293 108.214 451.383 108.602 451.383 109.056V113.958C451.382 115.262 451.014 116.219 450.121 117.106C449.271 117.95 447.946 118.726 446.094 119.735L446.094 119.734C445.861 119.863 445.606 119.925 445.402 119.925C445.196 119.925 444.939 119.863 444.703 119.735L444.701 119.734C442.857 118.719 441.535 117.943 440.686 117.102C439.794 116.217 439.423 115.263 439.423 113.958V109.056C439.423 108.603 439.512 108.212 439.76 107.891C439.999 107.583 440.337 107.403 440.68 107.258L440.682 107.257C441.41 106.955 443.846 106.057 444.578 105.848L444.584 105.847C444.801 105.788 445.11 105.712 445.402 105.712ZM445.908 117.233C447.165 116.473 447.955 115.988 448.456 115.501C448.717 115.247 448.881 115.007 448.985 114.743C449.09 114.475 449.145 114.153 449.145 113.718V109.295C448.273 108.987 446.812 108.463 445.908 108.118V117.233Z" fill="#717171" stroke="#D5D5D5"/>
<path d="M212.906 44.1637C213.692 41.807 213.422 39.2275 212.167 37.0819C210.28 33.7989 206.481 32.1106 202.776 32.8961C201.123 31.0436 198.754 29.9884 196.268 30.0001C192.481 30.0001 189.116 32.4389 187.944 36.0384C185.505 36.5426 183.406 38.0668 182.175 40.2241C180.276 43.5071 180.71 47.6342 183.254 50.4482C182.468 52.8049 182.738 55.3844 183.993 57.5183C185.88 60.8129 189.679 62.5013 193.396 61.7158C195.037 63.5683 197.406 64.6353 199.891 64.6235C203.679 64.6235 207.044 62.1848 208.216 58.5852C210.655 58.0811 212.754 56.5569 213.973 54.3995C215.884 51.1165 215.45 46.9894 212.906 44.1754V44.1637ZM210.209 38.2192C210.96 39.5324 211.241 41.0683 210.983 42.5574C210.936 42.5222 210.842 42.4753 210.784 42.4402L203.89 38.4537C203.538 38.2544 203.104 38.2544 202.752 38.4537L194.674 43.1202V39.6965L201.345 35.8391C204.452 34.0452 208.415 35.1121 210.209 38.2192ZM194.674 45.3362L198.074 43.3664L201.474 45.3362V49.264L198.074 51.2338L194.674 49.264V45.3362ZM196.257 32.263C197.781 32.263 199.247 32.7906 200.419 33.7638C200.372 33.7872 200.278 33.8458 200.208 33.881L193.314 37.8557C192.962 38.0551 192.751 38.4302 192.751 38.8406V48.1736L189.785 46.4618V38.7468C189.785 35.159 192.681 32.263 196.268 32.2513L196.257 32.263ZM184.145 41.3614C184.907 40.0483 186.091 39.0399 187.522 38.5123V46.708C187.522 47.1183 187.733 47.4818 188.085 47.6928L196.151 52.3476L193.173 54.0712L186.513 50.2254C183.418 48.4315 182.351 44.4685 184.145 41.3614ZM185.962 56.4044C185.2 55.103 184.931 53.5553 185.188 52.0662C185.235 52.1014 185.329 52.1483 185.388 52.1835L192.282 56.1699C192.634 56.3692 193.068 56.3692 193.419 56.1699L201.486 51.5034V54.9271L194.815 58.7728C191.707 60.555 187.744 59.4998 185.951 56.4044H185.962ZM199.903 62.3606C198.391 62.3606 196.913 61.833 195.753 60.8599C195.799 60.8364 195.905 60.7778 195.964 60.7426L202.858 56.7679C203.21 56.5686 203.432 56.1934 203.421 55.783V46.4618L206.387 48.1736V55.8768C206.387 59.4646 203.479 62.3724 199.903 62.3724V62.3606ZM212.027 53.2622C211.265 54.5754 210.069 55.5837 208.65 56.0996V47.9039C208.65 47.4936 208.439 47.1184 208.087 46.919L200.009 42.2526L202.975 40.5407L209.646 44.3865C212.754 46.1804 213.809 50.1434 212.015 53.2504L212.027 53.2622Z" fill="#2A2A2A"/>
<path d="M232.299 55.1505C230.881 53.5829 230.158 51.4925 230.158 48.9071V46.1566C230.158 43.5712 230.881 41.4809 232.299 39.8857C233.717 38.3179 235.858 37.5202 238.667 37.5202C241.865 37.5202 244.34 38.923 245.702 41.1234C246.37 42.2235 246.731 43.4338 246.815 44.754H243.199C242.949 42.4162 241.42 40.6833 238.667 40.6833C235.552 40.6833 234.023 42.7461 234.023 45.9641V49.0996C234.023 52.3177 235.552 54.3805 238.667 54.3805C241.42 54.3805 242.949 52.6477 243.199 50.3098H246.815C246.675 52.9503 245.285 55.2605 242.866 56.5533C241.67 57.2133 240.252 57.5434 238.667 57.5434C235.858 57.5434 233.717 56.7458 232.299 55.1505Z" fill="#2A2A2A"/>
<path d="M250.095 37.0802H253.877V44.5613C254.656 43.3236 256.157 42.526 257.965 42.526C261.107 42.526 263.081 44.6164 263.081 47.9993V57.1584H259.3V48.6046C259.3 46.8717 258.437 45.7716 256.658 45.7716C254.906 45.7716 253.877 46.7892 253.877 48.6871V57.1584H250.095V37.0802Z" fill="#2A2A2A"/>
<path d="M266.056 53.0327C266.056 50.0348 268.309 48.4946 271.896 48.4946C273.453 48.4946 274.76 49.0445 275.566 49.7047V47.7519C275.566 46.4042 274.593 45.4415 273.064 45.4415C271.812 45.4415 270.978 45.9916 270.561 46.7892H267.057C267.864 44.0389 270.116 42.526 273.258 42.526C276.873 42.526 279.348 44.7264 279.348 48.0269V57.1584H275.705V55.8382C275.372 56.3057 274.816 56.7183 274.009 57.0208C273.203 57.3233 272.396 57.4884 271.534 57.4884C268.225 57.4884 266.056 55.7831 266.056 53.0327ZM275.566 52.8952C275.566 51.6575 274.371 50.8874 272.619 50.8874C270.811 50.8874 269.727 51.6026 269.727 52.9227C269.727 54.2153 270.867 55.0131 272.507 55.0131C274.204 55.0131 275.566 54.1053 275.566 52.8952Z" fill="#2A2A2A"/>
<path d="M287.634 57.1584C284.937 57.1584 283.547 55.7006 283.547 53.0877V45.8816H281.489V42.8561H283.547V38.9505H287.356V42.8561H290.443V45.8816H287.356V52.8127C287.356 53.7754 287.718 54.1328 288.719 54.1328H290.248V57.1584H287.634Z" fill="#2A2A2A"/>
<path d="M292.973 48.9071V46.1017C292.973 40.9033 296.143 37.5202 301.399 37.5202C306.348 37.5202 309.435 40.4356 309.546 44.4514H305.848C305.764 42.3335 304.179 40.6833 301.51 40.6833C298.423 40.6833 296.838 42.6636 296.838 45.9641V48.9896C296.838 52.4001 298.312 54.4629 301.538 54.4629C304.291 54.4629 305.931 52.8127 305.931 50.6123V50.3373H301.565V47.2018H309.741V49.7047C309.741 54.298 306.432 57.5434 301.482 57.5434C295.837 57.5434 292.973 53.7754 292.973 48.9071Z" fill="#2A2A2A"/>
<path d="M313.439 37.9054H321.531C325.952 37.9054 328.761 40.5183 328.761 44.3688C328.761 48.2194 325.841 50.9424 321.531 50.9424H317.332V57.1584H313.439V37.9054ZM321.281 47.7795C323.644 47.7795 324.868 46.3767 324.868 44.3688C324.868 42.3886 323.644 41.0683 321.281 41.0683H317.332V47.7795H321.281Z" fill="#2A2A2A"/>
<path d="M335.601 41.0958H330.095V37.9054H345V41.0958H339.494V57.1584H335.601L335.601 41.0958Z" fill="#2A2A2A"/>
</g>
<defs>
<clipPath id="clip0_399_5710">
<rect width="525" height="350" rx="8" fill="white"/>
</clipPath>
<clipPath id="clip1_399_5710">
<path d="M90 133.095H1602V1115.09H90V133.095Z" fill="white"/>
</clipPath>
<clipPath id="clip2_399_5710">
<rect width="16" height="16" fill="white" transform="translate(270 159.095)"/>
</clipPath>
<clipPath id="clip3_399_5710">
<rect width="1250" height="982" fill="white" transform="translate(352 133.095)"/>
</clipPath>
<clipPath id="clip4_399_5710">
<rect width="1250" height="930" fill="white" transform="translate(352 193.095)"/>
</clipPath>
</defs>
</svg>
