<svg width="179" height="148" viewBox="0 0 179 148" fill="none" xmlns="http://www.w3.org/2000/svg">
<rect width="179" height="148" fill="white"/>
<path d="M72.0215 75.6348V65.7812H74.9414V75.6348C74.9414 76.5853 74.7331 77.4023 74.3164 78.0859C73.8997 78.763 73.3301 79.2839 72.6074 79.6484C71.8913 80.013 71.084 80.1953 70.1855 80.1953C69.2546 80.1953 68.431 80.0391 67.7148 79.7266C66.9987 79.4141 66.4355 78.9355 66.0254 78.291C65.6152 77.64 65.4102 76.8164 65.4102 75.8203H68.3496C68.3496 76.3411 68.4212 76.7546 68.5645 77.0605C68.7142 77.3665 68.9258 77.5846 69.1992 77.7148C69.4727 77.8451 69.8014 77.9102 70.1855 77.9102C70.5566 77.9102 70.8789 77.8223 71.1523 77.6465C71.4258 77.4707 71.6374 77.2135 71.7871 76.875C71.9434 76.5365 72.0215 76.123 72.0215 75.6348ZM79.4344 69.4336V80H76.6121V69.4336H79.4344ZM76.4363 66.6797C76.4363 66.2695 76.5796 65.931 76.866 65.6641C77.1525 65.3971 77.5366 65.2637 78.0184 65.2637C78.4936 65.2637 78.8745 65.3971 79.1609 65.6641C79.4539 65.931 79.6004 66.2695 79.6004 66.6797C79.6004 67.0898 79.4539 67.4284 79.1609 67.6953C78.8745 67.9622 78.4936 68.0957 78.0184 68.0957C77.5366 68.0957 77.1525 67.9622 76.866 67.6953C76.5796 67.4284 76.4363 67.0898 76.4363 66.6797ZM80.5094 74.8242V74.6191C80.5094 73.8444 80.6201 73.1315 80.8414 72.4805C81.0628 71.8229 81.385 71.2533 81.8082 70.7715C82.2314 70.2897 82.7522 69.9154 83.3707 69.6484C83.9892 69.375 84.6988 69.2383 85.4996 69.2383C86.3004 69.2383 87.0133 69.375 87.6383 69.6484C88.2633 69.9154 88.7874 70.2897 89.2105 70.7715C89.6402 71.2533 89.9658 71.8229 90.1871 72.4805C90.4085 73.1315 90.5191 73.8444 90.5191 74.6191V74.8242C90.5191 75.5924 90.4085 76.3053 90.1871 76.9629C89.9658 77.6139 89.6402 78.1836 89.2105 78.6719C88.7874 79.1536 88.2665 79.528 87.648 79.7949C87.0296 80.0618 86.3199 80.1953 85.5191 80.1953C84.7184 80.1953 84.0055 80.0618 83.3805 79.7949C82.762 79.528 82.2379 79.1536 81.8082 78.6719C81.385 78.1836 81.0628 77.6139 80.8414 76.9629C80.6201 76.3053 80.5094 75.5924 80.5094 74.8242ZM83.3219 74.6191V74.8242C83.3219 75.2669 83.3609 75.6803 83.4391 76.0645C83.5172 76.4486 83.6409 76.7871 83.8102 77.0801C83.9859 77.3665 84.2138 77.5911 84.4937 77.7539C84.7737 77.9167 85.1155 77.998 85.5191 77.998C85.9098 77.998 86.2451 77.9167 86.525 77.7539C86.8049 77.5911 87.0296 77.3665 87.1988 77.0801C87.3681 76.7871 87.4918 76.4486 87.5699 76.0645C87.6546 75.6803 87.6969 75.2669 87.6969 74.8242V74.6191C87.6969 74.1895 87.6546 73.7858 87.5699 73.4082C87.4918 73.0241 87.3648 72.6855 87.1891 72.3926C87.0198 72.0931 86.7952 71.8587 86.5152 71.6895C86.2353 71.5202 85.8967 71.4355 85.4996 71.4355C85.1025 71.4355 84.7639 71.5202 84.484 71.6895C84.2105 71.8587 83.9859 72.0931 83.8102 72.3926C83.6409 72.6855 83.5172 73.0241 83.4391 73.4082C83.3609 73.7858 83.3219 74.1895 83.3219 74.6191ZM102.893 72.5684V78.2031C102.672 78.4701 102.33 78.7598 101.868 79.0723C101.405 79.3783 100.81 79.6419 100.08 79.8633C99.3513 80.0846 98.4691 80.1953 97.434 80.1953C96.516 80.1953 95.6794 80.0456 94.9242 79.7461C94.169 79.4401 93.518 78.9941 92.9711 78.4082C92.4307 77.8223 92.0141 77.1061 91.7211 76.2598C91.4281 75.4069 91.2816 74.4336 91.2816 73.3398V72.4512C91.2816 71.3574 91.4216 70.3841 91.7016 69.5312C91.988 68.6784 92.3949 67.959 92.9223 67.373C93.4496 66.7871 94.0779 66.3411 94.807 66.0352C95.5362 65.7292 96.3467 65.5762 97.2387 65.5762C98.4757 65.5762 99.4913 65.778 100.286 66.1816C101.08 66.5788 101.685 67.1322 102.102 67.8418C102.525 68.5449 102.786 69.3522 102.883 70.2637H100.041C99.9698 69.7819 99.8331 69.362 99.6313 69.0039C99.4294 68.6458 99.1397 68.3659 98.7621 68.1641C98.391 67.9622 97.9092 67.8613 97.3168 67.8613C96.8285 67.8613 96.3923 67.9622 96.0082 68.1641C95.6306 68.3594 95.3116 68.6491 95.0512 69.0332C94.7908 69.4173 94.5922 69.8926 94.4555 70.459C94.3188 71.0254 94.2504 71.6829 94.2504 72.4316V73.3398C94.2504 74.082 94.322 74.7396 94.4652 75.3125C94.6085 75.8789 94.8201 76.3574 95.1 76.748C95.3865 77.1322 95.738 77.4219 96.1547 77.6172C96.5714 77.8125 97.0564 77.9102 97.6098 77.9102C98.072 77.9102 98.4561 77.8711 98.7621 77.793C99.0746 77.7148 99.3253 77.6204 99.5141 77.5098C99.7094 77.3926 99.8591 77.2819 99.9633 77.1777V74.6582H97.2875V72.5684H102.893ZM109.984 77.6172V72.9102C109.984 72.5716 109.928 72.2819 109.818 72.041C109.707 71.7936 109.534 71.6016 109.3 71.4648C109.072 71.3281 108.776 71.2598 108.411 71.2598C108.099 71.2598 107.829 71.3151 107.601 71.4258C107.373 71.5299 107.197 71.6829 107.073 71.8848C106.95 72.0801 106.888 72.3112 106.888 72.5781H104.075C104.075 72.1289 104.18 71.7025 104.388 71.2988C104.596 70.8952 104.899 70.5404 105.296 70.2344C105.693 69.9219 106.165 69.6777 106.712 69.502C107.265 69.3262 107.884 69.2383 108.568 69.2383C109.388 69.2383 110.117 69.375 110.755 69.6484C111.393 69.9219 111.894 70.332 112.259 70.8789C112.63 71.4258 112.816 72.1094 112.816 72.9297V77.4512C112.816 78.0306 112.851 78.5059 112.923 78.877C112.995 79.2415 113.099 79.5605 113.236 79.834V80H110.394C110.257 79.7135 110.153 79.3555 110.081 78.9258C110.016 78.4896 109.984 78.0534 109.984 77.6172ZM110.355 73.5645L110.374 75.1562H108.802C108.431 75.1562 108.109 75.1986 107.835 75.2832C107.562 75.3678 107.337 75.4883 107.161 75.6445C106.986 75.7943 106.855 75.9701 106.771 76.1719C106.693 76.3737 106.654 76.5951 106.654 76.8359C106.654 77.0768 106.709 77.2949 106.82 77.4902C106.93 77.679 107.09 77.8288 107.298 77.9395C107.506 78.0436 107.751 78.0957 108.03 78.0957C108.454 78.0957 108.821 78.0111 109.134 77.8418C109.446 77.6725 109.687 77.4642 109.857 77.2168C110.032 76.9694 110.124 76.735 110.13 76.5137L110.872 77.7051C110.768 77.972 110.625 78.2487 110.443 78.5352C110.267 78.8216 110.042 79.0918 109.769 79.3457C109.495 79.5931 109.167 79.7982 108.782 79.9609C108.398 80.1172 107.943 80.1953 107.415 80.1953C106.745 80.1953 106.136 80.0618 105.589 79.7949C105.049 79.5215 104.619 79.1471 104.3 78.6719C103.987 78.1901 103.831 77.6432 103.831 77.0312C103.831 76.4779 103.935 75.9863 104.144 75.5566C104.352 75.127 104.658 74.7656 105.062 74.4727C105.472 74.1732 105.983 73.9486 106.595 73.7988C107.207 73.6426 107.917 73.5645 108.724 73.5645H110.355ZM116.996 71.6211V80H114.174V69.4336H116.82L116.996 71.6211ZM116.605 74.3457H115.824C115.824 73.61 115.912 72.9329 116.088 72.3145C116.27 71.6895 116.534 71.1491 116.879 70.6934C117.23 70.2311 117.663 69.873 118.178 69.6191C118.692 69.3652 119.288 69.2383 119.965 69.2383C120.434 69.2383 120.863 69.3099 121.254 69.4531C121.645 69.5898 121.98 69.8079 122.26 70.1074C122.546 70.4004 122.768 70.7845 122.924 71.2598C123.08 71.7285 123.158 72.2917 123.158 72.9492V80H120.346V73.2617C120.346 72.7799 120.281 72.4089 120.15 72.1484C120.02 71.888 119.835 71.7057 119.594 71.6016C119.359 71.4974 119.076 71.4453 118.744 71.4453C118.38 71.4453 118.061 71.5202 117.787 71.6699C117.52 71.8197 117.299 72.028 117.123 72.2949C116.947 72.5553 116.817 72.8613 116.732 73.2129C116.648 73.5645 116.605 73.9421 116.605 74.3457ZM122.895 74.0234L121.889 74.1504C121.889 73.4603 121.973 72.819 122.143 72.2266C122.318 71.6341 122.576 71.1133 122.914 70.6641C123.259 70.2148 123.686 69.8665 124.193 69.6191C124.701 69.3652 125.287 69.2383 125.951 69.2383C126.459 69.2383 126.921 69.3132 127.338 69.4629C127.755 69.6061 128.109 69.8372 128.402 70.1562C128.702 70.4688 128.93 70.8789 129.086 71.3867C129.249 71.8945 129.33 72.5163 129.33 73.252V80H126.508V73.252C126.508 72.7637 126.443 72.3926 126.312 72.1387C126.189 71.8783 126.007 71.6992 125.766 71.6016C125.531 71.4974 125.251 71.4453 124.926 71.4453C124.587 71.4453 124.291 71.5137 124.037 71.6504C123.783 71.7806 123.572 71.9629 123.402 72.1973C123.233 72.4316 123.106 72.7051 123.021 73.0176C122.937 73.3236 122.895 73.6589 122.895 74.0234ZM135.571 80.1953C134.751 80.1953 134.015 80.0651 133.364 79.8047C132.713 79.5378 132.16 79.1699 131.704 78.7012C131.255 78.2324 130.91 77.6888 130.669 77.0703C130.428 76.4453 130.307 75.7812 130.307 75.0781V74.6875C130.307 73.8867 130.421 73.1543 130.649 72.4902C130.877 71.8262 131.203 71.25 131.626 70.7617C132.055 70.2734 132.576 69.8991 133.188 69.6387C133.8 69.3717 134.49 69.2383 135.259 69.2383C136.007 69.2383 136.671 69.362 137.251 69.6094C137.83 69.8568 138.315 70.2083 138.706 70.6641C139.103 71.1198 139.402 71.6667 139.604 72.3047C139.806 72.9362 139.907 73.6393 139.907 74.4141V75.5859H131.509V73.7109H137.143V73.4961C137.143 73.1055 137.072 72.7572 136.929 72.4512C136.792 72.1387 136.583 71.8913 136.304 71.709C136.024 71.5267 135.665 71.4355 135.229 71.4355C134.858 71.4355 134.539 71.5169 134.272 71.6797C134.005 71.8424 133.787 72.0703 133.618 72.3633C133.455 72.6562 133.332 73.0013 133.247 73.3984C133.169 73.7891 133.13 74.2188 133.13 74.6875V75.0781C133.13 75.5013 133.188 75.8919 133.305 76.25C133.429 76.6081 133.602 76.9173 133.823 77.1777C134.051 77.4382 134.324 77.64 134.643 77.7832C134.969 77.9264 135.337 77.998 135.747 77.998C136.255 77.998 136.727 77.9004 137.163 77.7051C137.606 77.5033 137.986 77.2005 138.305 76.7969L139.673 78.2812C139.451 78.6003 139.149 78.9062 138.764 79.1992C138.387 79.4922 137.931 79.7331 137.397 79.9219C136.863 80.1042 136.255 80.1953 135.571 80.1953ZM146.421 77.0801C146.421 76.8783 146.363 76.696 146.246 76.5332C146.129 76.3704 145.91 76.2207 145.591 76.084C145.279 75.9408 144.826 75.8105 144.234 75.6934C143.7 75.5762 143.202 75.4297 142.74 75.2539C142.284 75.0716 141.887 74.8535 141.548 74.5996C141.216 74.3457 140.956 74.0462 140.767 73.7012C140.578 73.3496 140.484 72.9492 140.484 72.5C140.484 72.0573 140.578 71.6406 140.767 71.25C140.963 70.8594 141.239 70.5143 141.597 70.2148C141.962 69.9089 142.405 69.6712 142.925 69.502C143.453 69.3262 144.045 69.2383 144.703 69.2383C145.621 69.2383 146.408 69.3848 147.066 69.6777C147.73 69.9707 148.238 70.3743 148.589 70.8887C148.948 71.3965 149.127 71.9759 149.127 72.627H146.314C146.314 72.3535 146.255 72.1094 146.138 71.8945C146.028 71.6732 145.852 71.5007 145.611 71.377C145.377 71.2467 145.071 71.1816 144.693 71.1816C144.38 71.1816 144.11 71.237 143.882 71.3477C143.655 71.4518 143.479 71.5951 143.355 71.7773C143.238 71.9531 143.179 72.1484 143.179 72.3633C143.179 72.526 143.212 72.6725 143.277 72.8027C143.349 72.9264 143.463 73.0404 143.619 73.1445C143.775 73.2487 143.977 73.3464 144.224 73.4375C144.478 73.5221 144.791 73.6003 145.162 73.6719C145.923 73.8281 146.604 74.0332 147.203 74.2871C147.802 74.5345 148.277 74.873 148.629 75.3027C148.98 75.7259 149.156 76.2826 149.156 76.9727C149.156 77.4414 149.052 77.8711 148.843 78.2617C148.635 78.6523 148.336 78.9941 147.945 79.2871C147.554 79.5736 147.086 79.7982 146.539 79.9609C145.998 80.1172 145.39 80.1953 144.713 80.1953C143.729 80.1953 142.896 80.0195 142.213 79.668C141.535 79.3164 141.021 78.8704 140.67 78.3301C140.324 77.7832 140.152 77.2233 140.152 76.6504H142.818C142.831 77.0345 142.929 77.3438 143.111 77.5781C143.3 77.8125 143.537 77.9818 143.824 78.0859C144.117 78.1901 144.433 78.2422 144.771 78.2422C145.136 78.2422 145.438 78.1934 145.679 78.0957C145.92 77.9915 146.102 77.8548 146.226 77.6855C146.356 77.5098 146.421 77.3079 146.421 77.0801Z" fill="black"/>
<rect x="29" y="58" width="32" height="32" rx="16" fill="#0FB866"/>
<path d="M50.3266 67.5007H40.0746C38.4014 67.4756 36.7835 68.1176 35.5588 69.2925C34.3342 70.4675 33.5976 72.0846 33.5028 73.8059C33.4667 75.0528 33.7796 76.284 34.404 77.3526C35.0285 78.4212 35.9382 79.2821 37.0245 79.8327C38.1109 80.3832 39.3281 80.6 40.5308 80.4573C41.7335 80.3146 42.8709 79.8184 43.8074 79.0278C44.1713 78.7271 44.6237 78.5633 45.0902 78.5633C45.5566 78.5633 46.0092 78.7271 46.373 79.0278C47.0322 79.5906 47.7985 80.0051 48.6223 80.2448C49.4463 80.4845 50.3098 80.5441 51.1573 80.4196C52.0049 80.2951 52.8178 79.9894 53.544 79.5221C54.2701 79.0548 54.8933 78.4362 55.3737 77.706C56.024 76.7408 56.4083 75.6119 56.4855 74.4396C56.5627 73.2672 56.3301 72.0952 55.8123 71.0483C55.2945 70.0013 54.511 69.1185 53.545 68.4938C52.579 67.8692 51.4668 67.526 50.3266 67.5007ZM42.3353 74.4343C42.269 74.5899 42.1681 74.7272 42.0409 74.8351L39.4332 77.0019C39.244 77.1634 39.0059 77.2516 38.7602 77.251C38.6032 77.2537 38.4479 77.2165 38.3081 77.1427C38.1269 77.0552 37.9737 76.9161 37.8665 76.7418C37.7576 76.5719 37.7025 76.3712 37.7088 76.1677V71.8342C37.7093 71.6266 37.7677 71.4236 37.877 71.2492C37.9842 71.075 38.1374 70.9359 38.3186 70.8483C38.4879 70.7621 38.6778 70.7282 38.8654 70.7508C39.0513 70.7733 39.2286 70.8442 39.3806 70.9567L42.0409 73.1234C42.1656 73.2252 42.2663 73.3549 42.3353 73.5026C42.4026 73.6481 42.4375 73.8073 42.4375 73.9684C42.4375 74.1296 42.4026 74.2888 42.3353 74.4343ZM50.8523 70.7508C51.062 70.7504 51.2671 70.8145 51.4412 70.935C51.6138 71.0527 51.7462 71.2232 51.8197 71.4225C51.9009 71.6209 51.9228 71.8396 51.8828 72.0509C51.8416 72.2591 51.7419 72.4502 51.596 72.6004C51.4502 72.7507 51.2648 72.8534 51.0626 72.8959C50.8576 72.9371 50.6453 72.9145 50.4528 72.8309C50.2593 72.7552 50.0938 72.6187 49.9796 72.4409C49.8727 72.2778 49.8108 72.0878 49.8008 71.8913C49.7907 71.6947 49.8328 71.4991 49.9225 71.3253C50.0122 71.1516 50.1461 71.0063 50.31 70.9051C50.4739 70.8039 50.6613 70.7505 50.8523 70.7508ZM48.7493 75.0843C48.5396 75.0848 48.3346 75.0207 48.1605 74.9001C47.9879 74.7825 47.8555 74.612 47.782 74.4126C47.7009 74.2143 47.6789 73.9955 47.7189 73.7843C47.7564 73.5721 47.8544 73.3763 48.0005 73.2219C48.1466 73.0675 48.3341 72.9615 48.5391 72.9176C48.7441 72.8763 48.9564 72.899 49.1489 72.9826C49.3424 73.0583 49.5079 73.1948 49.6221 73.3726C49.7349 73.5358 49.8016 73.728 49.8147 73.9279C49.8278 74.1278 49.787 74.3275 49.6965 74.5049C49.6061 74.6823 49.4697 74.8303 49.3024 74.9326C49.1353 75.0349 48.9438 75.0874 48.7493 75.0843ZM50.8523 77.251C50.6426 77.2516 50.4376 77.1874 50.2635 77.0669C50.0909 76.9492 49.9585 76.7787 49.885 76.5793C49.8039 76.381 49.7819 76.1623 49.8219 75.951C49.8594 75.7388 49.9574 75.543 50.1035 75.3886C50.2496 75.2342 50.4371 75.1283 50.642 75.0843C50.8471 75.0431 51.0594 75.0657 51.2519 75.1493C51.4454 75.2251 51.6109 75.3615 51.7251 75.5393C51.8379 75.7025 51.9046 75.8947 51.9177 76.0947C51.9308 76.2945 51.8899 76.4943 51.7995 76.6716C51.7091 76.8491 51.5726 76.9971 51.4054 77.0994C51.2383 77.2016 51.0468 77.2542 50.8523 77.251ZM52.9553 75.0843C52.7456 75.0848 52.5406 75.0207 52.3665 74.9001C52.1939 74.7825 52.0614 74.612 51.9879 74.4126C51.9068 74.2143 51.8849 73.9955 51.9248 73.7843C51.9624 73.5721 52.0604 73.3763 52.2065 73.2219C52.3526 73.0675 52.5401 72.9615 52.745 72.9176C52.9501 72.8763 53.1624 72.899 53.3549 72.9826C53.5483 73.0583 53.7139 73.1948 53.828 73.3726C53.9408 73.5358 54.0075 73.728 54.0207 73.9279C54.0338 74.1278 53.9929 74.3275 53.9025 74.5049C53.8121 74.6823 53.6756 74.8303 53.5084 74.9326C53.3412 75.0349 53.1498 75.0874 52.9553 75.0843Z" fill="white"/>
</svg>
