<svg width="693" height="573" viewBox="0 0 693 573" fill="none" xmlns="http://www.w3.org/2000/svg">
<rect width="693" height="573" rx="8" fill="#F5F5F5"/>
<rect width="693" height="75" fill="white"/>
<rect x="24" y="17.5" width="42" height="40" rx="4" fill="#15B866"/>
<path d="M38.5 45.24C37.3667 45.24 36.4 44.9467 35.6 44.36C34.8 43.76 34.1867 42.92 33.76 41.84C33.3333 40.7467 33.12 39.4733 33.12 38.02C33.12 36.54 33.3333 35.26 33.76 34.18C34.1867 33.1 34.8 32.2667 35.6 31.68C36.4 31.0933 37.3667 30.8 38.5 30.8C39.6467 30.8 40.6133 31.0933 41.4 31.68C42.2 32.2667 42.8133 33.1 43.24 34.18C43.6667 35.2467 43.88 36.5267 43.88 38.02C43.88 39.4867 43.6667 40.76 43.24 41.84C42.8133 42.92 42.2 43.76 41.4 44.36C40.6133 44.9467 39.6467 45.24 38.5 45.24ZM38.5 43.44C39.5533 43.44 40.3467 42.9667 40.88 42.02C41.4133 41.06 41.68 39.7267 41.68 38.02C41.68 36.2867 41.4133 34.9533 40.88 34.02C40.3467 33.0733 39.5533 32.6 38.5 32.6C37.46 32.6 36.6733 33.0733 36.14 34.02C35.6067 34.9533 35.34 36.2867 35.34 38.02C35.34 39.7267 35.6067 41.06 36.14 42.02C36.6733 42.9667 37.46 43.44 38.5 43.44ZM45.7478 45V43.48C47.5878 42.1067 49.0678 40.9133 50.1878 39.9C51.3078 38.8733 52.1211 37.9667 52.6278 37.18C53.1345 36.38 53.3878 35.6533 53.3878 35C53.3878 34.28 53.1611 33.7 52.7078 33.26C52.2678 32.82 51.6478 32.6 50.8478 32.6C50.0078 32.6 49.3145 32.86 48.7678 33.38C48.2211 33.8867 47.9278 34.6067 47.8878 35.54H45.7478C45.8145 34.54 46.0678 33.6867 46.5078 32.98C46.9611 32.26 47.5611 31.72 48.3078 31.36C49.0678 30.9867 49.9278 30.8 50.8878 30.8C51.8478 30.8 52.6811 30.9733 53.3878 31.32C54.0945 31.6533 54.6345 32.1333 55.0078 32.76C55.3945 33.3733 55.5878 34.0867 55.5878 34.9C55.5878 35.78 55.3611 36.6467 54.9078 37.5C54.4678 38.34 53.7545 39.2267 52.7678 40.16C51.7945 41.08 50.5011 42.0933 48.8878 43.2H55.6278V45H45.7478Z" fill="white"/>
<path d="M86.424 45.5V43.34H92.4C93.168 43.34 93.752 43.116 94.152 42.668C94.552 42.204 94.752 41.58 94.752 40.796V28.748H97.296V40.676C97.296 41.444 97.192 42.132 96.984 42.74C96.776 43.332 96.464 43.836 96.048 44.252C95.648 44.652 95.136 44.964 94.512 45.188C93.904 45.396 93.192 45.5 92.376 45.5H86.424ZM88.368 28.748H97.104V30.908H88.368V28.748ZM105.369 45.5V32.3H107.793V45.5H105.369ZM100.497 45.5V43.532H112.329V45.5H100.497ZM102.249 34.268V32.3H106.569V34.268H102.249ZM105.201 30.044V27.428H107.913V30.044H105.201ZM121.075 45.788C119.715 45.788 118.539 45.508 117.547 44.948C116.571 44.388 115.819 43.596 115.291 42.572C114.763 41.532 114.499 40.308 114.499 38.9C114.499 37.46 114.763 36.236 115.291 35.228C115.819 34.204 116.571 33.412 117.547 32.852C118.539 32.292 119.723 32.012 121.099 32.012C123.147 32.012 124.755 32.628 125.923 33.86C127.091 35.076 127.675 36.756 127.675 38.9C127.675 40.308 127.411 41.532 126.883 42.572C126.355 43.596 125.595 44.388 124.603 44.948C123.627 45.508 122.451 45.788 121.075 45.788ZM121.099 43.772C122.379 43.772 123.387 43.34 124.123 42.476C124.875 41.596 125.251 40.404 125.251 38.9C125.251 37.38 124.875 36.188 124.123 35.324C123.387 34.46 122.379 34.028 121.099 34.028C119.803 34.028 118.787 34.46 118.051 35.324C117.315 36.188 116.947 37.38 116.947 38.9C116.947 40.404 117.315 41.596 118.051 42.476C118.787 43.34 119.803 43.772 121.099 43.772ZM136.084 45.788C134.596 45.788 133.3 45.428 132.196 44.708C131.092 43.988 130.228 42.98 129.604 41.684C128.996 40.388 128.692 38.868 128.692 37.124C128.692 35.396 129.004 33.884 129.628 32.588C130.252 31.292 131.124 30.284 132.244 29.564C133.364 28.828 134.668 28.46 136.156 28.46C137.308 28.46 138.34 28.684 139.252 29.132C140.18 29.58 140.932 30.228 141.508 31.076C142.084 31.924 142.42 32.948 142.516 34.148H139.708C139.58 33.076 139.196 32.22 138.556 31.58C137.932 30.94 137.116 30.62 136.108 30.62C135.212 30.62 134.404 30.884 133.684 31.412C132.98 31.924 132.42 32.668 132.004 33.644C131.588 34.604 131.38 35.764 131.38 37.124C131.38 38.516 131.588 39.7 132.004 40.676C132.436 41.636 133.02 42.372 133.756 42.884C134.508 43.38 135.348 43.628 136.276 43.628C137.092 43.628 137.812 43.484 138.436 43.196C139.06 42.892 139.58 42.508 139.996 42.044V38.732L137.068 38.828L137.164 36.644H142.516V42.788C141.86 43.732 140.972 44.468 139.852 44.996C138.748 45.524 137.492 45.788 136.084 45.788ZM153.854 45.5L153.758 42.5V36.86C153.758 35.916 153.446 35.18 152.822 34.652C152.214 34.108 151.374 33.836 150.302 33.836C149.262 33.836 148.414 34.076 147.757 34.556C147.102 35.02 146.742 35.668 146.677 36.5H144.301C144.381 35.556 144.685 34.756 145.213 34.1C145.741 33.428 146.446 32.916 147.326 32.564C148.206 32.196 149.221 32.012 150.373 32.012C151.558 32.012 152.582 32.212 153.446 32.612C154.31 32.996 154.974 33.556 155.438 34.292C155.918 35.028 156.157 35.924 156.157 36.98V45.5H153.854ZM149.078 45.788C148.214 45.788 147.454 45.636 146.798 45.332C146.141 45.012 145.629 44.564 145.262 43.988C144.894 43.396 144.71 42.708 144.71 41.924C144.71 40.564 145.23 39.508 146.27 38.756C147.326 38.004 148.798 37.628 150.686 37.628H154.07V39.428H150.589C149.502 39.428 148.646 39.636 148.022 40.052C147.414 40.468 147.11 41.052 147.11 41.804C147.11 42.428 147.326 42.916 147.757 43.268C148.206 43.62 148.806 43.796 149.558 43.796C150.518 43.796 151.366 43.54 152.102 43.028C152.854 42.5 153.462 41.78 153.926 40.868L154.19 42.644C153.774 43.652 153.134 44.428 152.27 44.972C151.406 45.516 150.342 45.788 149.078 45.788ZM169.415 45.5V35.852C169.415 35.276 169.311 34.828 169.103 34.508C168.911 34.188 168.607 34.028 168.191 34.028C167.615 34.028 167.095 34.396 166.631 35.132C166.183 35.868 165.871 37.028 165.695 38.612L165.479 36.572C165.527 35.132 165.863 34.012 166.487 33.212C167.127 32.412 167.911 32.012 168.839 32.012C169.703 32.012 170.383 32.332 170.879 32.972C171.391 33.596 171.647 34.492 171.647 35.66V45.5H169.415ZM158.447 45.5V32.3H160.583L160.679 34.868V45.5H158.447ZM163.943 45.5V35.852C163.943 35.244 163.831 34.788 163.607 34.484C163.399 34.18 163.079 34.028 162.647 34.028C162.039 34.028 161.519 34.412 161.087 35.18C160.655 35.948 160.351 37.092 160.175 38.612L160.127 36.5C160.159 35.556 160.327 34.748 160.631 34.076C160.935 33.404 161.327 32.892 161.807 32.54C162.287 32.188 162.799 32.012 163.343 32.012C164.239 32.012 164.927 32.34 165.407 32.996C165.903 33.636 166.151 34.516 166.151 35.636V45.5H163.943ZM179.84 45.788C178.48 45.788 177.304 45.516 176.312 44.972C175.32 44.412 174.56 43.62 174.032 42.596C173.504 41.556 173.24 40.316 173.24 38.876C173.24 37.436 173.504 36.204 174.032 35.18C174.576 34.156 175.344 33.372 176.336 32.828C177.344 32.284 178.544 32.012 179.936 32.012C182.064 32.012 183.648 32.604 184.688 33.788C185.728 34.956 186.184 36.564 186.056 38.612H175.16L175.184 36.788L183.584 36.812C183.52 35.964 183.152 35.284 182.48 34.772C181.808 34.26 180.96 34.004 179.936 34.004C178.56 34.004 177.504 34.436 176.768 35.3C176.032 36.164 175.664 37.388 175.664 38.972C175.664 39.916 175.824 40.756 176.144 41.492C176.48 42.212 176.96 42.772 177.584 43.172C178.208 43.572 178.96 43.772 179.84 43.772C180.88 43.772 181.744 43.524 182.432 43.028C183.136 42.532 183.568 41.86 183.728 41.012H186.152C185.944 42.5 185.28 43.668 184.16 44.516C183.04 45.364 181.6 45.788 179.84 45.788ZM194.706 45.788C193.538 45.788 192.506 45.588 191.61 45.188C190.73 44.772 190.05 44.196 189.57 43.46C189.09 42.708 188.842 41.812 188.826 40.772H191.106C191.106 41.748 191.434 42.516 192.09 43.076C192.746 43.636 193.61 43.916 194.682 43.916C195.594 43.916 196.322 43.748 196.866 43.412C197.426 43.06 197.706 42.588 197.706 41.996C197.706 41.532 197.546 41.164 197.226 40.892C196.922 40.604 196.514 40.38 196.002 40.22C195.49 40.06 194.922 39.924 194.298 39.812C193.69 39.684 193.074 39.54 192.45 39.38C191.842 39.204 191.282 38.988 190.77 38.732C190.258 38.46 189.842 38.1 189.522 37.652C189.202 37.204 189.042 36.62 189.042 35.9C189.042 35.148 189.258 34.484 189.69 33.908C190.122 33.316 190.73 32.852 191.514 32.516C192.314 32.18 193.258 32.012 194.346 32.012C195.994 32.012 197.314 32.396 198.306 33.164C199.314 33.916 199.858 34.956 199.938 36.284H197.658C197.61 35.516 197.29 34.924 196.698 34.508C196.122 34.076 195.338 33.86 194.346 33.86C193.418 33.86 192.706 34.044 192.21 34.412C191.73 34.78 191.49 35.244 191.49 35.804C191.49 36.236 191.65 36.58 191.97 36.836C192.29 37.076 192.706 37.268 193.218 37.412C193.73 37.54 194.29 37.66 194.898 37.772C195.522 37.868 196.138 37.996 196.746 38.156C197.37 38.316 197.938 38.54 198.45 38.828C198.962 39.1 199.37 39.476 199.674 39.956C199.994 40.436 200.154 41.06 200.154 41.828C200.154 43.06 199.658 44.028 198.666 44.732C197.674 45.436 196.354 45.788 194.706 45.788Z" fill="#171717"/>
<path d="M620.54 45V43.48C622.38 42.1067 623.86 40.9133 624.98 39.9C626.1 38.8733 626.913 37.9667 627.42 37.18C627.927 36.38 628.18 35.6533 628.18 35C628.18 34.28 627.953 33.7 627.5 33.26C627.06 32.82 626.44 32.6 625.64 32.6C624.8 32.6 624.107 32.86 623.56 33.38C623.013 33.8867 622.72 34.6067 622.68 35.54H620.54C620.607 34.54 620.86 33.6867 621.3 32.98C621.753 32.26 622.353 31.72 623.1 31.36C623.86 30.9867 624.72 30.8 625.68 30.8C626.64 30.8 627.473 30.9733 628.18 31.32C628.887 31.6533 629.427 32.1333 629.8 32.76C630.187 33.3733 630.38 34.0867 630.38 34.9C630.38 35.78 630.153 36.6467 629.7 37.5C629.26 38.34 628.547 39.2267 627.56 40.16C626.587 41.08 625.293 42.0933 623.68 43.2H630.42V45H620.54ZM637.708 45.24C636.574 45.24 635.608 44.9467 634.808 44.36C634.008 43.76 633.394 42.92 632.968 41.84C632.541 40.7467 632.328 39.4733 632.328 38.02C632.328 36.54 632.541 35.26 632.968 34.18C633.394 33.1 634.008 32.2667 634.808 31.68C635.608 31.0933 636.574 30.8 637.708 30.8C638.854 30.8 639.821 31.0933 640.608 31.68C641.408 32.2667 642.021 33.1 642.448 34.18C642.874 35.2467 643.088 36.5267 643.088 38.02C643.088 39.4867 642.874 40.76 642.448 41.84C642.021 42.92 641.408 43.76 640.608 44.36C639.821 44.9467 638.854 45.24 637.708 45.24ZM637.708 43.44C638.761 43.44 639.554 42.9667 640.088 42.02C640.621 41.06 640.888 39.7267 640.888 38.02C640.888 36.2867 640.621 34.9533 640.088 34.02C639.554 33.0733 638.761 32.6 637.708 32.6C636.668 32.6 635.881 33.0733 635.348 34.02C634.814 34.9533 634.548 36.2867 634.548 38.02C634.548 39.7267 634.814 41.06 635.348 42.02C635.881 42.9667 636.668 43.44 637.708 43.44ZM644.956 45V43.48C646.796 42.1067 648.276 40.9133 649.396 39.9C650.516 38.8733 651.329 37.9667 651.836 37.18C652.342 36.38 652.596 35.6533 652.596 35C652.596 34.28 652.369 33.7 651.916 33.26C651.476 32.82 650.856 32.6 650.056 32.6C649.216 32.6 648.522 32.86 647.976 33.38C647.429 33.8867 647.136 34.6067 647.096 35.54H644.956C645.022 34.54 645.276 33.6867 645.716 32.98C646.169 32.26 646.769 31.72 647.516 31.36C648.276 30.9867 649.136 30.8 650.096 30.8C651.056 30.8 651.889 30.9733 652.596 31.32C653.302 31.6533 653.842 32.1333 654.216 32.76C654.602 33.3733 654.796 34.0867 654.796 34.9C654.796 35.78 654.569 36.6467 654.116 37.5C653.676 38.34 652.962 39.2267 651.976 40.16C651.002 41.08 649.709 42.0933 648.096 43.2H654.836V45H644.956ZM662.063 45.22C661.13 45.22 660.317 45.0533 659.623 44.72C658.93 44.3867 658.377 43.9133 657.963 43.3C657.563 42.6867 657.343 41.9733 657.303 41.16H659.423C659.49 41.84 659.757 42.3867 660.223 42.8C660.69 43.2133 661.31 43.42 662.083 43.42C662.683 43.42 663.203 43.2867 663.643 43.02C664.083 42.7533 664.423 42.3733 664.663 41.88C664.903 41.3867 665.023 40.8133 665.023 40.16C665.023 39.3067 664.77 38.62 664.263 38.1C663.757 37.5667 663.09 37.3 662.263 37.3C661.69 37.3 661.15 37.4467 660.643 37.74C660.137 38.02 659.73 38.3867 659.423 38.84H657.463L658.643 31.04H666.523V32.84H660.363L659.723 36.88C660.11 36.4533 660.577 36.1133 661.123 35.86C661.67 35.6067 662.23 35.48 662.803 35.48C663.67 35.48 664.437 35.68 665.103 36.08C665.77 36.4667 666.29 37.0067 666.663 37.7C667.037 38.38 667.223 39.1867 667.223 40.12C667.223 41.16 667.01 42.0667 666.583 42.84C666.157 43.6 665.557 44.1867 664.783 44.6C664.01 45.0133 663.103 45.22 662.063 45.22Z" fill="#404040"/>
<path d="M178.48 324.48C176.027 324.48 173.893 323.867 172.08 322.64C170.293 321.387 168.907 319.68 167.92 317.52C166.96 315.333 166.48 312.827 166.48 310C166.48 307.067 166.987 304.52 168 302.36C169.013 300.2 170.427 298.533 172.24 297.36C174.08 296.187 176.213 295.6 178.64 295.6C180.587 295.6 182.347 295.987 183.92 296.76C185.52 297.507 186.813 298.6 187.8 300.04C188.813 301.453 189.4 303.147 189.56 305.12H184.92C184.707 303.333 184.04 301.907 182.92 300.84C181.8 299.747 180.36 299.2 178.6 299.2C177.08 299.2 175.733 299.64 174.56 300.52C173.413 301.373 172.52 302.613 171.88 304.24C171.24 305.867 170.92 307.8 170.92 310.04C170.92 312.28 171.24 314.213 171.88 315.84C172.547 317.467 173.453 318.72 174.6 319.6C175.747 320.453 177.04 320.88 178.48 320.88C179.733 320.88 180.827 320.627 181.76 320.12C182.693 319.587 183.44 318.853 184 317.92C184.587 316.987 184.933 315.893 185.04 314.64H189.72C189.533 316.613 188.96 318.347 188 319.84C187.04 321.307 185.747 322.453 184.12 323.28C182.52 324.08 180.64 324.48 178.48 324.48ZM203.856 324.48C201.589 324.48 199.629 324.013 197.976 323.08C196.349 322.147 195.096 320.827 194.216 319.12C193.336 317.387 192.896 315.347 192.896 313C192.896 310.6 193.336 308.56 194.216 306.88C195.096 305.173 196.349 303.853 197.976 302.92C199.629 301.987 201.602 301.52 203.896 301.52C207.309 301.52 209.989 302.547 211.936 304.6C213.882 306.627 214.856 309.427 214.856 313C214.856 315.347 214.416 317.387 213.536 319.12C212.656 320.827 211.389 322.147 209.736 323.08C208.109 324.013 206.149 324.48 203.856 324.48ZM203.896 321.12C206.029 321.12 207.709 320.4 208.936 318.96C210.189 317.493 210.816 315.507 210.816 313C210.816 310.467 210.189 308.48 208.936 307.04C207.709 305.6 206.029 304.88 203.896 304.88C201.736 304.88 200.042 305.6 198.816 307.04C197.589 308.48 196.976 310.467 196.976 313C196.976 315.507 197.589 317.493 198.816 318.96C200.042 320.4 201.736 321.12 203.896 321.12ZM237.071 324V307.92C237.071 306.96 236.898 306.213 236.551 305.68C236.231 305.147 235.725 304.88 235.031 304.88C234.071 304.88 233.205 305.493 232.431 306.72C231.685 307.947 231.165 309.88 230.871 312.52L230.511 309.12C230.591 306.72 231.151 304.853 232.191 303.52C233.258 302.187 234.565 301.52 236.111 301.52C237.551 301.52 238.685 302.053 239.511 303.12C240.365 304.16 240.791 305.653 240.791 307.6V324H237.071ZM218.791 324V302H222.351L222.511 306.28V324H218.791ZM227.951 324V307.92C227.951 306.907 227.765 306.147 227.391 305.64C227.045 305.133 226.511 304.88 225.791 304.88C224.778 304.88 223.911 305.52 223.191 306.8C222.471 308.08 221.965 309.987 221.671 312.52L221.591 309C221.645 307.427 221.925 306.08 222.431 304.96C222.938 303.84 223.591 302.987 224.391 302.4C225.191 301.813 226.045 301.52 226.951 301.52C228.445 301.52 229.591 302.067 230.391 303.16C231.218 304.227 231.631 305.693 231.631 307.56V324H227.951ZM253.887 324V302H257.927V324H253.887ZM245.767 324V320.72H265.487V324H245.767ZM248.687 305.28V302H255.887V305.28H248.687ZM253.607 298.24V293.88H258.127V298.24H253.607ZM287.502 324V310.12C287.502 308.573 287.062 307.333 286.182 306.4C285.302 305.44 284.156 304.96 282.742 304.96C281.116 304.96 279.662 305.56 278.382 306.76C277.129 307.933 276.129 309.773 275.382 312.28L274.742 307.76C275.569 305.68 276.756 304.12 278.302 303.08C279.876 302.04 281.582 301.52 283.422 301.52C285.076 301.52 286.502 301.88 287.702 302.6C288.929 303.293 289.876 304.267 290.542 305.52C291.209 306.773 291.542 308.253 291.542 309.96V324H287.502ZM271.822 324V302H275.662L275.862 306.96V324H271.822ZM313.598 305.16L313.718 302H317.518V321.6C317.518 324.853 316.638 327.333 314.878 329.04C313.145 330.747 310.518 331.6 306.998 331.6C305.051 331.6 303.358 331.333 301.918 330.8C300.505 330.267 299.385 329.467 298.558 328.4C297.758 327.36 297.305 326.053 297.198 324.48H301.398C301.531 325.68 302.065 326.6 302.998 327.24C303.958 327.907 305.358 328.24 307.198 328.24C309.278 328.24 310.838 327.707 311.878 326.64C312.945 325.573 313.478 324.053 313.478 322.08V319.16C312.731 320.28 311.731 321.16 310.478 321.8C309.251 322.44 307.878 322.76 306.358 322.76C304.465 322.76 302.785 322.307 301.318 321.4C299.878 320.493 298.745 319.24 297.918 317.64C297.091 316.013 296.678 314.187 296.678 312.16C296.678 309.973 297.105 308.093 297.958 306.52C298.811 304.92 299.985 303.693 301.478 302.84C302.971 301.96 304.665 301.52 306.558 301.52C308.078 301.52 309.451 301.853 310.678 302.52C311.905 303.187 312.878 304.067 313.598 305.16ZM307.238 319.6C308.678 319.6 309.958 319.187 311.078 318.36C312.225 317.507 313.025 316.36 313.478 314.92V309.36C313.025 307.92 312.225 306.787 311.078 305.96C309.958 305.107 308.678 304.68 307.238 304.68C305.931 304.68 304.785 305 303.798 305.64C302.838 306.28 302.078 307.16 301.518 308.28C300.985 309.373 300.718 310.653 300.718 312.12C300.718 313.56 300.985 314.853 301.518 316C302.078 317.12 302.838 318 303.798 318.64C304.785 319.28 305.931 319.6 307.238 319.6ZM359.669 324.48C357.509 324.48 355.629 324.067 354.029 323.24C352.429 322.413 351.189 321.227 350.309 319.68C349.429 318.133 348.989 316.253 348.989 314.04H353.189C353.189 316.227 353.763 317.92 354.909 319.12C356.056 320.293 357.629 320.88 359.629 320.88C361.336 320.88 362.709 320.493 363.749 319.72C364.789 318.92 365.309 317.813 365.309 316.4C365.309 315.44 365.016 314.667 364.429 314.08C363.869 313.493 363.109 313.013 362.149 312.64C361.216 312.267 360.189 311.933 359.069 311.64C357.949 311.347 356.816 311.027 355.669 310.68C354.549 310.307 353.509 309.84 352.549 309.28C351.616 308.72 350.856 307.973 350.269 307.04C349.709 306.107 349.429 304.92 349.429 303.48C349.429 301.96 349.829 300.613 350.629 299.44C351.456 298.24 352.589 297.307 354.029 296.64C355.496 295.947 357.216 295.6 359.189 295.6C361.109 295.6 362.829 295.96 364.349 296.68C365.869 297.373 367.083 298.373 367.989 299.68C368.923 300.96 369.403 302.507 369.429 304.32H365.189C365.163 303.253 364.869 302.347 364.309 301.6C363.776 300.827 363.056 300.24 362.149 299.84C361.269 299.413 360.283 299.2 359.189 299.2C357.616 299.2 356.336 299.573 355.349 300.32C354.363 301.067 353.869 302.08 353.869 303.36C353.869 304.267 354.149 304.987 354.709 305.52C355.296 306.053 356.056 306.493 356.989 306.84C357.949 307.16 358.989 307.467 360.109 307.76C361.256 308.027 362.389 308.347 363.509 308.72C364.629 309.067 365.656 309.547 366.589 310.16C367.549 310.747 368.309 311.547 368.869 312.56C369.456 313.547 369.749 314.813 369.749 316.36C369.749 318.013 369.309 319.453 368.429 320.68C367.549 321.88 366.349 322.813 364.829 323.48C363.309 324.147 361.589 324.48 359.669 324.48ZM385.125 324.48C382.858 324.48 380.898 324.013 379.245 323.08C377.618 322.147 376.365 320.827 375.485 319.12C374.605 317.387 374.165 315.347 374.165 313C374.165 310.6 374.605 308.56 375.485 306.88C376.365 305.173 377.618 303.853 379.245 302.92C380.898 301.987 382.872 301.52 385.165 301.52C388.578 301.52 391.258 302.547 393.205 304.6C395.152 306.627 396.125 309.427 396.125 313C396.125 315.347 395.685 317.387 394.805 319.12C393.925 320.827 392.658 322.147 391.005 323.08C389.378 324.013 387.418 324.48 385.125 324.48ZM385.165 321.12C387.298 321.12 388.978 320.4 390.205 318.96C391.458 317.493 392.085 315.507 392.085 313C392.085 310.467 391.458 308.48 390.205 307.04C388.978 305.6 387.298 304.88 385.165 304.88C383.005 304.88 381.312 305.6 380.085 307.04C378.858 308.48 378.245 310.467 378.245 313C378.245 315.507 378.858 317.493 380.085 318.96C381.312 320.4 383.005 321.12 385.165 321.12ZM411.021 324.48C408.754 324.48 406.794 324.013 405.141 323.08C403.514 322.147 402.261 320.827 401.381 319.12C400.501 317.387 400.061 315.347 400.061 313C400.061 310.6 400.501 308.56 401.381 306.88C402.261 305.173 403.514 303.853 405.141 302.92C406.794 301.987 408.767 301.52 411.061 301.52C414.474 301.52 417.154 302.547 419.101 304.6C421.047 306.627 422.021 309.427 422.021 313C422.021 315.347 421.581 317.387 420.701 319.12C419.821 320.827 418.554 322.147 416.901 323.08C415.274 324.013 413.314 324.48 411.021 324.48ZM411.061 321.12C413.194 321.12 414.874 320.4 416.101 318.96C417.354 317.493 417.981 315.507 417.981 313C417.981 310.467 417.354 308.48 416.101 307.04C414.874 305.6 413.194 304.88 411.061 304.88C408.901 304.88 407.207 305.6 405.981 307.04C404.754 308.48 404.141 310.467 404.141 313C404.141 315.507 404.754 317.493 405.981 318.96C407.207 320.4 408.901 321.12 411.061 321.12ZM442.876 324V310.12C442.876 308.573 442.436 307.333 441.556 306.4C440.676 305.44 439.53 304.96 438.116 304.96C436.49 304.96 435.036 305.56 433.756 306.76C432.503 307.933 431.503 309.773 430.756 312.28L430.116 307.76C430.943 305.68 432.13 304.12 433.676 303.08C435.25 302.04 436.956 301.52 438.796 301.52C440.45 301.52 441.876 301.88 443.076 302.6C444.303 303.293 445.25 304.267 445.916 305.52C446.583 306.773 446.916 308.253 446.916 309.96V324H442.876ZM427.196 324V302H431.036L431.236 306.96V324H427.196ZM460.372 324V319.04H465.332V324H460.372ZM486.267 324V319.04H491.227V324H486.267ZM512.163 324V319.04H517.123V324H512.163Z" fill="#555555"/>
</svg>
